<svg width="30" height="30" viewBox="0 0 30 30" fill="none" xmlns="http://www.w3.org/2000/svg">
<rect width="30" height="30" rx="15" fill="#5C6266"/>
<path d="M21.2209 19.7242C21.2805 19.7837 21.3277 19.8544 21.3599 19.9322C21.3922 20.01 21.4087 20.0934 21.4087 20.1776C21.4087 20.2618 21.3922 20.3452 21.3599 20.423C21.3277 20.5008 21.2805 20.5715 21.2209 20.6311C21.1614 20.6906 21.0907 20.7379 21.0129 20.7701C20.9351 20.8023 20.8517 20.8189 20.7675 20.8189C20.6833 20.8189 20.5999 20.8023 20.5221 20.7701C20.4443 20.7379 20.3736 20.6906 20.314 20.6311L14.9993 15.3155L9.68455 20.6311C9.56429 20.7513 9.40118 20.8189 9.23111 20.8189C9.06104 20.8189 8.89793 20.7513 8.77767 20.6311C8.65741 20.5108 8.58984 20.3477 8.58984 20.1776C8.58984 20.0076 8.65741 19.8444 8.77767 19.7242L14.0932 14.4094L8.77767 9.09471C8.65741 8.97445 8.58984 8.81134 8.58984 8.64127C8.58984 8.47119 8.65741 8.30808 8.77767 8.18782C8.89793 8.06756 9.06104 8 9.23111 8C9.40118 8 9.56429 8.06756 9.68455 8.18782L14.9993 13.5034L20.314 8.18782C20.4343 8.06756 20.5974 8 20.7675 8C20.9375 8 21.1007 8.06756 21.2209 8.18782C21.3412 8.30808 21.4087 8.47119 21.4087 8.64127C21.4087 8.81134 21.3412 8.97445 21.2209 9.09471L15.9054 14.4094L21.2209 19.7242Z" fill="#D1D6DC"/>
</svg>
