<svg width="23" height="26" viewBox="0 0 23 26" fill="none" xmlns="http://www.w3.org/2000/svg">
<path id="Vector" d="M1 6.625H22M8.875 11.875V19.75M14.125 11.875V19.75M2.3125 6.625L3.625 22.375C3.625 23.0712 3.90156 23.7389 4.39384 24.2312C4.88613 24.7234 5.55381 25 6.25 25H16.75C17.4462 25 18.1139 24.7234 18.6062 24.2312C19.0984 23.7389 19.375 23.0712 19.375 22.375L20.6875 6.625M7.5625 6.625V2.6875C7.5625 2.3394 7.70078 2.00556 7.94692 1.75942C8.19306 1.51328 8.5269 1.375 8.875 1.375H14.125C14.4731 1.375 14.8069 1.51328 15.0531 1.75942C15.2992 2.00556 15.4375 2.3394 15.4375 2.6875V6.625" stroke="#D1D6DC" stroke-width="2" stroke-linecap="round" stroke-linejoin="round"/>
</svg>
