<svg width="26" height="26" viewBox="0 0 26 26" fill="none" xmlns="http://www.w3.org/2000/svg">
<g id="uil:heart-rate">
<path id="Vector" d="M22.7493 11.917H18.481C18.4055 11.9067 18.329 11.9067 18.2535 11.917H18.0693C18.0127 11.9493 17.9584 11.9855 17.9068 12.0253C17.8465 12.0651 17.7886 12.1085 17.7335 12.1553C17.6973 12.1996 17.6647 12.2467 17.636 12.2961C17.5864 12.3644 17.5429 12.4369 17.506 12.5128L15.7727 17.2903L11.2552 5.04863C11.1793 4.83949 11.0408 4.65879 10.8586 4.5311C10.6764 4.4034 10.4593 4.3349 10.2368 4.3349C10.0144 4.3349 9.79727 4.4034 9.61507 4.5311C9.43288 4.65879 9.29442 4.83949 9.21852 5.04863L6.71601 11.917H3.24935C2.96203 11.917 2.68648 12.0311 2.48332 12.2343C2.28015 12.4374 2.16602 12.713 2.16602 13.0003C2.16602 13.2876 2.28015 13.5632 2.48332 13.7663C2.68648 13.9695 2.96203 14.0836 3.24935 14.0836H7.90768C7.96926 14.054 8.02739 14.0177 8.08102 13.9753C8.14134 13.9355 8.19922 13.8921 8.25435 13.8453L8.35185 13.7045C8.40348 13.6376 8.44711 13.5648 8.48185 13.4878L10.2368 8.58029L14.7435 20.952C14.8192 21.1613 14.9576 21.3423 15.1398 21.4702C15.322 21.5982 15.5392 21.6669 15.7618 21.667C15.9845 21.6669 16.2017 21.5982 16.3839 21.4702C16.5661 21.3423 16.7045 21.1613 16.7802 20.952L19.2718 14.0836H22.7493C23.0367 14.0836 23.3122 13.9695 23.5154 13.7663C23.7185 13.5632 23.8327 13.2876 23.8327 13.0003C23.8327 12.713 23.7185 12.4374 23.5154 12.2343C23.3122 12.0311 23.0367 11.917 22.7493 11.917Z" fill="#7F30FF"/>
</g>
</svg>
