<svg width="305" height="277" viewBox="0 0 305 277" fill="none" xmlns="http://www.w3.org/2000/svg">
<path d="M161.962 77.6882L157.916 75.2604C160.344 70.135 165.361 59.8842 166.009 59.8842C166.656 59.8842 171.134 56.6471 173.292 55.0286L181.385 54.2193L182.194 55.8379L181.385 66.3583L183.003 70.4047L188.668 71.2139L196.761 59.8842L199.998 50.9823C203.774 50.173 211.651 48.3927 212.946 47.7453C214.241 47.0979 219.96 48.5546 222.657 49.3639L235.606 64.7399L229.131 68.7862L219.42 74.4511L214.565 75.2604L211.328 85.7808L206.472 80.116V76.0696L204.853 69.5955L191.096 76.0696L183.813 73.6418L170.864 72.8326L169.246 87.3994L161.962 93.0642H160.344L161.962 77.6882Z" fill="#7F30FF" stroke="black" stroke-width="1.55488"/>
<path d="M146.585 119.77L150.632 111.677L154.678 108.44L163.58 107.631L173.291 108.44L178.956 107.631L184.621 111.677L191.095 110.059C193.253 107.631 197.731 102.614 198.378 101.966C199.026 101.319 202.425 100.617 204.043 100.348L203.234 106.013L191.095 135.146C188.128 134.607 182.031 133.528 181.384 133.528C180.736 133.528 171.403 130.291 166.817 128.672L144.967 122.198L146.585 119.77Z" fill="#7F30FF" stroke="black" stroke-width="1.55488"/>
<path fill-rule="evenodd" clip-rule="evenodd" d="M174.573 1.64425C172.948 2.56473 171.39 3.80612 171.113 4.40276C170.382 5.97679 171.093 15.5395 171.971 15.9273C172.802 16.2945 172.852 18.2159 172.096 20.7139C171.716 21.97 171.102 22.6834 170.186 22.9333C168.589 23.3698 167.053 24.7871 167.053 25.825C167.053 26.2315 167.887 27.5527 168.906 28.7618C170.104 30.1825 170.771 31.9759 170.791 33.8344L170.826 37.0855C170.89 43.0185 170.937 43.2555 172.312 44.6177C173.593 45.8873 174.201 46.0245 178.533 46.0245C183.253 46.0245 183.34 46.0498 183.66 47.5188C183.839 48.3401 183.901 49.0817 183.797 49.1656C182.639 50.1072 176.414 52.4421 174.439 52.6762C171.338 53.0434 169.468 54.1124 166.849 57.0134C164.862 59.2152 161.542 64.7968 159.645 69.1252C159.097 70.376 157.903 72.092 156.992 72.9386C156.082 73.7851 155.337 74.8957 155.337 75.4055C155.337 75.9159 153.587 78.1435 151.449 80.3558C143.93 88.138 137.22 98.3835 135.439 104.803C134.43 108.441 134.171 112.101 134.841 113.257C136.039 115.322 139.027 115.719 143.748 114.439C145.359 114.002 146.677 113.739 146.677 113.853C146.677 113.967 145.96 115.636 145.085 117.56C143.369 121.329 143.42 122.876 145.26 122.882C145.899 122.884 147.079 123.28 147.881 123.762C148.684 124.244 149.652 124.638 150.032 124.638C151.349 124.638 156.657 127.838 155.694 128.051C155.191 128.163 154.497 127.986 154.153 127.658C153.414 126.951 149.197 125.228 146.677 124.603C145.696 124.359 141.914 123.183 138.272 121.987C134.63 120.792 130.962 119.606 130.121 119.352C127.57 118.582 119.524 115.899 117.869 115.267C117.014 114.94 115.295 114.413 114.049 114.095C108.304 112.632 106.136 111.988 105.593 111.584C104.64 110.874 97.2071 109.385 94.6158 109.385C91.376 109.385 87.2891 110.45 84.8027 111.942C82.6637 113.226 78.3201 118.051 72.4431 125.671C70.5456 128.131 67.9074 131.422 66.5805 132.985C64.3406 135.622 58.4408 143.537 54.6264 149.024C51.2592 153.867 43.0543 167.674 41.925 170.398C41.7243 170.882 40.975 172.334 40.2598 173.625C36.8631 179.755 35.1184 183.92 35.1184 185.897C35.1184 186.776 34.8265 187.831 34.4704 188.242C32.3783 190.651 23.0197 196.266 15.7969 199.444C8.77481 202.535 6.85743 203.486 6.6771 203.97C6.58337 204.22 6.27518 204.425 5.99145 204.425C4.97265 204.425 2.56319 206.836 1.78381 208.636C0.209252 212.271 0.669239 214.161 4.05777 217.979C7.47787 221.833 8.25369 222.065 12.4501 220.486C14.8382 219.586 15.8713 219.178 20.3458 217.361C23.6503 216.019 28.7203 214.931 33.8449 214.462C39.2817 213.965 42.4359 212.978 43.8948 211.318C44.391 210.754 44.9819 210.292 45.2086 210.292C45.9121 210.292 47.4026 205.744 47.8549 202.218C48.4249 197.77 49.3159 195.038 50.1956 195.038C50.5884 195.038 50.9098 194.746 50.9098 194.389C50.9098 194.033 51.5975 192.74 52.438 191.518C53.2785 190.296 53.9662 189.108 53.9662 188.878C53.9662 188.648 54.6539 187.46 55.4944 186.238C56.3349 185.016 57.0226 183.827 57.0226 183.596C57.0226 183.115 64.657 174.332 66.9559 172.168C71.4804 167.91 75.3197 164.057 77.016 162.072C78.0664 160.844 79.1361 159.838 79.3934 159.838C79.6501 159.838 79.9507 159.527 80.0607 159.148C80.4687 157.737 81.3189 159.3 81.9368 162.597C84.0233 173.735 88.398 191.849 89.6634 194.59C89.9222 195.15 90.1336 196.135 90.1336 196.778C90.1336 197.422 90.454 198.943 90.8462 200.16C91.2379 201.376 92.0621 204.352 92.677 206.772C93.2923 209.192 93.9953 211.7 94.2393 212.345C94.4833 212.99 95.1343 215.102 95.6855 217.038C96.6386 220.386 97.9381 223.989 100.551 230.532C101.195 232.145 102.036 234.485 102.419 235.733C103.03 237.72 104.982 240.285 106.344 240.889C106.596 241 106.961 242.993 107.156 245.317L107.309 247.144C107.434 248.633 106.772 250.079 105.564 250.957C104.494 251.736 103.307 252.804 102.926 253.332C102.546 253.86 101.919 254.292 101.533 254.292C101.147 254.292 100.831 254.562 100.831 254.893C100.831 255.223 100.315 255.751 99.6848 256.065C98.2758 256.766 96.5943 257.963 96.228 258.523C96.0777 258.753 94.4731 259.84 92.6622 260.938C86.4572 264.702 85.8032 265.146 85.3961 265.879C85.172 266.282 84.6769 266.612 84.2953 266.612C83.9138 266.612 82.9969 267.44 82.2572 268.452C81.1926 269.909 80.9445 270.795 81.0657 272.706C81.1544 274.101 82.2329 275.23 83.6224 275.383L84.2755 275.455C85.9565 275.64 87.9931 276.109 88.8015 276.497C90.1157 277.129 91.2201 276.835 99.2442 273.724C104.685 271.614 110.323 269.857 113.566 269.261C119.996 268.079 123.9 266.19 125.006 263.727C126.693 259.968 125.702 251.84 122.677 244.628C121.934 242.857 121.773 241.643 122.025 239.708C122.209 238.295 122.1 235.785 121.783 234.129C121.465 232.473 120.609 227.686 119.88 223.492C119.151 219.297 118.24 214.149 117.856 212.052C117.472 209.954 116.804 205.07 116.371 201.198C115.939 197.326 115.277 191.386 114.9 187.998C114.524 184.61 114.32 181.626 114.447 181.367C114.575 181.107 115.223 181.305 115.887 181.807C116.552 182.308 117.549 182.718 118.103 182.718C118.656 182.718 119.251 182.982 119.424 183.305C119.597 183.628 120.367 183.892 121.135 183.892C123.284 183.892 123.753 184.884 123.758 189.436C123.761 191.71 123.985 195.816 124.256 198.558C124.528 201.301 124.975 206.515 125.251 210.146C125.527 213.776 125.978 218.264 126.256 220.119C126.533 221.974 127.129 226.132 127.579 229.358C130.527 250.476 133.394 263.352 135.626 265.498C137.988 267.769 141.71 266.098 141.731 262.759C141.736 261.812 141.485 259.059 141.171 256.639C139.452 243.381 138.783 234.305 138.21 216.452C137.911 207.141 139.074 186.546 139.956 185.531C140.22 185.227 146.023 184.884 152.853 184.769C159.682 184.654 166.395 184.267 167.771 183.909C169.147 183.551 170.454 183.467 170.675 183.722C170.897 183.977 170.845 185.242 170.561 186.532C169.625 190.771 169.432 212.246 170.269 218.914C171.024 224.924 172.374 228.478 173.902 228.478C175.146 228.478 175.55 227.026 176.43 219.385C177.284 211.976 178.348 204.541 179.328 199.145C179.592 197.693 180.007 193.399 180.25 189.603C180.696 182.667 181.201 180.958 182.809 180.958C183.282 180.958 184.113 180.571 184.657 180.097C185.201 179.623 186.05 179.227 186.545 179.217C187.039 179.207 187.841 178.962 188.327 178.675C192.947 175.941 195.577 174.586 195.562 174.95C195.553 175.189 195.324 177.233 195.052 179.492C192.359 201.847 191.858 219.076 193.276 240.505C193.985 251.217 194.627 255.163 196.251 258.78C197.792 262.212 200.622 263.758 202.193 262.027C203.773 260.286 203.948 258.284 203.79 243.732C203.687 234.243 204.713 199.704 205.132 198.558C205.309 198.074 205.742 194.51 206.094 190.638C207.217 178.305 208.434 168.268 210.577 153.678C211.003 150.774 211.625 146.286 211.959 143.705C212.293 141.124 212.715 138.88 212.899 138.718C213.082 138.557 213.494 136.445 213.814 134.025C214.681 127.462 215.732 120.939 216.082 119.945C216.252 119.461 216.628 117.349 216.918 115.251C217.208 113.154 217.578 110.514 217.741 109.385C217.904 108.255 218.157 106.441 218.305 105.354C218.452 104.264 219.458 103.501 220.547 103.655L220.957 103.712C222.268 103.897 224.602 104.454 226.143 104.95C228.828 105.814 229.594 106.151 233.02 107.976C237.548 110.387 248.876 110.062 252.514 107.418C253.8 106.483 254.569 104.996 254.59 103.406L254.613 101.732C254.686 96.126 253.357 90.7985 250.434 84.9852C250.095 84.3111 248.674 82.1973 247.277 80.2889C245.879 78.3805 244.507 76.394 244.227 75.8742C242.642 72.935 238.876 66.9299 237.23 64.7164C233.855 60.1779 228.898 53.3972 227.889 51.9393C222.666 44.3901 221.099 43.4227 214.712 43.8075C212.162 43.9612 209.622 44.3696 209.068 44.7151C208.513 45.0606 206.622 45.9272 204.865 46.6405C203.108 47.3534 201.547 48.1665 201.397 48.4475C201.246 48.7279 200.563 48.9579 199.879 48.9579C198.861 48.9579 198.636 48.664 198.636 47.3404C198.636 46.451 198.427 44.887 198.173 43.865C197.577 41.4726 197.945 41.1059 199.597 42.4447C202.034 44.4206 203.087 44.491 204.472 42.7697C205.166 41.9067 205.872 40.7017 206.04 40.0927C206.208 39.4832 206.737 38.9845 207.217 38.9845C209.453 38.9845 211.88 35.1395 211.88 31.5954C211.88 29.2687 211.341 28.7847 209.703 29.6442C208.649 30.1974 208.265 30.076 207.085 28.8158C205.716 27.355 205.708 27.301 206.315 23.7417C207.022 19.6063 206.503 16.6583 204.59 13.9308C203.957 13.0291 202.997 11.2075 202.457 9.88283C201.916 8.55813 201.011 7.23813 200.446 6.94949C199.881 6.66085 199.159 5.82015 198.842 5.08212C198.053 3.23822 196.591 2.06547 195.056 2.04318C194.348 2.03262 193.215 1.57795 192.538 1.03176C191.536 0.223334 190.031 0.0332535 184.418 0.00509338C177.842 -0.0271734 177.393 0.0473336 174.573 1.64425ZM177.357 12.5844C177.517 12.5844 179.104 13.6023 180.883 14.8472C183.985 17.0173 184.129 17.2215 184.396 19.8404C184.55 21.3422 185.055 23.0084 185.519 23.5422C186.303 24.4457 186.544 24.4046 188.98 22.9491C191.891 21.2096 193.631 20.9744 194.514 22.2005C194.983 22.8511 194.712 23.3662 193.176 24.7431C192.116 25.6924 190.848 26.6369 190.358 26.8417C189.137 27.3515 189.24 28.2467 190.613 29.0733C192.035 29.9293 194.541 33.2528 194.22 33.8582C193.734 34.7763 195.178 43.523 196.439 47.297C197.986 51.9299 197.832 52.7982 194.486 58.2959C190.431 64.9569 188.93 66.5949 186.54 66.9645C183.214 67.4778 182.647 66.6113 183.019 61.5842C183.468 55.5057 183.856 53.8313 185.199 52.1629C186.694 50.3049 186.72 48.5912 185.323 44.1783C184.545 41.7196 183.975 40.7445 183.315 40.7445C182.809 40.7445 182.236 41.0408 182.041 41.4034C181.568 42.2863 174.481 41.7583 173.439 40.7621C173.008 40.3509 172.656 39.4427 172.656 38.744C172.656 37.6628 172.969 37.4598 174.754 37.3776C175.908 37.3243 176.918 37.2022 176.998 37.106C177.43 36.5886 177.42 34.5986 176.986 34.6796C176.706 34.7318 175.617 34.9594 174.567 35.1847C173.584 35.396 172.656 34.6468 172.656 33.6414V32.699C172.656 30.3675 172.408 29.5333 171.383 28.4245C169.796 26.7073 169.773 26.0778 171.297 26.0778C172.587 26.0778 173.406 24.6686 173.94 21.5311C174.237 19.7899 174.43 19.6245 176.155 19.6245C177.194 19.6245 178.929 20.1437 180.01 20.779C182.168 22.0456 183.103 21.8632 182.383 20.3156C181.471 18.3514 179.845 17.1898 177.46 16.7973C176.127 16.5773 175.074 16.2001 175.12 15.9578C175.166 15.7155 175.203 14.4207 175.203 13.0802C175.203 10.7558 175.247 10.6877 176.135 11.6135C176.647 12.1474 177.197 12.5844 177.357 12.5844ZM175.203 21.923C175.203 23.6719 175.752 24.9045 176.531 24.9045C177.404 24.9045 177.474 22.4745 176.63 21.5018C175.741 20.4787 175.203 20.6376 175.203 21.923ZM219.77 49.8743C220.692 50.3782 221.806 51.2359 222.245 51.7809C222.684 52.3254 224.084 54.0408 225.357 55.5925C226.63 57.1443 227.671 58.52 227.671 58.6496C227.671 58.7799 228.703 60.1087 229.964 61.6024C231.225 63.0966 232.256 64.4952 232.256 64.7105C232.256 64.9264 230.594 65.7219 228.563 66.4793C225.916 67.4661 224.344 68.4728 223.013 70.031C221.35 71.9799 221.058 72.1219 220.212 71.3933C217.982 69.4766 213.327 72.5989 212.578 76.5143C212.422 77.3303 211.972 78.8299 211.577 79.8466C211.184 80.8633 210.861 81.9856 210.861 82.3399C210.861 82.6948 210.632 82.9847 210.352 82.9847C210.072 82.9847 209.842 82.5887 209.842 82.1047C209.842 81.6207 209.597 81.2247 209.297 81.2247C208.931 81.2247 208.801 78.9496 208.902 74.3313C208.986 70.5397 208.874 67.1082 208.654 66.7046C208.103 65.695 203.979 65.7923 201.183 66.8812C197.803 68.1971 192.523 71.2419 192.523 71.8749C192.523 72.1771 192.254 72.4246 191.926 72.4246C191.598 72.4246 190.943 72.8271 190.471 73.3193C189.729 74.0925 189.53 74.1002 189.009 73.3768C188.521 72.6986 188.725 72.2809 190.082 71.1832C191.004 70.437 191.83 69.6368 191.918 69.4039C192.005 69.171 192.748 68.1056 193.568 67.0361C194.389 65.9666 195.192 64.6296 195.354 64.0646C195.516 63.4996 195.861 63.0379 196.123 63.0379C196.384 63.0379 196.598 62.737 196.598 62.3697C196.598 62.0019 197.286 60.4138 198.126 58.8409C198.967 57.2675 199.662 55.2581 199.67 54.3758C199.693 52.1018 201.364 50.9573 205.38 50.4621C207.268 50.2298 208.943 49.7956 209.103 49.4988C209.604 48.5654 217.911 48.8582 219.77 49.8743ZM180.297 56.8779C180.297 57.3619 180.068 57.7579 179.788 57.7579C179.491 57.7579 179.278 59.7133 179.278 62.4513C179.278 65.1892 179.491 67.1446 179.788 67.1446C180.068 67.1446 180.297 67.5694 180.297 68.0886C180.297 68.8512 179.93 68.965 178.387 68.6817C172.845 67.6615 172.265 67.6227 171.928 68.2505C171.735 68.6101 171.23 68.9046 170.807 68.9046C168.868 68.9046 168.334 70.6546 168.141 77.6383C167.94 84.9336 167.532 86.3058 165.139 87.7279C163.466 88.7223 162.829 89.3752 162.134 90.8114C161.749 91.6081 161.624 90.4852 161.658 86.5364C161.687 83.2997 161.93 81.0158 162.273 80.7629C162.585 80.533 163.001 79.7509 163.198 79.0247C163.395 78.2983 163.745 77.7046 163.976 77.7046C164.206 77.7046 164.553 76.9813 164.746 76.0972C164.938 75.2131 165.325 74.3272 165.604 74.1283C165.883 73.9294 166.239 72.6728 166.394 71.3358C166.623 69.3728 166.523 68.9046 165.872 68.9046C164.941 68.9046 161.965 72.3642 161.961 73.4513C161.96 73.8549 161.73 74.1846 161.45 74.1846C161.169 74.1846 160.94 74.5806 160.94 75.0646C160.94 75.5486 160.711 75.9446 160.431 75.9446C159.534 75.9446 159.886 73.6214 160.94 72.5819C161.5 72.0292 161.959 71.3592 161.959 71.0929C161.959 70.8265 162.532 69.997 163.232 69.2496C163.933 68.5016 164.506 67.6439 164.506 67.3435C164.506 65.8668 169.836 59.6194 171.508 59.136C172.14 58.9535 172.656 58.5804 172.656 58.3076C172.656 58.0342 173.461 57.6371 174.445 57.4247C175.428 57.2123 176.359 56.804 176.512 56.5183C177.01 55.5908 180.297 55.9029 180.297 56.8779ZM235.812 69.638C238.295 73.0142 239.135 74.2691 240.648 76.8692C241.601 78.5072 242.739 80.1898 243.177 80.6081C243.614 81.0264 243.972 81.7321 243.972 82.1762C243.972 82.6209 244.163 82.9847 244.396 82.9847C245.025 82.9847 247.79 88.1063 249.825 93.0413C251.605 97.3569 252.451 103.334 251.447 104.492C250.938 105.078 244.555 104.852 239.642 104.074C236.368 103.555 234.947 103.005 231.159 100.789C230.415 100.354 229.467 99.998 229.052 99.998C228.637 99.998 227.641 99.6038 226.838 99.1216C226.036 98.6399 224.989 98.2439 224.513 98.2416C224.036 98.2398 222.326 97.842 220.713 97.358C218.986 96.84 215.528 96.478 212.309 96.478C207.454 96.478 206.571 96.3132 204.445 95.0114C203.128 94.2047 201.798 93.5406 201.489 93.5359C201.18 93.5306 200.59 93.2807 200.177 92.9797C199.543 92.518 199.613 92.2047 200.624 90.9657C202.291 88.9212 201.738 87.678 199.161 87.678C198.032 87.678 197.107 87.4334 197.107 87.1342C197.107 86.4401 200.033 84.7447 201.231 84.7447C202.539 84.7447 203.012 83.5156 202.025 82.6843C200.789 81.6441 200.99 81.2247 202.721 81.2247C204.62 81.2247 207.769 83.4493 209.39 85.9368C210.059 86.9629 211.261 88.5662 212.061 89.5002C212.985 90.5779 214.333 91.1984 215.752 91.1991L220.976 91.2015C225.079 91.2033 230.269 91.3511 232.511 91.5295C238.531 92.0094 239.509 90.4166 234.843 87.7331C225.102 82.1316 222.414 79.5656 222.678 76.1148C222.862 73.7141 223.511 73.2401 229.964 70.7931C235.557 68.6717 235.159 68.7503 235.812 69.638ZM205.513 74.7713V75.436C205.513 76.8038 204.325 77.8689 202.966 77.7211C196.674 77.037 194.335 77.8108 193.772 80.7635C193.527 82.0507 193.679 82.6778 194.382 83.2692C195.269 84.0166 195.242 84.1263 193.863 85.3753C192.562 86.5551 192.435 86.9646 192.662 89.282C192.802 90.7058 192.673 92.6101 192.377 93.5136C191.893 94.9926 192.018 95.3675 193.633 97.2835C194.62 98.4539 195.858 99.4114 196.384 99.4114C197.098 99.4114 196.827 99.8907 195.313 101.307C194.199 102.351 192.119 104.463 190.691 106.001C187.826 109.087 187.636 109.16 185.56 107.974C184.767 107.521 183.054 106.593 181.754 105.912C179.043 104.492 178.539 103.892 178.041 101.497C177.749 100.095 177.904 99.5756 178.862 98.7396C180.001 97.7452 180.013 97.6514 179.192 96.0826C178.724 95.1885 177.597 93.9976 176.688 93.4362L176.327 93.213C175.781 92.8757 175.839 92.0642 176.426 91.807C177.191 91.472 178.11 91.198 178.469 91.198C178.827 91.198 179.527 90.6806 180.024 90.0481C181.073 88.7135 180.734 85.918 179.523 85.918C179.108 85.918 178.769 85.6288 178.769 85.2744C178.769 84.6361 176.39 84.7728 171.966 85.6651C170.21 86.0189 170.03 85.9444 170.273 84.9629C170.423 84.3586 170.698 81.9691 170.885 79.653C171.076 77.2852 171.488 75.3245 171.827 75.1743C172.92 74.6915 182.026 75.8866 184.803 76.8774C187.466 77.8273 187.519 77.89 187.198 79.6835C186.734 82.2736 185.987 97.2073 186.278 98.0914C186.591 99.0435 187.665 99.03 188.361 98.0661C188.661 97.6484 189.048 95.4707 189.219 93.2261C189.392 90.9809 189.736 87.9567 189.985 86.5047C190.235 85.0527 190.587 82.469 190.767 80.7629C190.974 78.8124 192.096 77.0765 193.789 76.0871L194.738 75.5328C199.755 72.6024 202.736 71.3188 204.239 71.4408C205.432 71.5382 205.513 71.7482 205.513 74.7713ZM219.11 78.6005C219.555 79.7245 219.553 80.2496 219.1 80.7712C218.771 81.1496 218.502 82.5646 218.502 83.9157C218.502 86.2354 218.411 86.3873 216.847 86.6625C215.936 86.8226 214.905 86.6883 214.554 86.3639C213.824 85.6874 213.704 83.7931 214.361 83.3249C214.605 83.1513 214.952 82.1627 215.132 81.1284C215.498 79.02 216.776 77.118 217.828 77.118C218.211 77.118 218.788 77.785 219.11 78.6005ZM159.556 78.438C159.681 78.8416 159.545 79.6993 159.253 80.3447C158.962 80.99 158.759 83.5807 158.805 86.101C158.888 90.7926 158.534 91.9014 155.846 95.3651C155.078 96.3548 150.875 98.238 149.435 98.238C149.011 98.238 147.971 98.6505 147.125 99.1544C145.871 99.9012 145.698 100.227 146.194 100.914C147.242 102.369 152.841 101.581 158.871 99.1304C160.08 98.6399 161.154 98.238 161.259 98.238C161.364 98.238 161.45 99.4026 161.45 100.826C161.45 103.344 161.384 103.448 159.03 104.681C157.699 105.378 156.212 106.194 155.726 106.494C155.239 106.793 154.52 107.038 154.128 107.038C153.736 107.038 152.759 107.432 151.956 107.915C151.154 108.396 149.892 108.792 149.152 108.795C148.412 108.796 145.567 109.468 142.83 110.288C139.805 111.192 137.669 111.565 137.385 111.238C136.251 109.932 139.994 101.782 144.162 96.478C149.263 89.9871 155.01 82.4842 156.61 80.2244C158.111 78.1053 158.472 77.7046 158.88 77.7046C159.126 77.7046 159.43 78.0349 159.556 78.438ZM224.747 84.4748C225.515 85.295 226.143 86.087 226.143 86.2348C226.143 86.3832 225.112 86.5047 223.851 86.5047C221.789 86.5047 221.559 86.3668 221.559 85.136C221.559 82.5394 222.711 82.3006 224.747 84.4748ZM175.713 88.558C175.012 89.0191 173.924 89.4057 173.293 89.4175C172.662 89.4286 172.147 89.702 172.147 90.0247C172.147 90.3474 171.839 90.6114 171.462 90.6114C170.409 90.6114 169.028 92.6747 169.378 93.7254C169.602 94.3989 170.502 94.7116 172.574 94.8371C174.731 94.9674 175.458 95.2331 175.458 95.8914C175.458 96.576 174.779 96.7714 172.402 96.7714C168.78 96.7714 167.855 97.2612 168.569 98.7989C168.864 99.4325 170.15 100.173 171.697 100.601C173.73 101.163 174.136 101.449 173.491 101.865C172.256 102.661 172.476 103.959 174.003 104.88C176.022 106.098 174.823 106.418 171.383 105.579C167.203 104.559 165.673 103.641 164.493 101.441C163.286 99.192 163.233 97.7271 164.256 94.9063C165.843 90.5333 169.867 87.9086 175.203 87.7666L175.462 87.7598C175.9 87.7483 176.078 88.3173 175.713 88.558ZM207.556 103.479C207.363 104.791 207.02 105.865 206.793 105.865C206.566 105.865 206.219 107.713 206.022 109.971C205.825 112.23 205.5 114.078 205.3 114.078C205.1 114.078 204.678 115.86 204.362 118.038C204.047 120.216 203.437 123.978 203.007 126.398C201.023 137.575 200.137 143.023 198.595 153.532C198.276 155.709 197.841 157.492 197.63 157.492C197.419 157.492 196.699 156.865 196.031 156.099C194.39 154.22 191.396 152.438 188.387 151.55C187.019 151.147 185.901 150.596 185.901 150.326C185.901 147.841 188.864 141.436 192.006 137.129C192.29 136.74 192.523 136.296 192.523 136.144C192.523 135.993 193.402 134.331 194.475 132.453C195.55 130.575 196.982 127.718 197.659 126.105C198.336 124.491 199.03 123.039 199.203 122.878C199.376 122.717 199.694 121.925 199.909 121.118C200.125 120.311 200.442 119.519 200.615 119.356C201.243 118.766 203.22 114.114 203.22 113.229C203.22 112.728 203.449 112.318 203.73 112.318C204.01 112.318 204.247 111.856 204.256 111.291C204.266 110.726 204.716 109.209 205.258 107.918C205.799 106.627 206.25 105.162 206.259 104.661C206.28 103.602 207.453 100.571 207.723 100.881C207.824 100.997 207.748 102.166 207.556 103.479ZM215.36 102.071C215.7 102.422 214.807 108.798 214.418 108.798C214.198 108.798 213.858 110.382 213.663 112.318C213.468 114.254 213.134 115.838 212.921 115.838C212.707 115.838 212.28 117.62 211.971 119.798C211.104 125.902 210.066 131.878 209.704 132.851C209.524 133.335 209.141 135.711 208.853 138.132C208.566 140.551 207.969 145.04 207.528 148.105C206.381 156.07 204.364 174.423 203.177 187.705C202.889 190.932 202.449 194.1 202.198 194.745C201.299 197.068 199.451 240.333 199.899 248.571C200.213 254.342 199.893 258.399 199.123 258.399C198.892 258.399 198.566 257.897 198.397 257.284C198.229 256.672 197.558 255.55 196.908 254.791C195.765 253.458 195.711 252.948 195.296 239.332C194.508 213.562 195.247 195.942 197.644 183.305C198.234 180.194 198.987 174.503 199.777 167.172C200.089 164.268 200.499 161.76 200.687 161.598C200.874 161.437 201.278 158.929 201.585 156.025C201.892 153.121 202.517 148.633 202.973 146.052C203.43 143.47 204.059 139.576 204.37 137.398C204.682 135.22 205.101 133.438 205.302 133.438C205.503 133.438 205.827 131.854 206.022 129.918C206.217 127.982 206.561 126.398 206.786 126.398C207.011 126.398 207.355 124.814 207.55 122.878C207.745 120.942 208.069 119.358 208.27 119.358C208.471 119.358 208.89 117.576 209.202 115.398C210.413 106.933 211.168 102.607 211.564 101.87C211.844 101.35 212.495 101.231 213.584 101.499C214.468 101.717 215.268 101.974 215.36 102.071ZM202.305 104.838C201.828 105.886 201.276 106.829 201.078 106.931C200.881 107.034 199.85 109.146 198.786 111.625C197.723 114.103 196.712 116.263 196.539 116.425C196.367 116.586 196.065 117.312 195.868 118.038C195.671 118.764 195.315 119.358 195.076 119.358C194.837 119.358 194.49 120.15 194.306 121.118C194.121 122.086 193.778 122.878 193.542 122.878C193.306 122.878 192.962 123.67 192.778 124.638C192.593 125.606 192.249 126.398 192.013 126.398C191.778 126.398 191.434 127.19 191.249 128.158C191.065 129.126 190.721 129.918 190.485 129.918C190.249 129.918 189.91 130.688 189.73 131.629C189.551 132.57 189.046 133.499 188.607 133.692C188.162 133.889 185.809 132.893 183.287 131.441C180.799 130.008 178.02 128.653 177.111 128.43C176.202 128.206 175.229 127.82 174.949 127.571C174.668 127.323 173.694 126.937 172.784 126.713C171.873 126.488 171.128 126.088 171.128 125.823C171.128 125.557 169.753 125.156 168.072 124.931C166.391 124.707 165.015 124.306 165.015 124.04C165.015 123.775 163.522 123.374 161.697 123.149C159.872 122.924 158.254 122.507 158.101 122.222C157.948 121.938 155.208 121.705 152.011 121.705C146.898 121.705 146.237 121.592 146.511 120.768C146.903 119.593 151.658 114.078 152.28 114.078C152.533 114.078 153.52 113.154 154.472 112.025C155.424 110.895 156.448 109.971 156.747 109.971C157.045 109.971 157.374 109.679 157.478 109.321C157.599 108.901 159.525 108.671 162.916 108.671C166.079 108.671 168.389 108.929 168.729 109.321C169.437 110.136 176.731 110.194 176.731 109.385C176.731 108.658 178.605 108.604 178.989 109.32C179.143 109.607 179.85 110.01 180.561 110.215C181.271 110.42 182.961 111.374 184.315 112.333C187.385 114.509 188.394 114.52 190.012 112.396C190.717 111.471 191.799 110.529 192.417 110.303C193.036 110.077 193.542 109.646 193.542 109.345C193.542 109.044 193.893 108.798 194.322 108.798C194.751 108.798 195.228 108.418 195.383 107.954C195.538 107.49 196.333 106.941 197.15 106.734C197.967 106.527 198.636 106.12 198.636 105.83C198.636 105.539 199.209 105.135 199.909 104.933C200.61 104.73 201.183 104.348 201.183 104.084C201.183 103.82 201.584 103.483 202.074 103.336C202.564 103.188 203.012 103.037 203.069 102.999C203.126 102.962 202.782 103.79 202.305 104.838ZM103.247 152.581C106.397 154.314 109.147 155.733 109.36 155.735C109.572 155.737 110.377 156.118 111.149 156.582C112.48 157.382 116.794 158.85 120.698 159.832C121.678 160.079 123.512 160.561 124.773 160.904C130.303 162.405 133.636 162.932 140.564 163.402C144.627 163.677 149.211 164.157 150.752 164.468C152.293 164.779 157.787 165.052 162.961 165.075C173.698 165.124 175.48 164.659 178.987 160.889C180.128 159.662 181.942 158.379 183.019 158.038C184.752 157.488 184.94 157.253 184.664 155.988C184.177 153.752 185.728 154.166 189.734 157.345C193.422 160.272 196.598 164.431 196.598 166.336C196.598 168.266 193.297 171.634 189.629 173.447C184.642 175.91 180.319 177.422 178.234 177.431C177.24 177.435 176.208 177.665 175.942 177.942C174.83 179.098 156.291 180.546 147.21 180.186C136.486 179.76 135.98 179.632 135.98 177.37C135.98 176.257 135.718 175.678 135.215 175.678C134.699 175.678 134.451 176.274 134.451 177.517C134.451 178.519 133.616 179.319 132.615 179.274L126.683 179.012C115.572 178.521 112.096 177.163 112.054 173.297C112.045 172.472 111.701 171.284 111.29 170.657C110.878 170.031 110.535 169.151 110.526 168.703C110.517 168.254 110.02 166.67 109.421 165.183C108.066 161.815 107.605 160.494 107.191 158.793C106.853 157.406 104.5 154.558 103.691 154.558C103.074 154.558 95.7492 150.506 94.4635 149.453C92.1223 147.535 97.661 149.508 103.247 152.581ZM188.575 160.443C185.899 161.682 188.08 164.523 190.794 163.334C192.122 162.753 192.362 161.648 191.402 160.542C190.695 159.727 190.161 159.709 188.575 160.443ZM130.051 164.825C129.643 166.049 130.246 167.612 131.013 167.322C132.014 166.943 132.143 163.945 131.158 163.945C130.71 163.945 130.212 164.341 130.051 164.825ZM115.335 166.909C114.703 168.316 114.642 168.936 115.086 169.439C115.527 169.938 115.991 169.684 116.936 168.427C118.29 166.627 118.309 165.522 116.992 165.229C116.493 165.117 115.844 165.775 115.335 166.909ZM182.844 168.57C182.844 169.768 183.141 170.351 183.863 170.568C184.655 170.807 184.882 170.586 184.882 169.58C184.882 168.293 184.029 166.878 183.252 166.878C183.028 166.878 182.844 167.64 182.844 168.57ZM156.929 167.905C155.198 168.63 153.42 171.813 154.369 172.488C155.453 173.259 157.149 172.165 157.76 170.299C158.416 168.3 158.107 167.412 156.929 167.905ZM139.036 169.123C139.036 170.484 141.323 172.999 142.076 172.464C142.391 172.239 142.498 171.496 142.316 170.789C141.694 168.37 139.036 167.02 139.036 169.123ZM123.754 170.65C123.754 172.737 124.822 174.505 126.082 174.505C127.07 174.505 127.029 171.605 126.017 169.942C124.806 167.951 123.754 168.28 123.754 170.65ZM176.222 170.643C176.222 172.604 176.799 173.332 177.844 172.687C178.806 172.094 178.812 172.012 177.968 170.938C176.921 169.605 176.222 169.487 176.222 170.643ZM164.124 171.419C163.036 171.847 163.357 175.303 164.566 176.172C165.933 177.155 167.041 176.195 166.079 174.86C165.735 174.383 165.298 173.358 165.107 172.581C164.916 171.804 164.474 171.281 164.124 171.419ZM151.898 173.156C150.923 173.574 151.141 175.958 152.261 177.125C153.599 178.519 155.015 177.898 154.554 176.121C154.103 174.381 152.698 172.812 151.898 173.156ZM178.769 182.282C178.769 182.365 178.532 183.355 178.241 184.482C177.951 185.609 177.396 188.248 177.008 190.345C176.62 192.442 175.932 195.874 175.478 197.972C175.023 200.069 174.467 202.709 174.242 203.838C173.464 207.734 173.139 204.261 173.281 193.552L173.393 185.08C173.409 183.88 174.276 182.862 175.458 182.655C178.251 182.166 178.769 182.108 178.769 182.282ZM135.663 187.118C135.63 188.409 135.347 191.841 135.036 194.745C133.773 206.519 134.355 227.407 136.546 249.012C136.857 252.077 137.223 255.707 137.361 257.079C137.73 260.773 136.729 260.119 136.016 256.199C134.216 246.308 130.913 222.005 129.616 209.118C129.145 204.44 128.188 197.36 127.489 193.385C126.79 189.41 126.348 185.77 126.506 185.296C126.735 184.608 127.701 184.467 131.259 184.602L133.379 184.683C134.679 184.732 135.697 185.818 135.663 187.118ZM225.634 186.175C222.402 186.821 221.559 187.892 221.559 191.345C221.559 194.626 221.205 195.109 217.787 196.493C215.564 197.393 215.029 198.761 216.091 200.831C216.697 202.013 216.867 203.136 216.638 204.453C216.393 205.861 216.524 206.544 217.136 207.06C217.897 207.7 217.884 207.943 216.976 209.993C216.194 211.76 216.051 212.928 216.29 215.569C216.54 218.324 216.448 218.974 215.765 219.275C215.302 219.48 214.936 220.297 214.936 221.127C214.936 222.88 214.663 222.832 218.35 221.722C221.248 220.848 225.262 221.017 226.408 222.059C227.398 222.959 237.997 223.389 240.934 222.648C245.734 221.437 257.895 220.283 258.614 220.97C260.185 222.472 259.227 223.041 254.542 223.388C236.77 224.705 232.529 225.498 230.354 227.909C229.196 229.192 229.128 229.571 229.446 232.994L229.56 234.217C229.683 235.545 228.638 236.692 227.305 236.692C225.937 236.692 224.595 236.434 224.322 236.119C224.048 235.804 222.57 235.34 221.036 235.085L220.859 235.056C219.318 234.802 218.138 233.546 217.98 231.991C217.832 230.544 217.513 228.993 217.271 228.546C216.914 227.891 217.163 227.807 218.557 228.111C222.221 228.911 226.962 229.145 228.181 228.587C228.691 228.353 228.702 227.631 228.198 227.383L227.56 227.068C226.519 226.553 225.105 226.132 224.419 226.132C223.733 226.132 223.091 225.855 222.994 225.516C222.895 225.177 220.731 224.744 218.185 224.554L215.193 224.331C214.253 224.261 213.405 224.894 213.204 225.815C212.938 227.038 213.163 227.886 214.15 229.377C215.639 231.626 215.792 233.515 214.636 235.415C214.191 236.147 213.955 237.13 214.111 237.599C214.312 238.203 214.028 238.452 213.138 238.452C211.952 238.452 211.88 238.638 211.88 241.697C211.88 244.04 211.668 245.036 211.116 245.279C210.645 245.488 210.352 246.379 210.352 247.6C210.352 249.275 210.668 249.814 212.379 251.058C213.494 251.868 214.955 252.532 215.624 252.532C216.294 252.532 219.221 253.363 222.129 254.379C226.542 255.92 228.217 256.218 232.256 256.182C243.514 256.079 270.395 252.021 271.991 250.183C273.422 248.535 274.238 243.606 273.505 241.047C272.89 238.901 271.784 237.263 270.422 236.477C266.511 234.221 265.367 232.806 265.367 230.219C265.367 227.196 264.056 223.874 262.551 223.084C261.859 222.721 261.292 222.223 261.292 221.979C261.292 221.735 261.153 221.117 260.983 220.607C260.727 219.838 261.102 219.678 263.162 219.678C266.225 219.678 267.77 218.517 268.198 215.894C268.671 212.991 268.062 210.644 266.279 208.495C265.288 207.3 263.797 206.634 262.245 206.693L255.995 206.931C247.3 207.261 242.674 207.887 237.316 209.46C234.064 210.414 233.275 210.484 233.275 209.816C233.275 208.732 244.151 206.536 255.434 205.341C259.636 204.896 263.6 204.342 264.242 204.111C265.619 203.613 265.472 202.447 264.001 202.196C263.256 202.068 262.97 201.579 262.974 200.436C262.977 199.564 262.815 198.06 262.615 197.092C262.256 195.361 262.3 195.313 265.289 194.253C268.471 193.124 269.378 191.812 268.411 189.733C267.651 188.097 266.571 187.86 257.471 187.335C252.708 187.06 246.863 186.59 244.482 186.29C239.691 185.687 228.416 185.618 225.634 186.175ZM41.2312 189.635C42.7721 190.533 44.606 191.654 45.3064 192.127C46.0068 192.599 46.6573 193.03 46.7516 193.085C47.0226 193.243 45.8209 199.866 45.2264 201.492C42.8817 207.902 42.6993 208.02 33.0808 209.39C22.956 210.832 17.9725 211.926 13.9783 213.584C7.51302 216.268 7.80338 216.235 5.56712 214.549C4.45 213.706 3.53563 212.566 3.53563 212.015C3.53563 210.77 5.28083 209.411 7.61847 208.834C8.59499 208.593 9.62296 208.206 9.90313 207.973C10.1833 207.74 11.9025 206.938 13.7236 206.19C15.5447 205.441 17.2527 204.606 17.5187 204.334C17.7846 204.061 18.4371 203.838 18.9684 203.838C19.4992 203.838 20.5424 203.469 21.2862 203.018C22.0299 202.566 24.4322 201.18 26.6252 199.938C31.1079 197.397 34.2051 194.184 35.7297 190.492C36.3242 189.051 37.1117 187.999 37.5941 188.001C38.0536 188.002 39.6903 188.738 41.2312 189.635ZM252.175 190.422C252.418 190.864 252.62 191.698 252.624 192.275C252.632 193.254 252.101 193.302 244.864 192.986C240.591 192.8 233.886 192.563 229.964 192.462L224.48 192.319C223.538 192.295 222.76 191.574 222.664 190.637C222.574 189.766 223.268 189.014 224.143 189.032L237.114 189.308C248.706 189.555 251.825 189.785 252.175 190.422ZM263.839 190.517C263.839 191.248 259.835 192.505 256.453 192.835C255.126 192.965 254.903 192.773 254.763 191.372C254.677 190.508 255.355 189.758 256.223 189.758H259.221C262.659 189.758 263.839 189.953 263.839 190.517ZM238.369 196.298C239.814 196.361 239.061 196.551 236.331 196.813C233.95 197.041 231.226 197.435 230.278 197.689C228.907 198.056 228.602 197.981 228.79 197.328C229.076 196.331 231.856 195.643 234.294 195.964C235.274 196.093 237.108 196.243 238.369 196.298ZM259.797 198.579C260.362 198.927 260.782 199.803 260.782 200.632C260.782 201.913 260.564 202.078 258.872 202.075C253.224 202.065 240.883 204.206 236.569 205.944C233.548 207.161 233.275 207.045 233.275 204.542C233.275 203.316 233.004 202.001 232.672 201.619C231.65 200.442 232.6 200.102 238.258 199.621C241.261 199.366 245.322 198.927 247.283 198.648C252.446 197.91 258.657 197.876 259.797 198.579ZM228.25 201.304C230.033 202.21 231.747 204.862 231.747 206.714C231.747 207.639 229.433 207.51 228.738 206.545C228.416 206.098 226.671 205.549 224.861 205.326C223.051 205.102 221.438 204.676 221.278 204.377C221.118 204.078 220.428 203.996 219.745 204.193C218.639 204.513 218.502 204.363 218.502 202.826C218.502 201.877 218.655 200.924 218.842 200.71C219.549 199.895 226.32 200.323 228.25 201.304ZM230.218 209.705C230.218 210.053 228.35 210.292 225.634 210.292C222.917 210.292 221.049 210.053 221.049 209.705C221.049 209.357 222.917 209.118 225.634 209.118C228.35 209.118 230.218 209.357 230.218 209.705ZM264.01 210.354C264.94 210.843 265.318 211.606 265.529 213.423C265.684 214.754 265.708 215.961 265.582 216.107C265.05 216.72 259.556 217.25 253.141 217.308C249.359 217.342 244.66 217.627 242.699 217.941C240.738 218.255 238.044 218.679 236.713 218.883L236.288 218.949C235.239 219.11 234.294 218.298 234.294 217.237C234.294 216.128 234.569 214.903 234.905 214.516C235.38 213.968 235.38 213.812 234.905 213.812C234.569 213.812 234.294 213.584 234.294 213.306C234.294 213.028 236.07 212.617 238.241 212.393C240.413 212.168 243.106 211.734 244.227 211.428C245.891 210.972 252.619 210.33 261.395 209.79C262.153 209.743 263.329 209.997 264.01 210.354ZM229.359 213.62C232.415 214.755 232.747 215.166 232.758 217.823C232.762 218.839 231.839 219.606 230.842 219.416L230.6 219.37C229.41 219.144 228.183 218.725 227.875 218.439C227.566 218.154 226.242 217.751 224.932 217.544C223.622 217.337 222.428 216.941 222.279 216.663C222.13 216.385 221.219 216.158 220.255 216.158C218.758 216.158 218.502 215.958 218.502 214.79C218.502 214.036 218.655 213.244 218.842 213.03C219.52 212.249 226.761 212.655 229.359 213.62ZM261.621 226.581C262.352 227.12 263.483 231.825 263.068 232.599C262.898 232.914 261.991 233.172 261.051 233.172C258.39 233.172 242.398 235.442 240.41 236.101C239.431 236.426 237.103 236.692 235.238 236.692H234.84C233.158 236.692 231.768 235.381 231.669 233.702C231.571 232.058 231.607 230.516 231.747 230.276C232.159 229.57 237.616 228.578 244.991 227.866C248.773 227.502 253.358 226.998 255.179 226.748C259.783 226.114 260.948 226.084 261.621 226.581ZM265.207 237.267C265.75 237.601 265.574 238.432 264.942 238.516L259.349 239.262C247.425 240.853 240.4 241.986 236.841 242.892C232.968 243.878 231.552 243.94 230.339 243.173C229.852 242.866 228.537 242.141 227.417 241.56L226.888 241.286C226.436 241.052 226.562 240.374 227.068 240.319C227.997 240.216 229.09 240.45 229.496 240.838C230.374 241.677 237.406 241.182 242.189 239.943C243.87 239.508 248.57 238.56 252.632 237.836C256.694 237.112 260.362 236.304 260.782 236.042C261.654 235.497 262.878 235.835 265.207 237.267ZM270.359 241.502C270.695 241.89 270.97 243.336 270.97 244.718C270.97 247.567 271.322 247.364 264.603 248.394C257.196 249.529 251.932 250.161 246.774 250.533C243.972 250.735 239.975 251.4 237.891 252.01C235.807 252.62 233.916 253.119 233.688 253.119C233.461 253.119 233.275 251.843 233.275 250.284C233.275 246.744 233.799 246.392 240.406 245.495C243.068 245.135 247.194 244.469 249.576 244.018C253.845 243.209 263.931 241.615 267.405 241.199C268.385 241.082 269.314 240.944 269.468 240.892C269.622 240.841 270.023 241.115 270.359 241.502ZM217.487 242.602C219.29 243.241 223.756 244.529 227.344 245.443C229.914 246.098 231.058 247.549 231.501 250.712L231.618 251.553C231.736 252.395 230.978 253.094 230.149 252.91C229.206 252.7 227.748 252.16 226.907 251.712C226.067 251.263 224.806 250.624 224.106 250.293C222.177 249.38 215.647 247.252 214.772 247.252C213.799 247.252 213.574 246.466 213.827 243.961C214.051 241.761 214.569 241.568 217.487 242.602ZM120.856 249.599C123.394 258.517 123.625 260.329 122.413 261.802C121.427 262.998 117.725 263.886 110.764 264.593C108.803 264.792 105.938 265.349 104.397 265.831C98.4582 267.688 94.6937 269.116 94.4268 269.614C94.0778 270.264 87.0772 270.304 87.0772 269.656C87.0772 269.394 88.8539 268.14 91.025 266.869C93.1961 265.598 95.0513 264.354 95.1471 264.104C95.2428 263.854 96.0538 263.297 96.9498 262.865C97.8459 262.434 98.9136 261.712 99.3231 261.26C99.7322 260.808 100.64 260.101 101.34 259.689C102.041 259.276 103.072 258.616 103.633 258.221C104.193 257.827 105.798 256.737 107.198 255.798C108.599 254.861 110.146 253.701 110.637 253.222C111.888 251.998 111.755 248.978 110.311 245.85C109.641 244.399 109.167 243.127 109.257 243.023C109.347 242.919 111.562 242.838 114.179 242.843C116.995 242.848 119.468 244.719 120.239 247.428L120.856 249.599ZM284.379 245.641C283.868 246.368 281.846 247.594 279.885 248.366C277.924 249.137 276.101 249.994 275.835 250.27C275.569 250.546 274.957 250.772 274.476 250.772C273.994 250.772 272.951 251.151 272.158 251.614C267.842 254.136 263.972 256.052 263.194 256.052C262.708 256.052 262.311 256.287 262.311 256.575C262.311 256.863 261.68 257.279 260.91 257.501C258.64 258.153 257.726 259.492 257.73 262.156C257.733 264.19 257.949 264.68 259.131 265.351C260.54 266.149 265.51 267.515 270.206 268.394C271.607 268.656 273.785 269.14 275.046 269.469C280.675 270.937 284.977 271.268 287.98 270.464C289.602 270.03 291.183 269.382 291.494 269.023C291.805 268.665 292.587 268.372 293.231 268.372C293.876 268.372 294.403 268.129 294.403 267.832C294.403 267.535 295.09 267.118 295.931 266.905C296.772 266.693 297.459 266.276 297.459 265.979C297.459 265.681 297.691 265.439 297.976 265.439C298.26 265.439 299.294 264.845 300.273 264.119C302.457 262.499 303.953 259.066 304.172 255.172C304.321 252.509 304.231 252.221 303.19 252.051C302.56 251.948 302.044 251.512 302.044 251.082C302.044 249.55 297.541 247.346 289.504 244.945C286.432 244.027 285.415 244.165 284.379 245.641ZM295.145 251.008C300.433 252.628 301.625 253.5 299.987 254.552C299.457 254.893 297.274 256.558 295.137 258.252C292.999 259.946 290.929 261.332 290.534 261.332C290.141 261.332 289.818 261.602 289.818 261.933C289.818 262.264 289.302 262.791 288.672 263.105C287.182 263.848 285.571 265.016 285.173 265.643C284.627 266.502 282.534 266.227 279.63 264.915C276.227 263.378 269.471 261.332 267.799 261.332C267.129 261.332 266.136 260.955 265.592 260.494C264.615 259.666 264.616 259.65 265.622 259.239C268.985 257.861 276.053 254.346 280.814 251.683C287.01 248.217 286.159 248.257 295.145 251.008ZM282.305 252.422C280.399 252.634 280.071 253.977 281.795 254.509C282.425 254.703 284.145 254.866 285.616 254.87C287.905 254.877 288.29 254.718 288.29 253.764C288.29 252.877 287.849 252.608 286.125 252.444C284.935 252.331 283.215 252.321 282.305 252.422ZM301.876 259.228C301.488 260.395 297.916 262.96 296.101 263.375C294.932 263.643 294.851 263.601 295.676 263.153C296.237 262.848 297.816 261.516 299.187 260.19C301.652 257.806 302.445 257.523 301.876 259.228Z" fill="black"/>
</svg>
