<svg width="200" height="231" viewBox="0 0 200 231" fill="none" xmlns="http://www.w3.org/2000/svg">
<g id="Group 48096439">
<path id="Vector 3036" d="M96.649 60.3521L54.8949 52.3125H53.3388L51.5234 62.1675H60.6004L62.6751 63.4642L59.8224 70.2071L69.418 66.5763L72.2708 67.6137L67.3433 74.8753L69.418 77.4687H73.3082H74.8642L72.2708 82.9149L65.7873 87.583L87.8313 102.366L105.726 104.44L121.027 99.5128L133.476 93.8072L126.733 82.9149L125.436 77.4687L131.92 76.4313L126.733 70.2071L125.955 66.8357L139.959 69.1697L134.772 62.9455L138.662 61.9082H139.959L145.665 62.9455L142.812 52.3125H139.959L105.726 60.3521H96.649Z" fill="#7F30FF" stroke="black"/>
<path id="Open Doodles Studying (Traced)" fill-rule="evenodd" clip-rule="evenodd" d="M89.9036 1.2955C89.4098 2.04811 88.9746 3.22553 88.9362 3.91071C88.8885 4.75616 88.472 5.25617 87.6426 5.46469C86.877 5.65712 86.1286 6.46938 85.6405 7.63849C85.2115 8.66445 84.4465 10.0307 83.9402 10.6738C83.4345 11.3175 82.8593 12.9177 82.6627 14.2299C82.267 16.8664 83.0305 18.2585 85.1654 18.7943C86.0165 19.008 86.3101 19.4583 86.294 20.5268C86.2769 21.6471 86.5399 22.0081 87.4678 22.1399C88.1255 22.2327 89.0005 22.0294 89.4129 21.6871C89.9969 21.2026 90.3351 21.2088 90.9466 21.7161C91.8912 22.4998 91.0867 23.7856 89.652 23.7856C89.1556 23.7856 87.2588 24.462 85.4361 25.2883C82.5761 26.585 81.9641 27.1161 80.9687 29.1649C80.1243 30.9036 79.4292 31.6266 78.3753 31.8642C73.8762 32.8782 72.2418 33.5022 66.8216 36.2724C59.0076 40.2663 49.7351 46.4008 43.7583 51.5306C40.1643 54.6152 30.7269 64.8494 27.7496 68.8904C26.5857 70.4709 25.1406 72.2982 24.539 72.9517C23.9373 73.6047 21.9632 76.7558 20.1519 79.954C18.3412 83.1516 16.1975 86.839 15.3878 88.1481C14.5782 89.4568 13.9158 90.7986 13.9158 91.1306C13.9158 91.462 13.6824 91.7333 13.3971 91.7333C13.1118 91.7333 12.8784 92.0372 12.8784 92.4091C12.8784 92.7805 11.9588 94.9865 10.8348 97.3107C7.97064 103.234 7.47219 106.337 7.87157 115.768C8.23673 124.4 8.83373 127.473 10.9225 131.475C13.4537 136.324 16.9345 138.225 22.4196 137.755C24.1614 137.606 25.9363 137.345 26.3642 137.177C27.8155 136.604 28.4187 137.677 28.9722 141.811C29.2751 144.08 30.1096 148.009 30.8259 150.543C31.5417 153.077 32.0168 155.44 31.8809 155.794C31.7445 156.149 30.564 156.599 29.2574 156.795C27.9504 156.991 25.3061 157.698 23.3808 158.368C21.4559 159.037 17.4299 160.092 14.4345 160.713C7.79844 162.088 3.50373 163.924 1.44819 166.266C0.195045 167.693 0.00261477 168.218 0.436753 169.03C0.940915 169.972 3.02343 171.444 3.02343 170.858C3.02343 170.709 4.48249 171.372 6.26521 172.331C8.77979 173.683 10.339 174.137 13.2166 174.353C15.2566 174.506 17.4003 174.886 17.9802 175.196C18.5601 175.506 21.1141 175.76 23.6557 175.76C26.9151 175.76 29.1589 176.064 31.2715 176.791C32.9183 177.357 34.4391 177.714 34.6502 177.583C34.8613 177.453 35.8261 177.58 36.7939 177.867C37.7613 178.153 39.8894 178.412 41.5228 178.443L44.4922 178.5L42.4714 180.89C37.4962 186.776 29.5681 193.4 19.1234 200.398C11.3582 205.6 3.99493 212.569 1.95546 216.645C-0.412332 221.377 1.07629 225.536 5.97111 227.861C10.0848 229.815 16.2099 230.716 26.4036 230.866L35.52 231L38.7224 229.478C40.4838 228.642 41.9247 227.766 41.9247 227.533C41.9247 227.3 42.2349 227.11 42.6141 227.11C42.9927 227.11 45.2744 225.734 47.6842 224.053C54.2601 219.465 64.2806 213.885 69.7516 211.766C72.4265 210.729 75.3705 209.321 76.2943 208.637C77.2176 207.953 78.8488 207.009 79.9184 206.54C81.2166 205.97 81.8634 205.347 81.8634 204.667C81.8634 203.887 82.1191 203.715 82.9542 203.933C83.8427 204.166 84.2032 203.841 84.8993 202.183C85.3692 201.065 86.0181 200.147 86.3412 200.143C87.0072 200.138 87.5513 198.476 87.5617 196.418C87.5736 194.111 92.6142 189.771 95.2859 189.767C96.1174 189.765 97.4888 190.778 99.4987 192.877C101.138 194.588 102.733 195.989 103.043 195.989C103.354 195.989 103.85 196.887 104.146 197.984C105.128 201.633 109.624 207.149 112.05 207.682C112.883 207.865 115.476 208.9 117.813 209.982C120.15 211.064 123.494 212.304 125.244 212.737C126.993 213.17 129.327 214.014 130.43 214.613C132.761 215.879 147.218 221.11 149.842 221.637C150.824 221.834 153.027 222.427 154.739 222.954C156.45 223.481 158.784 224.061 159.925 224.243C161.295 224.462 162.441 225.082 163.297 226.068L164.594 227.561L174.53 227.098C184.957 226.612 185.458 226.547 190.664 224.996C194.808 223.761 195.851 223.2 197.919 221.096C201.349 217.607 200.122 214.165 193.317 208.178C187.145 202.748 176.483 195.455 171.23 193.069C164.766 190.134 159.092 187.128 156.296 185.154C153.018 182.841 148.254 178.849 148.259 178.42C148.264 177.974 150.869 176.798 151.859 176.795C152.302 176.793 154.648 176.066 157.073 175.178C162.956 173.024 164.73 172.697 170.688 172.671C174.052 172.656 175.745 172.454 175.745 172.069C175.745 171.728 176.214 171.612 176.885 171.788C177.512 171.952 178.309 171.851 178.655 171.564C179.079 171.212 179.393 171.219 179.62 171.585C180.064 172.304 182.488 172.289 182.488 171.568C182.488 171.258 182.78 171.111 183.137 171.24C183.493 171.369 184.208 171.106 184.724 170.656C185.541 169.944 185.725 169.935 186.136 170.594C186.53 171.225 186.741 171.163 187.407 170.218C187.846 169.595 188.821 169.012 189.574 168.921C191.402 168.703 193.206 166.298 192.561 164.941C191.766 163.273 186.692 159.304 184.657 158.759C183.607 158.478 180.423 157.618 177.582 156.847C173.811 155.824 171.814 155.537 170.187 155.78C167.43 156.194 166.876 155.288 168.193 152.526C169.649 149.472 170.674 146.195 171.549 141.786L172.374 137.637L176.601 137.377C179.773 137.183 181.1 136.872 181.918 136.13C182.517 135.586 183.007 135.284 183.007 135.458C183.007 135.632 183.59 135.191 184.304 134.478C185.017 133.764 185.6 132.958 185.6 132.686C185.6 132.414 185.935 132.191 186.344 132.191C186.752 132.191 187.246 131.688 187.441 131.074C187.636 130.46 188.468 128.816 189.291 127.421C190.114 126.025 190.787 124.324 190.787 123.64C190.787 122.957 191.021 122.253 191.306 122.076C191.99 121.654 191.974 109.072 191.285 104.7C190.781 101.512 190.421 100.119 188.339 93.2893C186.983 88.8395 180.581 74.6701 178.497 71.5046C175.017 66.2182 165.795 54.93 162.926 52.445C157.222 47.504 144.851 39.826 137.733 36.8077C130.844 33.8865 127.917 33.1396 121.921 32.7713L116.593 32.444L115.539 30.0602C113.511 25.474 110.724 23.4485 105.72 22.9257C102.434 22.5818 101.355 21.9054 102.8 21.0963C103.393 20.7643 103.557 20.2311 103.335 19.3493C103.054 18.2269 103.189 18.078 104.5 18.0635C107.429 18.0308 108.715 15.8036 106.937 13.8399C106.231 13.0593 106.185 12.6526 106.678 11.5701C107.632 9.47619 107.392 8.37658 105.723 7.18775C104.79 6.52332 104.167 5.61614 104.167 4.92214C104.167 3.36816 103.223 2.5196 101.494 2.5196C100.709 2.5196 99.4728 2.24936 98.7471 1.91844C97.6646 1.42517 97.258 1.47185 96.4774 2.17778C95.0894 3.43455 94.135 3.23797 93.0976 1.48223C91.9653 -0.434829 91.0711 -0.487216 89.9036 1.2955ZM78.7513 35.456C78.7513 36.329 78.6564 36.3643 77.4971 35.9192C76.3379 35.4747 76.4774 34.678 77.714 34.678C78.2902 34.678 78.7513 35.024 78.7513 35.456ZM118.431 35.1967C118.254 35.482 117.877 35.7154 117.591 35.7154C117.306 35.7154 117.217 35.482 117.393 35.1967C117.57 34.9114 117.947 34.678 118.233 34.678C118.518 34.678 118.607 34.9114 118.431 35.1967ZM125.97 37.2268C127.529 37.773 129.682 38.383 130.755 38.5822C131.828 38.7818 132.828 39.1418 132.976 39.3825C133.125 39.6226 133.618 39.6771 134.072 39.5028C134.565 39.3135 135.097 39.5428 135.394 40.0728C135.667 40.5604 136.397 41.1797 137.016 41.4484C137.634 41.7171 138.549 42.1709 139.048 42.4572C139.547 42.743 140.275 43.1523 140.664 43.366C141.054 43.5797 142.629 44.5859 144.165 45.602C145.702 46.6176 147.39 47.6114 147.918 47.8101C148.998 48.2167 150.861 49.6021 154.091 52.3999C155.591 53.6997 156.408 54.1105 156.672 53.6966C156.942 53.2718 157.059 53.3128 157.065 53.8361C157.075 54.7978 159.124 56.9814 160.016 56.9814C160.394 56.9814 160.703 57.1749 160.703 57.4119C160.703 57.6485 161.812 59.0116 163.167 60.4405C168.776 66.3551 169.423 67.1637 172.893 72.5928C175.164 76.1458 177.377 79.2703 177.814 79.5406C178.103 79.719 178.339 80.4343 178.339 81.1309C178.339 81.9104 178.637 82.397 179.117 82.397C179.557 82.397 179.895 82.8617 179.895 83.4686C179.895 84.0578 180.136 84.9914 180.432 85.5433C180.841 86.3089 180.8 86.5464 180.256 86.5464C179.864 86.5464 179.298 86.0215 178.999 85.3794C178.241 83.7523 170.609 75.6541 169.832 75.6541C169.483 75.6541 168.526 74.9538 167.706 74.098C166.886 73.2422 165.993 72.542 165.721 72.542C165.45 72.542 162.245 70.558 158.599 68.1331C154.953 65.7083 151.543 63.5827 151.021 63.4095C146.513 61.9157 146.416 61.7647 145.984 55.5597C145.841 53.4943 145.408 51.1602 145.024 50.3729C144.39 49.0746 144.086 48.9501 141.752 49.031C140.336 49.0803 139.587 49.0046 140.086 48.8635C141.113 48.5725 141.189 48.2401 140.487 47.1264C139.548 45.6378 125.811 45.8245 121.024 47.3904L119.987 47.7297L121.024 46.9335C124.166 44.5206 124.711 42.8618 123.674 38.8633C123.299 37.4172 123.024 36.2341 123.063 36.2341C123.102 36.2341 124.411 36.6807 125.97 37.2268ZM107.777 38.3757C109.15 39.3908 110.033 39.452 112.3 38.6885C112.908 38.4836 114.001 43.5999 114.012 46.7006L114.022 49.6462L111.299 50.4445C109.801 50.8838 107.175 52.1774 105.464 53.3195C101.885 55.7076 100.593 55.8818 98.4115 54.2692C97.5516 53.6333 95.8689 52.7516 94.6723 52.3091C92.5654 51.5306 92.4949 51.43 92.4513 49.1436C92.4264 47.8453 92.2376 46.5097 92.0317 46.1762C91.4461 45.2291 89.652 45.4501 89.5825 46.4781C89.4928 47.8012 89.4928 47.8002 89.8781 49.0715C90.3133 50.5062 89.7454 50.5513 85.9429 49.3843C82.2032 48.2369 81.3447 47.1752 81.3447 43.6974C81.3447 40.7145 81.408 40.6221 82.8972 41.4188C83.6534 41.8234 84.2172 41.6377 85.4947 40.563C87.0938 39.2175 87.1618 39.2072 88.9212 40.0464C91.4259 41.2409 92.3279 41.1289 94.5712 39.3462C95.648 38.4903 96.6231 37.7901 96.7383 37.7901C96.8534 37.7901 97.5796 38.2372 98.3524 38.7839C100.866 40.5609 101.863 40.576 103.743 38.8664C105.81 36.9867 105.886 36.9779 107.777 38.3757ZM78.9738 39.1237C79.8919 40.0422 80.0537 41.7145 79.271 42.1984C78.9863 42.3743 78.2342 42.1548 77.5993 41.7103C76.2824 40.7876 74.6019 40.6393 74.6019 41.4453C74.6019 41.7435 75.3197 42.3857 76.1968 42.8717C78.7788 44.3017 79.1948 44.7166 79.5574 46.2187C79.8452 47.4128 79.7327 47.6451 78.868 47.6451C78.284 47.6451 77.7212 47.2105 77.5734 46.6451C77.4292 46.0927 76.1818 45.1051 74.7896 44.4407C72.8342 43.5065 72.232 42.9298 72.1096 41.8701C71.7916 39.1257 76.923 37.0733 78.9738 39.1237ZM121.345 39.2917C122.385 40.1341 122.485 40.4847 122.045 41.7373C121.531 43.199 116.916 46.5621 116.286 45.9329C115.669 45.3157 116.637 43.0402 117.654 42.7171C118.224 42.5366 118.69 42.0273 118.69 41.5864C118.69 40.9904 118.291 40.8431 117.134 41.0127C116.278 41.1382 115.578 41.1839 115.578 41.1144C115.578 41.0443 115.422 40.5796 115.23 40.0817C114.994 39.465 115.076 39.2953 115.489 39.5505C115.822 39.7565 116.614 39.5614 117.249 39.1169C118.771 38.0505 119.87 38.0972 121.345 39.2917ZM69.5255 40.7726C69.4062 42.0926 69.762 43.5252 70.6339 45.2312L71.9182 47.7452L67.9435 47.4086C63.39 47.0232 59.3826 47.6612 56.118 49.2919C53.8135 50.4429 52.259 50.3246 54.4582 49.1654C55.1247 48.8142 55.7866 48.3614 55.9292 48.1586C56.0719 47.9558 56.9474 47.4013 57.8743 46.9262C58.8012 46.4511 59.56 45.8235 59.56 45.532C59.56 45.2405 60.2177 44.7213 61.0217 44.3784C63.1592 43.4666 68.8963 39.7238 68.8963 39.2414C68.8963 39.0137 69.0773 38.8275 69.2988 38.8275C69.5203 38.8275 69.6225 39.703 69.5255 40.7726ZM99.1693 46.3443C98.4266 48.2789 100.139 54.7962 101.321 54.5338C102.191 54.3408 102.201 51.9134 101.342 48.9621C100.461 45.9319 99.6859 44.9978 99.1693 46.3443ZM104.371 46.3048C104.216 46.7084 104.165 47.6985 104.258 48.5046C104.479 50.4315 106.081 50.7987 106.526 49.0248C107.072 46.8521 105.111 44.3774 104.371 46.3048ZM117.653 47.8739C117.653 48.4211 116.657 48.6514 116.361 48.1721C116.182 47.8822 116.4 47.6451 116.844 47.6451C117.289 47.6451 117.653 47.7478 117.653 47.8739ZM135.029 50.3003C132.746 50.8413 128.778 51.7583 126.211 52.3377C123.643 52.9175 118.362 54.3159 114.474 55.4456C107.095 57.5899 104.445 57.9758 104.81 56.8518C105.177 55.7169 118.532 51.361 125.952 49.9559C127.806 49.6047 131.54 49.3174 134.251 49.3168L139.178 49.3163L135.029 50.3003ZM73.3472 51.2469C81.5138 51.722 85.8013 52.5233 92.1074 54.7532C95.8689 56.0836 96.5406 56.8144 95.1003 58.0105C94.0904 58.8482 90.4492 58.2294 76.9359 54.9212C71.2304 53.5249 65.3366 52.2282 63.8386 52.0399C62.3407 51.8511 61.2457 51.4855 61.4055 51.2272C61.7577 50.6576 63.2707 50.6597 73.3472 51.2469ZM51.4872 52.1836C51.2652 52.6831 50.9815 55.0753 50.8565 57.5001C50.7279 59.9945 50.372 62.0713 50.0375 62.2834C49.7118 62.4893 47.8118 63.1465 45.8149 63.744C43.8179 64.3421 40.17 65.9822 37.7084 67.3899C33.5169 69.7862 32.0697 70.3661 32.0697 69.6487C32.0697 69.4091 46.5965 54.9352 49.705 52.0778C50.8643 51.0119 51.9789 51.0778 51.4872 52.1836ZM143.06 56.776L143.068 60.4603L140.345 59.7393C138.848 59.3425 136.9 59.1469 136.019 59.3046C132.42 59.9473 130.717 64.4142 133.311 66.4096C133.97 66.9168 134.295 67.3375 134.032 67.3437C133.769 67.3499 133.186 67.0382 132.735 66.6507C131.536 65.6186 128.673 64.7617 126.422 64.7617C123.118 64.7617 121.707 68.2115 123.877 70.9859C124.435 71.6991 124.897 72.4901 124.903 72.7442C124.909 72.9979 125.323 73.5155 125.822 73.8947C126.661 74.5316 126.639 74.5851 125.539 74.6001C124.884 74.6094 123.747 75.2179 123.012 75.9528C121.866 77.0986 121.713 77.6178 121.936 79.5956C122.092 80.9799 122.791 82.7326 123.685 83.98C124.503 85.1232 125.438 86.5371 125.761 87.1227C126.084 87.7083 127.135 89.0014 128.095 89.9962C129.786 91.7483 129.81 91.8292 128.835 92.5476C128.281 92.9553 127.636 93.2893 127.402 93.2893C127.168 93.2893 125.347 94.3729 123.356 95.6971C120.287 97.7376 118.886 98.2863 114.156 99.2972C111.087 99.9534 106.942 100.878 104.945 101.352C101.975 102.057 100.789 102.11 98.4302 101.642C96.8441 101.327 94.5525 101.07 93.3383 101.07C91.7267 101.07 90.6282 100.684 89.2697 99.6432C88.2458 98.859 86.6478 97.75 85.7178 97.1795C84.7878 96.6089 82.3655 95.0331 80.3354 93.6783C78.3053 92.323 76.4183 91.2146 76.1418 91.2146C75.8654 91.2146 75.6392 90.991 75.6392 90.7177C75.6392 90.4444 74.5889 89.6056 73.3051 88.853C72.0214 88.1009 70.9711 87.3758 70.9711 87.2415C70.9711 87.1077 71.6402 86.4349 72.4581 85.7471C73.2761 85.0589 74.4514 83.3192 75.0697 81.8814C76.05 79.6033 76.1164 79.0074 75.5879 77.2438C74.912 74.987 73.9991 74.5332 71.0629 74.9928C69.1951 75.2853 69.1743 75.2702 70.0634 74.265C70.5623 73.7002 70.9711 73.0923 70.9711 72.9139C70.9711 72.7354 71.5546 72.0056 72.2678 71.2925C73.0697 70.4906 73.5645 69.407 73.5645 68.4532C73.5645 64.506 69.5504 64.2658 62.4128 67.7851C62.1275 67.9262 62.4247 67.4573 63.0736 66.7436C64.6478 65.0122 65.349 62.4546 64.71 60.7751C64.2302 59.5126 64.0705 59.4659 61.2354 59.7637C59.6005 59.9353 57.4272 60.2175 56.4054 60.3907L54.5474 60.7056L54.9136 57.9358C55.1253 56.3377 55.0625 54.749 54.7663 54.1795C54.3301 53.3423 54.3986 53.2495 55.2181 53.5638C56.2207 53.9487 64.3013 55.5717 68.3776 56.207C70.9057 56.6012 74.9722 57.6173 77.4546 58.4747C80.9231 59.6734 97.1776 62.245 99.9852 62.0396C103.234 61.8021 118.809 58.5365 119.209 58.0084C119.351 57.8207 120.985 57.3886 122.839 57.0489C128.694 55.9762 138.13 53.7531 138.4 53.3833C138.946 52.6343 142.282 51.9751 142.671 52.5394C142.881 52.8429 143.056 54.7495 143.06 56.776ZM101.993 59.0951C101.89 59.4016 101.638 59.635 101.431 59.6138C101.224 59.5925 100.646 59.5583 100.147 59.5386C99.3711 59.5074 99.3898 59.4374 100.277 59.0562C101.723 58.4343 102.209 58.4457 101.993 59.0951ZM91.8896 64.632C91.6422 65.4168 91.5613 71.3895 91.7091 77.9057C91.9747 89.6067 91.9928 89.7654 93.2117 90.7509C95.5837 92.669 95.8679 91.6062 95.8679 80.817C95.8679 75.4533 95.6127 69.822 95.301 68.3022C94.9898 66.783 94.635 65.0143 94.5131 64.3727C94.1931 62.6823 92.4493 62.8545 91.8896 64.632ZM60.0787 64.1751C60.0787 64.423 57.7446 66.8587 54.8918 69.5875C51.5982 72.7385 49.705 74.9404 49.705 75.6204C49.705 77.0955 51.5619 77.027 53.8638 75.4673C57.3675 73.0933 68.0218 68.9013 68.7366 69.6155C68.9622 69.8417 66.7568 72.3272 63.835 75.1385C59.9952 78.8341 58.5226 80.5956 58.5226 81.495V82.7388L55.0215 82.0048C50.0816 80.969 43.6053 81.6739 38.7084 83.7803C36.1782 84.869 32.9152 89.3852 30.7103 94.8501C29.7668 97.1893 28.7434 99.4062 28.4358 99.7765C28.1174 100.16 28.0831 100.528 28.3554 100.63C28.6355 100.736 28.5271 102.638 28.0946 105.219C27.5686 108.354 27.3943 113.075 27.4903 121.558C27.5883 130.202 27.4644 133.456 27.0401 133.373C26.2423 133.217 23.4523 131.293 20.4217 128.81C17.4869 126.405 16.4657 124.352 15.9646 119.85C15.5522 116.148 15.3028 115.694 14.1876 116.62C13.6471 117.068 13.3971 117.092 13.3971 116.693C13.3971 116.373 13.6186 116.111 13.8888 116.111C14.1902 116.111 14.1751 115.523 13.851 114.592C13.4879 113.551 13.491 112.756 13.8608 112.065C14.2192 111.395 14.2327 110.473 13.9013 109.317C13.6264 108.36 13.5133 107.222 13.6487 106.787C13.7846 106.352 13.9998 105.18 14.1269 104.182C14.4366 101.743 15.1876 99.8761 16.1959 99.0395C16.6534 98.6598 17.0279 97.8257 17.0279 97.1857C17.0279 96.5461 17.4947 95.4294 18.0653 94.7038C18.6358 93.9787 19.1026 93.0139 19.1026 92.5606C19.1026 92.1073 20.153 90.3095 21.4367 88.5657C22.7205 86.8219 23.7708 85.0703 23.7708 84.674C23.7708 83.9089 25.5701 81.8783 26.2475 81.8783C26.4685 81.8783 27.6246 80.8419 28.816 79.5758C30.008 78.3092 31.5168 76.9876 32.1688 76.6385C32.8208 76.2895 34.8094 74.875 36.5875 73.4948C38.3655 72.1151 39.9548 70.9859 40.1197 70.9859C40.2841 70.9859 41.8246 70.0523 43.5425 68.9112C45.2604 67.7701 47.2039 66.8364 47.8611 66.8364C48.5183 66.8364 50.0774 66.4619 51.3254 66.0034C53.6496 65.1512 58.2695 63.8846 59.4303 63.7819C59.7872 63.7503 60.0787 63.9271 60.0787 64.1751ZM139.192 64.9313C139.755 65.3094 141.733 66.1621 143.587 66.8255C145.441 67.4895 147.659 68.6622 148.514 69.4319C149.37 70.2017 153.322 73.0254 157.296 75.7065C168.026 82.9457 175.787 90.8059 179.524 98.2168C180.243 99.6432 182.104 102.959 183.66 105.585C186.329 110.09 186.51 110.618 186.862 114.921C187.531 123.113 187.293 124.576 184.884 127.038C182.509 129.466 182.191 129.672 178.339 131.294C172.298 133.835 172.8 134.972 172.487 118.057C172.253 105.44 172.066 102.842 171.139 99.3647C169.825 94.4335 166.684 88.9018 163.998 86.7897C159.772 83.4675 159.14 83.2222 154.739 83.1978C151.032 83.1776 149.988 83.4141 144.96 85.4157C141.864 86.6481 138.388 88.1476 137.236 88.7482C135.339 89.7363 135.011 89.7685 133.788 89.0864C132.171 88.1855 126.989 81.4561 126.989 80.2569C126.989 79.5022 127.303 79.4804 129.971 80.0499C131.612 80.3995 134.404 81.0992 136.176 81.6044C139.519 82.5572 140.993 82.4291 140.993 81.1864C140.993 79.761 138.715 77.6152 133.452 74.0845C128.408 70.7001 127.136 69.629 127.604 69.1601C128.049 68.7161 140.887 73.4906 142.984 74.8797C144.742 76.0452 145.421 76.249 146.096 75.8138C147.601 74.8428 146.783 73.4382 142.001 68.7815C137.667 64.5615 136.727 63.2731 139.192 64.9313ZM104.099 66.4163C103.114 68.2115 103.289 83.5417 104.325 86.2871C105.288 88.8385 106.744 89.0864 107.376 86.8058C107.837 85.1434 107.347 69.0051 106.771 66.8364C106.318 65.1305 104.924 64.9116 104.099 66.4163ZM73.288 78.7382C73.4545 79.0079 72.2356 80.6713 70.5789 82.4338C68.4451 84.7041 67.193 85.6351 66.2863 85.6263C64.7671 85.6112 60.0787 83.6579 60.0787 83.0401C60.0787 82.6843 67.1587 79.4809 69.9337 78.5815C71.2729 78.1474 72.9716 78.2267 73.288 78.7382ZM50.7424 88.0319C50.7424 89.6938 48.1733 91.8059 46.3668 91.629C45.0934 91.5045 44.7464 91.2073 44.6214 90.1326C44.4373 88.5454 45.2422 87.7591 47.3709 87.4479C50.4519 86.9977 50.7424 87.048 50.7424 88.0319ZM57.1834 87.38C58.3468 87.8265 58.2052 88.8582 56.66 91.1928C55.2565 93.3142 54.1626 96.9201 54.923 96.9201C55.1652 96.9201 55.5138 96.1182 55.6979 95.1384C55.8955 94.0829 56.9417 92.3661 58.2643 90.9252L60.4973 88.4936L64.3075 90.2208C68.7848 92.2499 70.4524 93.238 70.4524 93.8614C70.4524 94.1104 68.6997 95.7069 66.5571 97.4098C60.9796 101.842 57.3022 102.576 55.6756 99.583L54.9333 98.2168L54.9126 99.4529C54.882 101.274 56.7415 102.626 59.2784 102.626C61.8246 102.626 64.6058 101.007 69.0374 96.9455L72.0313 94.2017L73.9649 95.4751C75.0282 96.1758 77.3639 97.6629 79.1554 98.7796C83.0606 101.215 95.3274 110.835 96.051 112.03C96.4146 112.631 96.2963 113.439 95.6423 114.816C94.1557 117.95 93.802 119.698 94.3585 121.161C95.4421 124.012 98.0879 124.632 101.573 122.854C102.692 122.284 103.702 121.817 103.818 121.817C103.935 121.817 105.87 123.972 108.118 126.606C117.692 137.821 121.283 142.312 121.283 143.062C121.282 143.502 120.115 145.006 118.689 146.405C117.263 147.805 116.097 149.147 116.097 149.388C116.097 150.126 117.004 149.874 117.322 149.048C117.769 147.883 118.635 148.11 118.321 149.31C117.97 150.652 119.018 151.901 120.497 151.901C121.135 151.901 122.517 151.317 123.568 150.604C124.619 149.891 125.61 149.307 125.77 149.307C126.122 149.307 128.042 151.655 128.916 153.154C129.262 153.749 129.557 155.285 129.572 156.569C129.605 159.506 130.149 160.419 131.592 159.961C132.199 159.769 132.694 159.723 132.694 159.859C132.694 159.996 131.002 161.769 128.934 163.798C124.925 167.732 123.032 168.713 122.227 167.275C121.513 165.998 119.036 166.24 116.377 167.847C113.932 169.323 113.258 170.375 115.059 169.904C116.307 169.578 116.32 169.675 115.294 171.659C114.316 173.548 113.538 173.859 105.543 175.55C102.076 176.283 98.7539 177 98.1605 177.143C97.3928 177.328 96.8202 177.004 96.1739 176.018C95.675 175.256 95.3435 174.566 95.4374 174.484C95.5318 174.403 96.3809 173.943 97.3254 173.463C101.307 171.437 104.588 167.397 105.433 163.479C105.842 161.583 104.734 158.984 103.158 158.14C101.92 157.478 100.894 157.446 101.288 158.083C101.45 158.345 100.875 158.715 100.01 158.904C99.1444 159.095 97.8 159.761 97.0225 160.385C93.5395 163.183 93.5598 163.171 94.2398 161.895C94.579 161.259 95.7216 160.15 96.7792 159.431C97.8368 158.713 98.4489 158.125 98.1397 158.125C96.9794 158.125 94.0219 160.563 92.582 162.707C91.1525 164.836 91.0488 164.892 90.1074 164.04C89.5669 163.551 89.125 162.757 89.125 162.274C89.125 161.792 88.6582 160.975 88.0876 160.459C87.5171 159.943 87.0461 159.148 87.0415 158.693C87.0363 158.238 86.4528 157.316 85.7448 156.644C85.0362 155.972 84.4569 155.198 84.4569 154.924C84.4569 154.649 83.8733 153.66 83.1601 152.725C82.447 151.79 81.8634 150.763 81.8634 150.444C81.8634 150.124 81.3966 149.613 80.8261 149.307C80.2555 149.002 79.7887 148.427 79.7887 148.029C79.7887 147.632 79.4178 146.935 78.964 146.482C77.7394 145.257 74.6019 140.593 74.6019 139.998C74.6019 139.714 75.7637 138.981 77.1833 138.371C78.603 137.76 80.6782 136.27 81.7939 135.058C85.3568 131.194 85.1353 127.701 81.2218 126.026C77.8452 124.58 76.4935 124.213 76.8867 124.849C77.0895 125.178 76.3592 125.633 75.0764 125.978C73.0432 126.526 70.0348 128.834 70.6075 129.407C70.7537 129.553 71.8674 129.044 73.0832 128.277C77.9074 125.231 83.4195 126.231 83.4195 130.152C83.4195 133.386 77.4095 138.111 73.6957 137.796C72.0738 137.658 71.6645 137.331 70.6111 135.333C69.943 134.067 69.0535 132.651 68.6339 132.187C68.2143 131.724 67.7319 130.647 67.5612 129.794C67.2931 128.455 67.5405 127.981 69.372 126.326C70.5385 125.272 71.9452 124.41 72.4981 124.41C73.051 124.41 73.6475 124.177 73.8238 123.892C74.3721 123.004 72.5007 123.322 70.4762 124.459C69.4135 125.057 68.1427 126.224 67.653 127.053C66.6385 128.771 65.9066 128.966 65.4051 127.652C65.2142 127.153 64.2816 125.944 63.3329 124.965C60.4936 122.037 60.5128 120.724 63.4543 116.693C65.4362 113.978 64.4771 111.26 61.3137 110.627C59.9931 110.363 59.3722 110.602 57.8022 111.981C55.507 113.996 54.8711 113.699 56.4406 111.344L57.5838 109.628L55.9417 111.443C55.0381 112.442 54.1916 113.003 54.0604 112.691C53.9292 112.378 52.4157 110.686 50.6978 108.93C47.7978 105.966 47.4088 105.738 45.2682 105.738C42.6862 105.738 42.5052 106.054 43.9995 107.954C44.57 108.679 45.0368 109.681 45.0368 110.179C45.0368 111.715 42.6125 114.392 40.9143 114.732C38.9153 115.131 38.9008 115.862 40.8718 116.882C41.7193 117.319 42.6613 118.143 42.9652 118.71C43.612 119.919 45.3927 120.029 46.8216 118.948C47.8875 118.142 50.5888 117.94 51.6117 118.59C51.9468 118.803 52.2969 119.885 52.3897 120.993C52.5573 123.004 52.801 123.264 55.5257 124.337C56.4401 124.698 57.9485 126.461 59.8079 129.343C61.3863 131.79 63.8438 135.313 65.2686 137.172C66.6935 139.031 67.859 140.735 67.859 140.96C67.859 141.185 66.3356 143.389 64.474 145.857C61.2737 150.099 60.9833 150.344 59.1575 150.328C57.3468 150.312 57.2887 150.264 58.2327 149.55C58.7866 149.131 58.9977 148.789 58.7021 148.789C58.4065 148.789 57.7202 149.28 57.1767 149.881C56.6331 150.482 55.3561 151.399 54.3384 151.918C52.1465 153.037 50.718 154.504 51.8461 154.477C52.2372 154.469 53.0111 154.119 53.5645 153.699C54.9043 152.686 55.8011 152.738 56.0905 153.846C56.2669 154.522 56.3431 154.452 56.3877 153.573C56.4272 152.804 56.9277 152.211 57.8292 151.868C60.0139 151.038 60.2467 152.031 58.4495 154.513C56.978 156.544 56.7555 156.681 56.4007 155.773C56.0879 154.973 55.9941 155.129 55.9655 156.5C55.9412 157.664 55.4121 158.836 54.3804 160.011C53.5288 160.981 52.6864 162.356 52.508 163.066C51.8918 165.52 47.9954 165.191 44.8543 162.42C42.6161 160.444 42.5352 159.735 44.2588 157.199C46.4798 153.93 45.8061 151.232 42.4325 149.886L41.1467 149.373L42.4434 149.304C43.6312 149.24 43.653 149.198 42.7028 148.806C41.9709 148.505 41.0331 148.741 39.5196 149.609L37.3738 150.838L35.714 144.238C34.8011 140.607 33.9355 137.137 33.7902 136.526C33.6076 135.757 34.0698 134.801 35.296 133.414C39.1073 129.103 40.4584 125.998 39.3899 124.002C39.0263 123.322 39.0336 122.841 39.4122 122.462C39.8007 122.074 38.9413 121.802 36.4936 121.54C34.2783 121.303 32.9245 120.907 32.7466 120.444C32.5936 120.045 32.7041 116.786 32.992 113.2L33.5148 106.681L36.1243 104.264C37.6912 102.813 38.865 101.226 39.0637 100.292C39.2452 99.4357 39.4698 98.3455 39.5627 97.8693C39.6711 97.3122 39.2893 96.8916 38.4942 96.6924C37.8131 96.5213 37.2566 96.0819 37.2566 95.7152C37.2566 94.4055 40.3381 90.2198 41.8952 89.4142C43.4419 88.6144 43.4808 88.6238 43.4808 89.7893C43.4808 91.6788 44.901 93.2893 46.5675 93.2893C48.3009 93.2893 51.2611 90.7701 51.2611 89.2949C51.2611 88.7529 51.5411 88.0299 51.8835 87.6875C52.5381 87.033 55.7876 86.8442 57.1834 87.38ZM182.488 89.1399C182.488 89.4251 182.385 89.6585 182.259 89.6585C182.133 89.6585 181.886 89.4251 181.71 89.1399C181.534 88.8546 181.637 88.6212 181.939 88.6212C182.241 88.6212 182.488 88.8546 182.488 89.1399ZM158.469 91.5061C158.668 92.1114 154.597 94.3267 153.286 94.3267C152.151 94.3267 151.729 93.4667 152.112 91.9376C152.417 90.726 152.62 90.6549 155.362 90.8002C156.971 90.8852 158.369 91.2032 158.469 91.5061ZM150.848 92.9263C150.848 96.1577 153.426 96.8511 156.836 94.5368C160.592 91.988 161.116 91.9714 163.359 94.3293C166.222 97.3392 166.379 98.541 164.384 102.171C163.032 104.63 162.829 105.382 163.289 106.241C163.955 107.486 165.996 107.633 167.113 106.516C167.541 106.088 167.988 105.738 168.108 105.738C168.226 105.738 168.48 109.014 168.671 113.018C169.056 121.08 169.005 121.294 165.846 124.756C163.576 127.244 158.268 136.895 160.259 134.914C161.11 134.068 161.741 134.089 161.741 134.963C161.741 135.347 162.201 136.077 162.764 136.587C163.769 137.496 165.231 137.487 167.634 136.558C168.495 136.225 168.563 136.376 168.26 137.948C166.589 146.597 165.552 149.307 163.913 149.307C163.409 149.307 162.082 149.774 160.963 150.345C158.593 151.553 158.629 151.545 158.629 150.84C158.629 150.542 159.197 149.729 159.892 149.034C160.587 148.339 160.956 147.647 160.712 147.497C160.467 147.346 159.802 147.814 159.233 148.539C157.949 150.171 155 158.202 154.99 160.097C154.985 160.867 154.811 161.754 154.601 162.069C153.36 163.936 141.266 165.577 136.229 164.562C134.852 164.285 134.848 164.27 135.84 163.278C137.026 162.092 137.111 160.336 136.049 158.933C135.073 157.642 135.084 156.325 136.083 154.801C136.52 154.134 136.946 152.721 137.029 151.66L137.181 149.734L135.327 150.046C134.307 150.218 133.021 150.414 132.47 150.481C131.769 150.567 130.801 149.67 129.246 147.492C128.024 145.78 127.016 144.011 127.007 143.56C126.997 143.109 128.097 141.959 129.453 141.005C132.743 138.687 140.013 132.645 143.782 129.096C146.585 126.456 146.876 126.304 147.413 127.195C148.9 129.668 149.727 130.386 150.363 129.761C150.842 129.29 150.851 128.6 150.402 126.816C149.837 124.573 150.021 122.854 150.825 122.854C151.035 122.854 152.061 122.026 153.103 121.014C154.44 119.715 154.998 118.723 154.998 117.643C154.998 116.28 154.823 116.111 153.408 116.111C151.382 116.111 150.442 116.63 145.736 120.34C143.621 122.008 141.6 123.373 141.246 123.373C140.891 123.373 140.281 123.823 139.89 124.373C139.298 125.203 138.828 125.308 137.103 124.991L135.029 124.61L136.844 123.475C138.332 122.544 138.461 122.339 137.562 122.338C135.806 122.335 134.111 124.037 131.952 127.976C130.844 129.997 128.809 132.986 127.428 134.619C126.047 136.252 124.784 138.008 124.621 138.52C124.459 139.033 124.166 139.438 123.972 139.421C123.777 139.403 121.708 137.011 119.373 134.104C117.039 131.197 113.462 126.784 111.424 124.297C109.276 121.674 107.313 118.662 106.751 117.124L105.782 114.473L107.349 113.607C110.661 111.776 118.958 106.509 119.122 106.132C119.218 105.915 119.505 105.738 119.763 105.738C120.02 105.738 121.425 105.003 122.885 104.104C124.345 103.206 126.099 102.41 126.783 102.335C127.874 102.215 128.026 102.41 128.026 103.931C128.026 107.469 130.693 108.255 134.164 105.74C136.724 103.887 138.926 100.576 139.554 97.6395C139.957 95.7515 140.319 95.3501 142.706 94.1431C145.01 92.9776 149.162 91.4371 150.459 91.2659C150.674 91.2374 150.848 91.9848 150.848 92.9263ZM138.919 96.6774C138.919 98.4772 137.354 100.981 134.788 103.289C130.634 107.023 127.848 106.459 128.811 102.078C129.103 100.75 129.823 100.176 133.647 98.2262C138.727 95.6364 138.919 95.5804 138.919 96.6774ZM38.5403 98.9741C38.8541 99.4814 35.3914 103.663 34.6575 103.663C34.2565 103.663 34.7192 101.122 35.437 99.3839C35.8338 98.4222 38.0211 98.1333 38.5403 98.9741ZM167.713 102.651C168.077 103.795 167.357 104.953 165.748 105.814C163.903 106.802 163.553 105.494 165.114 103.448C166.741 101.314 167.241 101.161 167.713 102.651ZM73.1423 104.171C70.6879 105.949 69.6593 107.388 69.1728 109.723C68.8808 111.127 69.0317 111.508 70.1764 112.258C71.4529 113.095 71.6402 113.09 73.7113 112.163C77.2399 110.584 79.7887 107.996 79.7887 105.993C79.7887 104.494 79.5439 104.196 77.7036 103.46C76.5568 103.001 75.5412 102.626 75.4473 102.626C75.3529 102.626 74.3161 103.321 73.1423 104.171ZM151.114 104.292C149.65 105.141 148.491 106.694 147.733 108.824C147.372 109.837 146.175 111.652 145.073 112.858C142.755 115.394 142.377 116.449 144.523 114.393C146.249 112.739 147.033 112.637 147.469 114.01C147.994 115.665 149.626 115.8 152.032 114.387C154.834 112.74 156.669 110.274 156.456 108.438C156.227 106.448 153.688 106.259 150.571 108.001C147.838 109.529 147.636 109.072 149.904 106.489C151.386 104.801 151.776 104.628 153.75 104.785C155.463 104.922 155.829 104.817 155.409 104.311C154.741 103.506 152.487 103.496 151.114 104.292ZM78.4552 104.997C79.5579 106.1 79.4972 106.404 77.8436 108.076C75.6937 110.251 73.496 111.439 71.6194 111.441C70.1604 111.443 69.9337 111.266 69.9337 110.128C69.9337 106.22 76.0153 102.557 78.4552 104.997ZM109.094 107.094C106.788 109.136 103.431 110.896 101.811 110.913C101.22 110.919 99.73 109.863 98.4395 108.523L96.1273 106.121L97.9426 106.488C102.205 107.35 103.499 107.328 106.501 106.344C110.96 104.881 111.438 105.019 109.094 107.094ZM155.517 108.745C155.517 110.147 151.784 113.54 150.101 113.668C148.317 113.803 147.212 112.409 148.031 111.054C148.732 109.895 152.778 107.812 154.33 107.812C155.126 107.812 155.517 108.119 155.517 108.745ZM80.9184 110.489C79.5911 111.339 79.2602 111.851 79.478 112.719C79.6341 113.343 79.3924 114.371 78.9365 115.022C77.9069 116.493 78.6507 117.416 80.4925 116.954C82.4329 116.467 85.4942 113.358 85.4942 111.875C85.4942 109.275 83.6752 108.724 80.9184 110.489ZM133.738 110.913C133.078 112.146 133.491 114.042 134.415 114.025C135.621 114.002 137.473 112.14 137.283 111.14C137.005 109.674 134.488 109.512 133.738 110.913ZM84.3635 112.018C84.1923 113.145 80.0351 116.531 79.491 115.986C79.0999 115.595 80.1331 113.593 81.4998 112.092C82.8915 110.564 84.5902 110.521 84.3635 112.018ZM103.648 111.647C103.648 111.759 103.298 111.985 102.87 112.15C102.442 112.314 102.092 112.222 102.092 111.946C102.092 111.669 102.442 111.443 102.87 111.443C103.298 111.443 103.648 111.535 103.648 111.647ZM119.518 112.619C117.237 113.924 116.972 114.332 116.157 117.804C115.337 121.302 115.432 122.561 116.595 123.614C118.351 125.203 122.549 123.332 124.144 120.246C125.014 118.562 125.179 115.593 124.402 115.593C124.12 115.593 123.74 114.659 123.557 113.518C123.167 111.079 122.478 110.926 119.518 112.619ZM135.585 112.232C135.035 112.648 134.459 112.862 134.303 112.706C133.978 112.381 135.295 111.455 136.066 111.468C136.351 111.472 136.135 111.817 135.585 112.232ZM47.8419 113.259L48.6915 114.555H46.6048C44.3714 114.555 44.0306 114.079 45.333 112.777C46.443 111.667 46.8507 111.746 47.8419 113.259ZM63.1701 112.715C63.9465 113.651 63.4787 115.307 61.8075 117.538C60.3251 119.516 59.4703 119.641 58.0242 118.088C56.7467 116.717 56.6502 114.209 57.825 112.911C58.8712 111.754 62.2701 111.631 63.1701 112.715ZM122.371 114.927C124.699 116.302 124.594 118.238 122.061 120.634C119.183 123.356 116.097 123.394 116.097 120.706C116.097 119.217 119.588 114.037 120.592 114.037C120.741 114.037 121.542 114.437 122.371 114.927ZM100.473 117.326C101.649 118.851 102.611 120.345 102.611 120.647C102.611 121.289 99.8649 122.336 98.1823 122.336C97.5433 122.336 96.4991 121.914 95.8622 121.398C94.9244 120.639 94.7724 120.15 95.0624 118.829C95.4296 117.158 97.1682 114.555 97.9172 114.555C98.147 114.555 99.2974 115.802 100.473 117.326ZM105.723 116.111C105.723 116.397 105.62 116.63 105.494 116.63C105.368 116.63 105.121 116.397 104.945 116.111C104.769 115.826 104.872 115.593 105.174 115.593C105.476 115.593 105.723 115.826 105.723 116.111ZM46.0742 118.186C46.0742 118.471 45.6074 118.705 45.0368 118.705C44.4663 118.705 43.9995 118.471 43.9995 118.186C43.9995 117.901 44.4663 117.667 45.0368 117.667C45.6074 117.667 46.0742 117.901 46.0742 118.186ZM14.9454 119.903C14.9495 120.133 14.7198 120.178 14.4345 120.002C14.1492 119.825 13.9194 119.286 13.9236 118.804C13.9308 118.048 14.0014 118.034 14.4345 118.705C14.7109 119.133 14.9407 119.672 14.9454 119.903ZM54.3835 121.57C54.7445 122.005 54.8996 122.501 54.729 122.672C54.1979 123.203 52.8171 122.41 52.8171 121.574C52.8171 120.558 53.5422 120.556 54.3835 121.57ZM35.7005 122.825C35.7005 123.348 33.6647 124.929 32.9914 124.929C32.4992 124.929 32.4541 123.161 32.9344 122.682C33.4619 122.154 35.7005 122.27 35.7005 122.825ZM167.444 125.19C166.776 125.903 165.992 126.485 165.703 126.485C165.414 126.485 165.846 125.787 166.663 124.934C167.48 124.082 168.264 123.499 168.405 123.64C168.545 123.781 168.113 124.478 167.444 125.19ZM38.7146 125.283C38.9978 127.274 35.894 132.191 34.3545 132.191C33.507 132.191 32.9339 129.491 33.3649 127.529C34.0345 124.48 38.3427 122.671 38.7146 125.283ZM75.0235 124.246C75.3975 124.396 75.8451 124.377 76.0173 124.205C76.1896 124.033 75.8835 123.91 75.3368 123.933C74.7326 123.958 74.6096 124.08 75.0235 124.246ZM169.068 130.144C168.951 134.39 168.061 135.821 165.539 135.821C161.356 135.821 161.34 132.901 165.5 128.689C166.984 127.187 168.417 126.031 168.686 126.12C168.955 126.21 169.127 128.021 169.068 130.144ZM135.288 128.041C133.173 129.822 132.436 130.013 133.201 128.582C133.823 127.421 135.188 126.517 136.325 126.515C136.781 126.514 136.351 127.146 135.288 128.041ZM91.6904 130.066C90.5296 131.035 90.0882 131.767 90.3123 132.351C90.7573 133.512 91.8989 132.992 93.4944 130.9C95.233 128.62 94.0681 128.081 91.6904 130.066ZM102.74 134.04C101.528 134.767 100.536 135.582 100.536 135.851C100.536 136.581 100.939 136.457 102.625 135.21C103.466 134.589 104.26 134.186 104.389 134.314C104.517 134.443 103.937 135.57 103.098 136.819C101.049 139.871 100.971 143.318 102.904 145.405C104.061 146.653 104.514 146.804 106.36 146.556C107.529 146.399 109.09 145.825 109.827 145.28C111.65 143.932 113.7 140.175 113.229 139.046C112.921 138.309 112.787 138.398 112.452 139.561C111.524 142.787 108.219 145.676 105.457 145.676C104.087 145.676 102.092 143.267 102.092 141.614C102.092 138.422 104.773 134.265 106.832 134.265C108.389 134.265 111.346 135.788 112.225 137.042C112.643 137.639 112.984 137.894 112.984 137.608C112.984 135.799 108.6 132.742 105.982 132.725C105.412 132.722 103.953 133.314 102.74 134.04ZM52.4281 133.594C51.786 133.718 51.2611 134.036 51.2611 134.302C51.2611 134.567 50.8072 134.784 50.2527 134.784C49.024 134.784 46.1769 137.132 46.7314 137.688C46.9498 137.907 47.4052 137.81 47.7428 137.472C48.9918 136.223 49.2361 136.915 48.1604 138.656C46.5478 141.265 46.8517 144.643 48.7823 145.564C50.5852 146.424 52.3565 145.589 55.0475 142.611C58.1129 139.218 58.2783 135.97 55.4489 134.718C54.6133 134.348 54.0428 133.861 54.1818 133.637C54.3208 133.412 54.2456 133.26 54.0148 133.299C53.7839 133.337 53.0702 133.47 52.4281 133.594ZM55.8135 136.11C57.5475 137.325 57.2197 138.831 54.7051 141.206C51.3513 144.374 50.8186 144.723 49.6137 144.544C47.2086 144.185 47.0882 141.698 49.3165 138.392C51.2683 135.496 53.7118 134.638 55.8135 136.11ZM88.0394 141.373C84.1747 144.864 81.8821 150.156 83.5232 151.797C85.1285 153.402 88.3651 152.107 91.6479 148.546C94.4602 145.494 94.4519 143.791 91.6162 142.405C89.5431 141.392 89.4305 140.191 91.3735 139.813C92.4856 139.595 92.4851 139.593 91.331 139.523C90.6442 139.481 89.292 140.242 88.0394 141.373ZM147.367 142.694C146.104 144.073 144.509 147.188 143.583 150.085C143.219 151.226 142.603 152.621 142.216 153.183C141.302 154.512 141.329 155.558 142.246 154.348C142.885 153.506 142.977 153.589 143.295 155.279C143.547 156.625 144.01 157.274 144.98 157.643C146.868 158.36 147.832 157.917 151.092 154.834C153.638 152.426 153.961 151.889 153.961 150.052C153.961 145.777 151.265 144.5 147.557 147.019C146.47 147.758 145.448 148.229 145.285 148.066C144.957 147.739 147.424 143.988 148.619 142.996C149.206 142.509 149.599 142.506 150.365 142.984C151.846 143.909 152.163 143.73 151.108 142.564C149.883 141.21 148.688 141.252 147.367 142.694ZM92.1609 143.859C93.5748 145.198 91.304 148.377 87.6379 150.191C83.9791 152.001 83.1918 151.123 84.9081 147.146C86.7007 142.993 89.7754 141.6 92.1609 143.859ZM73.0603 148.918C74.2984 150.987 75.2735 153.18 75.2263 153.792C75.1366 154.965 70.3782 165.157 69.372 166.332C68.8917 166.893 68.5825 166.837 67.6733 166.021C66.847 165.28 65.9787 165.07 64.2842 165.202C62.2779 165.358 60.2032 164.617 58.0636 162.979C57.4204 162.486 59.7701 160.301 61.4983 159.783C64.0176 159.028 65.0046 157.965 65.7365 155.216C66.3205 153.021 70.1702 145.158 70.6609 145.158C70.7418 145.158 71.8217 146.85 73.0603 148.918ZM124.251 146.777C125.077 147.603 124.51 148.703 122.802 149.586C119.671 151.205 118.163 149.993 120.016 147.348C120.891 146.099 123.255 145.781 124.251 146.777ZM152.289 147.521C153.786 148.57 153.744 149.594 152.104 151.961C149.138 156.24 144.566 157.806 143.812 154.801C143.135 152.103 147.489 146.939 150.603 146.746C150.897 146.729 151.655 147.077 152.289 147.521ZM164.334 150.919C164.334 152.471 160.994 158.237 159.274 159.654C156.535 161.913 155.818 161.766 156.255 159.035C156.73 156.065 157.984 154.063 160.639 152.038C162.895 150.317 164.334 149.881 164.334 150.919ZM44.2609 152.09C44.8994 153.065 44.9476 153.623 44.4959 154.812C43.8926 156.398 42.5389 158.125 41.8983 158.125C41.6872 158.125 40.7447 156.926 39.8049 155.461L38.0953 152.797L39.2893 151.83C40.9839 150.458 43.2697 150.577 44.2609 152.09ZM136.088 152.808C135.896 153.593 135.413 154.567 135.016 154.973C134.393 155.609 134.215 155.507 133.732 154.235C132.987 152.274 133.404 151.382 135.068 151.382C136.301 151.382 136.403 151.524 136.088 152.808ZM112.287 154.924C111.815 155.446 111.429 156.321 111.431 156.869C111.432 157.611 111.703 157.421 112.493 156.126C113.27 154.851 113.824 154.457 114.566 154.651C115.124 154.797 115.449 154.704 115.288 154.446C114.804 153.662 113.198 153.917 112.287 154.924ZM64.9113 155.402C64.264 157.226 62.1534 158.967 62.1534 157.676C62.1534 157.016 64.2261 154.494 64.7681 154.494C65.0238 154.494 65.0881 154.903 64.9113 155.402ZM76.6766 155.704C76.6766 156.085 76.3265 156.396 75.8986 156.396C74.5821 156.396 74.9935 155.544 76.5469 155.054C76.618 155.031 76.6766 155.324 76.6766 155.704ZM115.103 156.828C114.969 158.644 113.72 159.819 112.378 159.394C111.308 159.054 111.254 159.106 111.885 159.866C112.274 160.334 112.908 160.718 113.294 160.718C114.193 160.718 115.712 157.807 115.41 156.664C115.226 155.965 115.165 155.998 115.103 156.828ZM131.538 158.028C131.651 158.367 131.374 158.644 130.922 158.644C130.47 158.644 130.101 158.274 130.101 157.822C130.101 156.906 131.218 157.066 131.538 158.028ZM78.4541 158.421C80.5366 160.503 79.7425 163.541 76.7051 165.113C75.3368 165.82 75.1045 165.815 74.3508 165.062C73.328 164.039 72.6402 164.532 73.5541 165.633C74.7813 167.112 76.9271 166.587 78.9904 164.303C80.0444 163.136 80.9563 162.261 81.0169 162.358C81.0776 162.454 82.1098 163.866 83.3106 165.494C84.5118 167.122 85.4942 168.58 85.4942 168.736C85.4942 169.449 71.3663 168.03 70.5727 167.236C69.957 166.62 71.567 162.862 72.7901 162.06C73.5012 161.594 74.0832 160.868 74.0832 160.447C74.0832 159.469 75.9292 157.606 76.8991 157.606C77.3063 157.606 78.0065 157.972 78.4541 158.421ZM104.063 160.303C105.85 162.091 103.742 166.965 99.5511 170.733C97.8125 172.296 97.0095 172.675 95.7035 172.548C94.1848 172.402 93.9757 172.146 93.0909 169.351L92.1298 166.313L94.3876 163.993C98.0443 160.235 102.352 158.592 104.063 160.303ZM65.5249 164.349C65.1457 164.963 65.6535 164.963 67.0809 164.349C68.081 163.919 68.0773 163.902 66.9819 163.867C66.3568 163.847 65.7012 164.064 65.5249 164.349ZM59.8603 169.804C63.85 172.424 64.6986 172.716 72.0645 174.005C78.992 175.218 78.9116 175.04 78.2166 187.592C77.6247 198.274 77.1538 201.667 76.0236 203.392C75.4784 204.223 73.8441 205.12 71.1427 206.068C66.959 207.536 60.933 210.112 55.9292 212.571C54.3602 213.341 50.8591 215.646 48.149 217.692C42.349 222.07 35.936 225.554 33.6761 225.554C31.786 225.554 31.7316 225.369 33.1071 223.621C34.4033 221.972 34.463 220.367 33.228 220.367C32.7238 220.367 31.0837 221.441 29.5827 222.754C27.4 224.663 26.5981 225.076 25.5722 224.818C24.8668 224.641 24.2895 224.318 24.2895 224.101C24.2895 223.883 25.5841 222.446 27.1666 220.908C29.1433 218.987 29.9955 217.775 29.8897 217.035C29.4883 214.226 24.9617 216.857 21.9341 221.659L20.3994 224.093L17.8355 223.755C16.4257 223.569 15.0823 223.3 14.85 223.156C14.4972 222.938 17.0326 219.488 19.4917 216.841C20.4886 215.768 20.3153 213.623 19.2323 213.632C18.2266 213.641 13.3468 218.069 11.2643 220.862C9.93645 222.644 9.91571 222.651 7.7725 222.009C6.58679 221.653 5.61685 221.106 5.61685 220.791C5.61685 220.152 9.52462 215.454 12.3406 212.708C13.3494 211.723 16.5092 209.322 19.362 207.371C25.4384 203.216 32.0225 198.002 36.6093 193.713C41.9844 188.687 49.0504 178.984 51.6828 173.014C53.0791 169.847 54.7741 167.461 55.6284 167.461C55.9946 167.461 57.8987 168.515 59.8603 169.804ZM121.7 168.601C121.812 169.191 121.18 169.832 119.781 170.546C116.294 172.325 115.479 171.557 118.029 168.895C119.562 167.295 121.422 167.146 121.7 168.601ZM135.269 170.46C136.257 171.806 137.364 173.257 137.728 173.685C138.092 174.113 140.451 176.914 142.971 179.91C149.866 188.107 156.246 193.408 161.13 194.998C163.77 195.858 175.692 201.805 180.483 204.654C186.421 208.184 195.974 215.773 195.974 216.961C195.974 217.723 190.427 220.367 188.826 220.367C188.14 220.367 187.316 219.6 186.459 218.163C184.625 215.089 179.608 209.83 178.773 210.105C177.759 210.439 177.644 212.297 178.53 214.01C178.954 214.832 180.409 216.735 181.761 218.24C183.715 220.413 184.069 221.07 183.484 221.441C181.763 222.53 179.334 221.519 177.831 219.089C176.492 216.921 170.958 213.051 169.026 212.929C168.029 212.866 167.667 213.126 167.543 213.989C167.424 214.828 168.22 215.921 170.525 218.086C172.255 219.71 173.671 221.237 173.671 221.481C173.671 221.724 172.302 221.923 170.629 221.923C168.346 221.923 166.208 221.405 162.063 219.848C159.025 218.707 156.169 217.774 155.715 217.774C155.261 217.774 151.926 216.607 148.305 215.18C144.683 213.754 141.57 212.587 141.387 212.587C141.203 212.587 139.115 211.672 136.744 210.555C134.375 209.437 128.934 207.059 124.655 205.27C119.915 203.289 116.292 201.438 115.383 200.535C114.003 199.162 113.923 198.87 114.302 196.612C115.04 192.219 114.729 187.499 113.549 185.187C111.805 181.768 112.018 181.275 115.708 180.19C122.132 178.3 127.663 174.698 131.06 170.192C131.977 168.975 132.895 167.987 133.1 167.996C133.305 168.005 134.281 169.113 135.269 170.46ZM46.7719 175.523C46.6028 175.963 46.3533 176.212 46.2174 176.077C46.0815 175.941 46.124 175.58 46.3123 175.276C46.8237 174.448 47.1225 174.609 46.7719 175.523Z" fill="black"/>
</g>
</svg>
