<svg width="18" height="18" viewBox="0 0 18 18" fill="none" xmlns="http://www.w3.org/2000/svg">
<path d="M8.15271 14.5719H3.54919C3.08084 14.5719 2.70117 14.1923 2.70117 13.7239V3.54772C2.70117 3.07938 3.08084 2.69971 3.54919 2.69971H9.4853M9.4853 2.69971L14.644 7.06472C14.7646 7.16678 14.6924 7.3638 14.5344 7.3638H10.3333C9.86497 7.3638 9.4853 6.98413 9.4853 6.51578V2.69971Z" stroke="#252525" stroke-width="1.18722" stroke-linecap="round"/>
<path d="M12.5987 10.7656C12.3508 10.7656 12.1131 10.8641 11.9378 11.0394C11.7625 11.2146 11.6641 11.4524 11.6641 11.7002C11.6641 11.9481 11.7625 12.1859 11.9378 12.3611C12.1131 12.5364 12.3508 12.6349 12.5987 12.6349C12.8466 12.6349 13.0843 12.5364 13.2596 12.3611C13.4348 12.1859 13.5333 11.9481 13.5333 11.7002C13.5333 11.4524 13.4348 11.2146 13.2596 11.0394C13.0843 10.8641 12.8466 10.7656 12.5987 10.7656Z" fill="#252525"/>
<path fill-rule="evenodd" clip-rule="evenodd" d="M12.5995 9C11.512 9 10.5342 9.43657 9.8297 9.97741C9.47662 10.2482 9.18709 10.549 8.98397 10.8414C8.78458 11.1289 8.65332 11.4304 8.65332 11.7C8.65332 11.9696 8.785 12.2712 8.98397 12.5582C9.18751 12.8511 9.47662 13.1518 9.8297 13.4222C10.5342 13.9639 11.512 14.4001 12.5995 14.4001C13.687 14.4001 14.6648 13.9635 15.3693 13.4226C15.7224 13.1518 16.0119 12.8511 16.2146 12.5586C16.414 12.2712 16.5457 11.9696 16.5457 11.7C16.5457 11.4304 16.414 11.1289 16.2146 10.8418C16.0119 10.549 15.7224 10.2482 15.3693 9.97782C14.6648 9.43616 13.687 9 12.5995 9ZM11.0418 11.7C11.0418 11.2869 11.2059 10.8907 11.498 10.5986C11.7902 10.3064 12.1864 10.1423 12.5995 10.1423C13.0126 10.1423 13.4088 10.3064 13.701 10.5986C13.9931 10.8907 14.1572 11.2869 14.1572 11.7C14.1572 12.1132 13.9931 12.5094 13.701 12.8015C13.4088 13.0936 13.0126 13.2577 12.5995 13.2577C12.1864 13.2577 11.7902 13.0936 11.498 12.8015C11.2059 12.5094 11.0418 12.1132 11.0418 11.7Z" fill="#252525"/>
</svg>
