<svg width="24" height="24" viewBox="0 0 24 24" fill="none" xmlns="http://www.w3.org/2000/svg">
<path d="M9.76871 18.8296H3.63069C3.00623 18.8296 2.5 18.3234 2.5 17.6989V4.13069C2.5 3.50623 3.00623 3 3.63069 3H11.5455M11.5455 3L18.4237 8.82002C18.5845 8.95609 18.4883 9.21878 18.2776 9.21878H12.6762C12.0517 9.21878 11.5455 8.71256 11.5455 8.0881V3Z" stroke="#252525" stroke-width="1.58296" stroke-linecap="round"/>
<path d="M19.9776 14.1923L17.9923 12.4985L12.9028 18.4641L13.0485 20.3036L14.888 20.1579L19.9776 14.1923Z" fill="#252525"/>
<path d="M20.5588 13.5111L21.3724 12.5573C21.5392 12.3717 21.5156 12.0742 21.321 11.9081L20.0364 10.8121C19.8418 10.6461 19.5442 10.6697 19.3872 10.8636L18.5735 11.8173L20.5588 13.5111Z" fill="#252525"/>
</svg>
