<svg width="18" height="18" viewBox="0 0 18 18" fill="none" xmlns="http://www.w3.org/2000/svg">
<path d="M8.15271 14.5719H3.54919C3.08084 14.5719 2.70117 14.1923 2.70117 13.7239V3.54772C2.70117 3.07938 3.08084 2.69971 3.54919 2.69971H9.4853M9.4853 2.69971L14.644 7.06472C14.7646 7.16678 14.6924 7.3638 14.5344 7.3638H10.3333C9.86497 7.3638 9.4853 6.98413 9.4853 6.51578V2.69971Z" stroke="#252525" stroke-width="1.18722" stroke-linecap="round"/>
<path d="M15.3913 13.3841L13.5872 11.6955L15.3903 10.0152C15.6548 9.76875 15.6559 9.35009 15.3928 9.10219C15.1529 8.87607 14.7786 8.87504 14.5373 9.09983L12.6645 10.8451L10.7869 9.09544C10.548 8.87279 10.1776 8.87279 9.93863 9.09544C9.67463 9.34145 9.67463 9.75973 9.93863 10.0057L11.7519 11.6955L9.93864 13.3852C9.67417 13.6316 9.67301 14.0503 9.93612 14.2982C10.1761 14.5243 10.5504 14.5253 10.7916 14.3006L12.6645 12.5553L14.5412 14.2964C14.7807 14.5187 15.1513 14.5183 15.3903 14.2955C15.6545 14.0493 15.655 13.6309 15.3913 13.3841Z" fill="#252525"/>
</svg>
