<svg xmlns="http://www.w3.org/2000/svg" width="31" height="30" viewBox="0 0 31 30" fill="none">
<g clip-path="url(#clip0_1686_32621)">
<path d="M25.9607 5.21699C24.0923 4.44848 22.0694 3.89069 19.9622 3.56842C19.9438 3.5679 19.9254 3.57095 19.9084 3.57738C19.8914 3.5838 19.8762 3.59344 19.8639 3.6056C19.611 4.01465 19.316 4.54764 19.1193 4.95669C16.8843 4.6592 14.6113 4.6592 12.3763 4.95669C12.1796 4.53525 11.8846 4.01465 11.6177 3.6056C11.6037 3.58081 11.5615 3.56842 11.5194 3.56842C9.41218 3.89069 7.40331 4.44848 5.52088 5.21699C5.50683 5.21699 5.49278 5.22939 5.47873 5.24178C1.65768 10.2867 0.604077 15.1952 1.12385 20.0542C1.12385 20.079 1.1379 20.1037 1.166 20.1161C3.69464 21.7523 6.12494 22.7439 8.52715 23.4009C8.5693 23.4133 8.61144 23.4009 8.62549 23.3761C9.18741 22.6944 9.69314 21.9754 10.1286 21.2193C10.1567 21.1697 10.1286 21.1202 10.0724 21.1078C9.2717 20.8351 8.5131 20.5128 7.76856 20.1409C7.71237 20.1161 7.71237 20.0418 7.75451 20.0046C7.90904 19.9054 8.06357 19.7939 8.21809 19.6947C8.24619 19.6699 8.28834 19.6699 8.31643 19.6823C13.1489 21.6284 18.3608 21.6284 23.1371 19.6823C23.1652 19.6699 23.2073 19.6699 23.2354 19.6947C23.3899 19.8063 23.5445 19.9054 23.699 20.017C23.7552 20.0542 23.7552 20.1285 23.6849 20.1533C22.9545 20.5376 22.1818 20.8475 21.3811 21.1202C21.3249 21.1326 21.3108 21.1945 21.3249 21.2317C21.7744 21.9878 22.2801 22.7068 22.828 23.3885C22.8702 23.4009 22.9123 23.4133 22.9545 23.4009C25.3707 22.7439 27.801 21.7523 30.3297 20.1161C30.3577 20.1037 30.3718 20.079 30.3718 20.0542C30.9899 14.4391 29.3463 9.56774 26.0169 5.24178C26.0029 5.22939 25.9888 5.21699 25.9607 5.21699ZM10.8591 17.0917C9.41218 17.0917 8.20405 15.9141 8.20405 14.4639C8.20405 13.0136 9.38408 11.8361 10.8591 11.8361C12.3482 11.8361 13.5282 13.026 13.5142 14.4639C13.5142 15.9141 12.3342 17.0917 10.8591 17.0917ZM20.6506 17.0917C19.2036 17.0917 17.9955 15.9141 17.9955 14.4639C17.9955 13.0136 19.1755 11.8361 20.6506 11.8361C22.1397 11.8361 23.3197 13.026 23.3057 14.4639C23.3057 15.9141 22.1397 17.0917 20.6506 17.0917Z" fill="#A4ADB3"/>
</g>
<defs>
<clipPath id="clip0_1686_32621">
<rect width="30" height="30" fill="white" transform="translate(0.5)"/>
</clipPath>
</defs>
</svg>