<svg xmlns="http://www.w3.org/2000/svg" width="31" height="30" viewBox="0 0 31 30" fill="none">
<path fill-rule="evenodd" clip-rule="evenodd" d="M8.92898 3C7.62206 3 6.36864 3.51904 5.44433 4.44299C4.52002 5.36695 4.0005 6.62017 4 7.92708V21.071C4 22.3783 4.5193 23.632 5.44366 24.5563C6.36803 25.4807 7.62173 26 8.92898 26H22.0729C23.3798 25.9995 24.6331 25.48 25.557 24.5557C26.481 23.6314 27 22.3779 27 21.071V7.92708C26.9995 6.62049 26.4802 5.36756 25.5563 4.44366C24.6324 3.51976 23.3795 3.0005 22.0729 3H8.92898ZM23.4907 7.93466C23.4907 8.31117 23.3411 8.67226 23.0749 8.93849C22.8086 9.20472 22.4475 9.35429 22.071 9.35429C21.6945 9.35429 21.3334 9.20472 21.0672 8.93849C20.801 8.67226 20.6514 8.31117 20.6514 7.93466C20.6514 7.55815 20.801 7.19705 21.0672 6.93082C21.3334 6.66459 21.6945 6.51502 22.071 6.51502C22.4475 6.51502 22.8086 6.66459 23.0749 6.93082C23.3411 7.19705 23.4907 7.55815 23.4907 7.93466ZM15.5028 10.5619C14.4586 10.5619 13.4572 10.9767 12.7189 11.7151C11.9805 12.4534 11.5657 13.4549 11.5657 14.4991C11.5657 15.5432 11.9805 16.5447 12.7189 17.283C13.4572 18.0214 14.4586 18.4362 15.5028 18.4362C16.547 18.4362 17.5485 18.0214 18.2868 17.283C19.0252 16.5447 19.44 15.5432 19.44 14.4991C19.44 13.4549 19.0252 12.4534 18.2868 11.7151C17.5485 10.9767 16.547 10.5619 15.5028 10.5619ZM9.67097 14.4991C9.67097 12.9528 10.2852 11.47 11.3785 10.3766C12.4719 9.28331 13.9547 8.66908 15.5009 8.66908C17.0472 8.66908 18.53 9.28331 19.6234 10.3766C20.7167 11.47 21.3309 12.9528 21.3309 14.4991C21.3309 16.0453 20.7167 17.5281 19.6234 18.6215C18.53 19.7148 17.0472 20.329 15.5009 20.329C13.9547 20.329 12.4719 19.7148 11.3785 18.6215C10.2852 17.5281 9.67097 16.0453 9.67097 14.4991Z" fill="#A4ADB3"/>
</svg>