<svg width="31" height="32" viewBox="0 0 31 32" fill="none" xmlns="http://www.w3.org/2000/svg">
<path d="M15.4987 3.93359C22.9904 3.93359 29.0625 8.66626 29.0625 14.5059C29.0625 20.3442 22.9904 25.0769 15.5 25.0769C14.7542 25.0772 14.0091 25.0298 13.2693 24.9348L7.57562 28.6587C6.9285 29.001 6.69987 28.9635 6.96596 28.1252L8.11812 23.3745C4.39812 21.4886 1.9375 18.2207 1.9375 14.5059C1.9375 8.66755 8.00833 3.93359 15.5 3.93359M23.1312 14.3444L25.0299 12.5051C25.1395 12.3913 25.2006 12.2394 25.2004 12.0815C25.2002 11.9235 25.1387 11.7718 25.0289 11.6583C24.9191 11.5448 24.7695 11.4783 24.6116 11.4729C24.4537 11.4675 24.2999 11.5236 24.1826 11.6293L21.6922 14.0396V12.0478C21.6922 11.8861 21.628 11.7311 21.5137 11.6167C21.3993 11.5024 21.2443 11.4382 21.0826 11.4382C20.9209 11.4382 20.7658 11.5024 20.6515 11.6167C20.5371 11.7311 20.4729 11.8861 20.4729 12.0478V15.3506C20.4501 15.4449 20.4501 15.5432 20.4729 15.6374V17.4961C20.4729 17.6578 20.5371 17.8129 20.6515 17.9272C20.7658 18.0415 20.9209 18.1058 21.0826 18.1058C21.2443 18.1058 21.3993 18.0415 21.5137 17.9272C21.628 17.8129 21.6922 17.6578 21.6922 17.4961V15.7356L22.2438 15.2021L24.0883 17.8281C24.1343 17.8936 24.1929 17.9495 24.2605 17.9924C24.3281 18.0354 24.4036 18.0646 24.4825 18.0783C24.5614 18.0921 24.6423 18.0903 24.7205 18.0728C24.7987 18.0553 24.8727 18.0226 24.9382 17.9766C25.0038 17.9305 25.0596 17.872 25.1026 17.8044C25.1455 17.7368 25.1747 17.6613 25.1885 17.5824C25.2023 17.5035 25.2004 17.4226 25.183 17.3444C25.1655 17.2662 25.1328 17.1922 25.0868 17.1267L23.1312 14.3444ZM19.3104 16.8296H17.4246V12.0672C17.4174 11.9105 17.35 11.7627 17.2366 11.6544C17.1232 11.546 16.9724 11.4856 16.8156 11.4856C16.6587 11.4856 16.5079 11.546 16.3945 11.6544C16.2811 11.7627 16.2138 11.9105 16.2065 12.0672V17.4393C16.2065 17.7751 16.4778 18.0489 16.8149 18.0489H19.3104C19.4721 18.0489 19.6272 17.9847 19.7415 17.8704C19.8559 17.756 19.9201 17.601 19.9201 17.4393C19.9201 17.2776 19.8559 17.1225 19.7415 17.0082C19.6272 16.8938 19.4721 16.8296 19.3104 16.8296ZM11.7451 15.4204L12.6441 13.2142L13.4682 15.4191L11.7451 15.4204ZM15.004 16.0494L15.0066 16.0288C15.0063 15.8752 14.9476 15.7274 14.8425 15.6154L13.4915 11.9988C13.4348 11.8264 13.3269 11.6754 13.1822 11.566C13.0375 11.4566 12.8628 11.394 12.6816 11.3865C12.499 11.3857 12.3205 11.4405 12.1698 11.5437C12.0191 11.6468 11.9034 11.7934 11.8381 11.9639L9.69138 17.2274C9.63023 17.3771 9.63105 17.545 9.69367 17.6941C9.75629 17.8432 9.87557 17.9613 10.0253 18.0224C10.175 18.0836 10.3428 18.0828 10.4919 18.0202C10.641 17.9575 10.7591 17.8383 10.8203 17.6886L11.2491 16.6384H13.9229L14.3078 17.6718C14.334 17.749 14.3755 17.8202 14.4298 17.8811C14.4841 17.942 14.55 17.9914 14.6237 18.0264C14.6974 18.0613 14.7774 18.0812 14.8589 18.0846C14.9404 18.0881 15.0218 18.0752 15.0982 18.0467C15.1747 18.0182 15.2446 17.9746 15.3039 17.9185C15.3631 17.8625 15.4106 17.7951 15.4433 17.7204C15.4761 17.6457 15.4936 17.5652 15.4946 17.4836C15.4957 17.402 15.4804 17.3211 15.4496 17.2455L15.004 16.0494ZM10.7118 12.0737C10.7118 11.9122 10.6477 11.7573 10.5337 11.643C10.4196 11.5287 10.2649 11.4644 10.1034 11.464H5.91196C5.75026 11.464 5.59519 11.5282 5.48086 11.6426C5.36652 11.7569 5.30229 11.912 5.30229 12.0737C5.30229 12.2354 5.36652 12.3904 5.48086 12.5048C5.59519 12.6191 5.75026 12.6833 5.91196 12.6833H7.41029V17.509C7.41029 17.6707 7.47452 17.8258 7.58886 17.9401C7.70319 18.0544 7.85826 18.1187 8.01996 18.1187C8.18165 18.1187 8.33672 18.0544 8.45106 17.9401C8.56539 17.8258 8.62963 17.6707 8.62963 17.509V12.6833H10.1021C10.2638 12.6833 10.4189 12.6191 10.5332 12.5048C10.6476 12.3904 10.7118 12.2354 10.7118 12.0737Z" fill="#A4ADB3"/>
</svg>
