<svg xmlns="http://www.w3.org/2000/svg" width="35" height="34" viewBox="0 0 35 34" fill="none">
<path d="M31.4395 10.1242C31.2771 9.51923 30.9586 8.96753 30.5159 8.52432C30.0733 8.08111 29.522 7.76193 28.9172 7.59873C26.6911 7 17.7675 7 17.7675 7C17.7675 7 8.84395 7 6.61783 7.59554C6.0128 7.75821 5.46123 8.07721 5.01849 8.52051C4.57575 8.9638 4.25745 9.51578 4.09554 10.121C3.5 12.3503 3.5 17 3.5 17C3.5 17 3.5 21.6497 4.09554 23.8758C4.42357 25.1051 5.39172 26.0732 6.61783 26.4013C8.84395 27 17.7675 27 17.7675 27C17.7675 27 26.6911 27 28.9172 26.4013C30.1465 26.0732 31.1115 25.1051 31.4395 23.8758C32.035 21.6497 32.035 17 32.035 17C32.035 17 32.035 12.3503 31.4395 10.1242ZM14.9331 21.2675V12.7325L22.3217 16.9682L14.9331 21.2675Z" fill="#A4ADB3"/>
</svg>