<svg width="316" height="169" viewBox="0 0 316 169" fill="none" xmlns="http://www.w3.org/2000/svg">
<path d="M59.3567 112.322L56.6172 103.19L65.749 107.756H75.7941C76.5246 107.756 82.1864 104.712 84.9259 103.19C88.5787 99.2334 95.8842 91.6844 95.8842 93.1454C95.8842 94.9718 103.19 92.2323 105.016 91.3191C106.842 90.4059 117.801 82.1872 119.627 80.3608C121.088 78.8998 128.759 76.7081 132.412 75.7949C139.413 77.6213 153.78 81.4567 155.241 82.1872C157.068 83.1004 170.765 90.4059 173.505 93.1454C175.697 95.3371 182.332 100.147 185.376 102.277L189.942 112.322V126.02L191.769 137.892L189.942 140.631L179.897 143.371C172.592 143.066 157.798 142.457 157.068 142.457C156.154 142.457 145.196 143.371 144.283 143.371C143.552 143.371 143.979 140.935 144.283 139.718L147.936 131.499L148.849 120.541C147.023 119.628 143.37 117.619 143.37 116.888C143.37 116.158 136.673 115.366 133.325 115.062L121.453 114.149L107.756 115.975L106.842 117.801L98.6237 130.586L97.7105 131.499C95.8842 129.977 92.0488 126.933 91.3182 126.933C90.4051 126.933 81.2732 120.541 81.2732 119.628C81.2732 118.897 73.9677 116.888 70.315 115.975L59.3567 112.322Z" fill="#7F30FF" stroke="black" stroke-width="1.47646" stroke-linecap="round"/>
<path fill-rule="evenodd" clip-rule="evenodd" d="M249.421 0.166691C248.884 0.311827 248.236 0.629558 247.981 0.873249C247.726 1.11694 247.012 1.31601 246.395 1.31601C245.777 1.31601 245.272 1.53666 245.272 1.80633C245.272 2.07601 244.987 2.29666 244.638 2.29666C243.909 2.29666 240.718 5.28175 238.928 7.63923C238.257 8.52279 237.433 9.54217 237.098 9.90403C236.762 10.2659 236.488 10.6974 236.488 10.8631C236.488 11.6491 231.734 16.5161 230.967 16.5161C229.958 16.5161 226.434 19.9106 225.382 21.8949C224.124 24.2715 223.544 27.1958 223.983 28.9531C224.148 29.6165 225.645 31.493 227.308 33.1228C230.191 35.9491 230.301 36.1427 229.679 37.3097C229.217 38.1781 229.123 39.4308 229.357 41.6216C229.539 43.3201 229.887 46.9161 230.129 49.6129C230.372 52.3097 230.727 56.018 230.918 57.8533C231.294 61.467 230.566 66.9983 229.316 70.0295C228.71 71.498 227.961 72.1217 225.091 73.549C221.55 75.3103 217.942 78.1615 217.942 79.1981C217.942 80.0625 217.221 79.8821 216.215 78.7661C215.061 77.4844 208.374 73.3936 207.433 73.3936C207.039 73.3936 206.718 73.2249 206.718 73.0185C206.718 72.5405 202.275 70.942 200.947 70.942C200.395 70.942 199.807 70.7214 199.641 70.4517C199.475 70.182 197.831 69.9613 195.987 69.9613C193.979 69.9613 192.372 69.7157 191.981 69.3484C190.821 68.2614 188.294 67.0194 187.243 67.0194C186.681 67.0194 186.22 66.8507 186.22 66.6453C186.22 66.0255 181.365 64.9439 176.948 64.5796C172.325 64.1981 165.368 64.7281 164.578 65.5225C164.295 65.8064 163.723 66.0353 163.307 66.0309C162.095 66.0187 157.335 68.6134 155.872 70.0839C155.135 70.8253 154.359 71.4333 154.149 71.4348C153.938 71.4358 153.061 72.1006 152.2 72.9116L150.634 74.386L146.1 72.6674C143.287 71.6015 140.698 70.9479 139.279 70.9454C138.021 70.9435 136.433 70.7282 135.75 70.4674C134.418 69.9584 134.424 69.7005 135.856 66.5291C136.83 64.3721 137.253 58.8129 136.5 58.0568C136.199 57.7547 135.953 57.0193 135.953 56.423C135.953 55.8268 135.319 54.803 134.544 54.1474L133.135 52.9564L133.37 47.607C133.646 41.324 133.017 39.2195 130.34 37.4779C128.696 36.4075 128.644 36.2786 128.638 33.2253C128.63 29.1399 127.523 26.7197 125.048 25.3782C124.016 24.8187 122.45 24.3612 121.567 24.3612C120.324 24.3612 119.578 23.9356 118.268 22.4779C115.976 19.9292 114.516 18.9677 112.935 18.9677C112.008 18.9677 110.843 18.2297 109.064 16.5161C107.664 15.1677 106.333 14.0644 106.107 14.0644C105.88 14.0644 105.693 13.8987 105.692 13.6967C105.69 13.4947 105.014 12.9431 104.188 12.4709C103.023 11.8045 101.548 11.6128 97.5906 11.6128C92.6835 11.6128 92.4775 11.5697 92.0559 10.4556C91.4141 8.76011 88.2966 7.69022 83.9965 7.69022C82.0043 7.69022 80.2587 7.50096 80.1161 7.27001C79.9741 7.03858 78.5476 6.57032 76.9464 6.22906C73.6395 5.52397 69.9743 5.88093 68.1164 7.08908C67.1521 7.71621 65.5167 7.88782 60.3079 7.90891C54.7214 7.93146 53.1631 8.11582 50.0592 9.12099C43.6845 11.1857 39.6158 14.4415 37.4455 19.2128C35.9248 22.5573 35.715 22.8903 35.1313 22.8903C34.3231 22.8903 31.5208 24.5059 31.5169 24.9741C31.5154 25.1762 31.3114 25.3419 31.0635 25.3419C30.4774 25.3419 27.6097 28.223 27.6097 28.8119C27.6097 29.061 27.4247 29.2645 27.1983 29.2645C26.9723 29.2645 26.3686 30.0921 25.8562 31.1032C25.3443 32.1147 24.8099 33.0522 24.6683 33.1871C23.746 34.0657 22.7294 39.4328 22.7294 43.4216C22.7294 46.7548 22.5229 48.2479 21.9378 49.1451C21.3092 50.1086 21.1896 51.2668 21.3565 54.7706C21.4742 57.2502 21.8211 59.4385 22.1476 59.7665C22.4678 60.0882 22.7294 60.8144 22.7294 61.3807C22.7294 61.947 22.9988 62.681 23.3282 63.012C23.7118 63.3974 23.9324 65.2366 23.9421 68.1359C23.9563 72.1845 24.0925 72.8636 25.2442 74.6194C25.9514 75.6981 27.4321 77.453 28.534 78.519C30.2134 80.1434 30.5379 80.7691 30.5379 82.3847C30.5379 85.1138 31.4056 87.6846 32.9068 89.4047C35.6603 92.5594 41.8173 94.8237 45.9495 94.201C47.2242 94.0088 48.1159 94.0951 48.3223 94.4305C48.5263 94.7619 48.212 94.9679 47.5014 94.9679C46.8684 94.9679 46.1418 95.1576 45.8865 95.3895C45.6318 95.6215 43.7758 96.1952 41.7626 96.6639C36.9633 97.7818 34.9775 98.7752 34.6115 100.241C34.4485 100.892 34.7633 103.006 35.3104 104.938C35.8575 106.87 36.4514 109.166 36.631 110.04C36.8106 110.913 37.16 111.754 37.4079 111.908C38.3982 112.522 37.8569 114.556 36.5163 115.257C33.3441 116.914 31.514 119.448 31.514 122.181C31.514 124.592 30.5706 126.054 28.3242 127.125C26.9933 127.76 26.6336 128.221 26.6336 129.294C26.6336 131.183 27.5014 131.363 32.3997 130.491C38.2713 129.446 44.1462 130.185 48.6703 132.539C49.3828 132.91 50.3164 133.213 50.7444 133.213C51.1729 133.213 51.5233 133.408 51.5233 133.646C51.5233 133.884 51.9079 134.209 52.3774 134.367C53.5984 134.779 54.8419 135.686 56.5881 137.439C61.2757 142.143 61.9164 138 57.2796 132.968L55.9244 131.497L57.4041 131.187C58.2176 131.016 59.3167 130.483 59.8462 130.002C60.9238 129.022 63.811 128.817 64.1038 129.699C64.2082 130.014 64.504 130.271 64.7612 130.271C65.5284 130.271 69.0373 134.299 70.8006 137.204C72.7098 140.35 81.3172 150.692 83.2454 152.156C83.648 152.462 84.5119 153.148 85.1648 153.68L86.3527 154.648L84.9369 155.331C83.9633 155.8 83.2127 156.779 82.5334 158.465C81.9902 159.813 81.3445 161.061 81.0986 161.239C80.367 161.765 78.6355 160.713 77.1099 158.816C73.4667 154.286 72.3198 153.768 71.823 156.428C71.5687 157.791 71.2086 158.164 69.6947 158.636C64.3859 160.291 56.3129 161.224 55.7145 160.251C55.5725 160.02 54.2104 159.701 52.6882 159.544C51.1656 159.386 49.6878 159.023 49.4043 158.738C49.1202 158.453 48.396 158.22 47.7942 158.22C47.1925 158.22 46.5766 158.018 46.4253 157.772C46.2735 157.526 45.2736 157.176 44.2028 156.994C43.1321 156.812 42.1321 156.462 41.9803 156.216C41.829 155.97 41.3483 155.768 40.912 155.768C40.4757 155.768 39.1707 155.327 38.0126 154.787C36.854 154.248 34.9585 153.365 33.7999 152.826C32.6418 152.287 31.452 151.845 31.1567 151.845C30.861 151.845 30.5462 151.68 30.4564 151.478C30.2602 151.034 23.9338 147.923 23.2277 147.923C22.9534 147.923 22.7294 147.738 22.7294 147.511C22.7294 147.285 21.8534 146.678 20.7826 146.163C19.7124 145.648 18.8339 145.084 18.8305 144.911C18.8276 144.739 18.2761 144.458 17.605 144.289C16.934 144.12 16.385 143.765 16.385 143.501C16.385 143.236 16.0541 143.02 15.65 143.02C15.2459 143.02 13.5778 141.708 11.9429 140.106C10.308 138.504 8.38757 137.063 7.67504 136.903C5.85175 136.496 3.02653 133.906 3.38377 132.97C3.86399 131.713 6.0982 131.189 9.52907 131.528C12.6417 131.836 12.7706 131.805 13.4289 130.569C13.8033 129.866 14.283 129.291 14.4948 129.291C14.7066 129.291 15.8223 128.383 16.9745 127.273C18.1267 126.164 19.8378 124.676 20.7772 123.967C21.7167 123.257 22.6611 122.4 22.8758 122.061C23.0905 121.722 23.498 121.445 23.7811 121.445C24.0646 121.445 24.9489 120.894 25.7464 120.22C26.5438 119.545 27.6004 118.994 28.0943 118.994C28.5882 118.994 29.0655 118.828 29.1553 118.626C29.2446 118.423 30.1963 117.828 31.2699 117.303C34.9668 115.494 36.2562 113.658 34.8326 112.227C33.8961 111.286 31.1299 111.54 27.1549 112.932C22.8919 114.425 19.5381 116.688 16.4308 120.165C15.7344 120.945 14.9448 121.827 14.6759 122.126C14.4065 122.426 13.7476 123.55 13.2118 124.625C12.6754 125.699 11.978 126.858 11.6613 127.199C10.979 127.935 9.06447 128.031 9.06447 127.329C9.06447 126.592 4.48574 126.74 2.97772 127.526C0.234981 128.956 -0.747428 132.33 0.597102 135.705C1.51509 138.01 3.95086 140.531 5.28221 140.554C5.75219 140.562 6.13627 140.764 6.13627 141.002C6.13627 141.242 7.17968 141.585 8.45443 141.766C11.7633 142.236 12.4807 142.505 12.4807 143.281C12.4807 143.942 15.0839 146.942 15.6578 146.942C15.8125 146.942 16.8056 147.747 17.8647 148.732C18.9232 149.716 20.6157 151.071 21.6254 151.743C22.6352 152.416 23.9007 153.361 24.4375 153.844C26.5385 155.734 39.3625 162.142 41.0438 162.142C41.4391 162.142 41.7626 162.338 41.7626 162.577C41.7626 162.816 42.3663 163.131 43.1047 163.277C45.3141 163.714 48.822 164.8 49.0831 165.129C49.2173 165.297 51.4135 165.696 53.9635 166.015C60.6056 166.845 67.4097 165.949 71.3784 163.721C73.0451 162.786 74.9991 162.965 75.2895 164.08C75.6658 165.527 79.6008 168.026 81.5012 168.026C82.7867 168.026 84.7095 166.346 84.7095 165.222C84.7095 163.742 85.9101 160.927 86.9632 159.936C87.5372 159.396 88.2639 158.453 88.5781 157.839C89.1096 156.802 89.2448 156.772 90.4683 157.414C91.193 157.795 92.6644 158.518 93.7381 159.021C94.8118 159.524 95.7635 160.101 95.8528 160.304C95.9426 160.506 96.352 160.671 96.7634 160.671C97.5882 160.671 102.034 162.037 103.37 162.702C103.836 162.933 105.827 163.123 107.793 163.123C111.537 163.123 114.343 162.132 118.348 159.398C119.298 158.75 120.573 158.22 121.181 158.22C121.79 158.22 122.288 158.027 122.288 157.792C122.288 157.557 123.22 157.214 124.36 157.032C127.87 156.468 133.988 153.191 136.791 150.374C138.192 148.966 139.463 147.418 139.616 146.933C139.988 145.754 141.066 145.398 142.548 145.964C144.858 146.846 161.491 146.56 169.871 145.494C175.25 144.809 180.641 144.494 187.196 144.48C192.431 144.469 198.36 144.228 200.373 143.945C202.386 143.661 210.402 143.352 218.186 143.256C230.488 143.106 232.946 142.947 236.976 142.032C239.526 141.453 242.381 140.873 243.32 140.744C244.26 140.614 245.467 140.317 246.004 140.084C246.541 139.852 247.529 139.561 248.2 139.438C251.152 138.898 255.474 137.522 257.799 136.38C260.317 135.144 264.306 131.514 264.306 130.459C264.306 130.152 264.635 129.626 265.038 129.291C265.44 128.955 265.77 128.2 265.77 127.613C265.77 127.025 265.962 126.335 266.198 126.079C266.869 125.35 267.722 118.411 267.72 113.703C267.718 108.773 266.964 99.2759 266.291 95.7034C265.081 89.2835 264.108 84.8441 263.752 84.119C263.484 83.5737 263.702 82.9853 264.443 82.2567C265.039 81.6708 266.733 80.0189 268.21 78.5861C271.102 75.7785 274.554 71.9629 274.554 71.5735C274.554 71.4416 275.572 70.308 276.817 69.0543C279.235 66.6164 284.871 59.2012 287.224 55.359C289.678 51.3516 290.388 50.9672 295.855 50.6892C298.5 50.5543 302.531 50.0728 304.812 49.6193C307.094 49.1652 309.593 48.673 310.367 48.5254C311.63 48.2841 313.597 46.8441 313.597 46.161C313.597 46.0149 314.072 45.2505 314.652 44.4616C315.535 43.2617 315.738 42.2026 315.892 37.9844C316.059 33.4357 315.978 32.8267 315.066 31.7651C313.456 29.8926 310.138 29.8092 305.455 31.5239C301.829 32.8517 301.218 32.9228 293.099 32.9615C285.307 32.9993 284.378 33.0968 282.501 34.077C280.073 35.345 279.435 36.3639 279.435 38.9724C279.435 41.2794 278.17 43.0852 275.913 44.0026C275.031 44.361 274.2 44.7773 274.066 44.9279C273.665 45.3775 267.712 49.3677 267.442 49.3677C267.169 49.3677 266.872 49.5938 264.241 51.8022C263.266 52.6206 262.323 53.2903 262.145 53.2903C261.968 53.2903 261.23 53.842 260.507 54.5162C259.783 55.1903 259.001 55.742 258.768 55.742C258.536 55.742 257.905 56.3049 257.366 56.9933C256.827 57.6812 256.063 58.1774 255.666 58.0965C255.222 58.0048 254.123 55.5086 252.796 51.5742C250.848 45.8016 249.366 42.1845 248.677 41.5226C247.857 40.7346 246.839 38.586 246.553 37.0366C246.371 36.053 245.781 34.683 245.24 33.9932L244.258 32.7384L245.57 30.6335C246.292 29.4763 247.02 28.4187 247.188 28.2838C247.356 28.149 248.255 27.0458 249.186 25.8322C250.117 24.6187 251.428 23.1845 252.1 22.6451C252.772 22.1057 254.09 20.8069 255.031 19.7591C255.971 18.7112 257.292 17.2687 257.966 16.5533C260.149 14.2346 262.697 10.4287 263.244 8.67087C264.136 5.80247 263.387 3.80686 260.689 1.86027C258.509 0.286821 258.012 0.143157 254.36 0.0279308C252.18 -0.0407145 249.957 0.0215552 249.421 0.166691ZM254.172 5.19104C257.355 5.88779 259.425 7.04545 259.425 8.12955C259.425 8.62723 258.602 9.80597 257.595 10.7489C247.131 20.5544 243.699 24.5593 243.039 27.7381C242.893 28.4427 242.567 29.4023 242.315 29.8705C242.062 30.3388 241.856 31.4111 241.856 32.253C241.856 33.6519 241.748 33.7563 240.602 33.4675C239.912 33.2935 238.01 33.4156 236.374 33.7387C233.439 34.3192 233.387 34.3099 232.284 33.0213C231.669 32.3035 230.988 31.7161 230.772 31.7161C230.161 31.7161 227.71 29.2968 227.647 28.632C227.466 26.7207 228.404 24.6054 230.189 22.8986C231.226 21.9067 233.965 20.4386 234.779 20.4386C235.137 20.4386 235.503 20.2729 235.593 20.0709C235.805 19.5904 238.842 17.9909 239.577 17.9728C240.233 17.9561 243.782 13.0652 244.725 10.8773C246.387 7.02387 247.063 5.9378 248.078 5.49014C248.683 5.22389 249.176 4.81251 249.176 4.57617C249.176 4.15008 249.725 4.21726 254.172 5.19104ZM312.726 35.4298C313.166 36.3992 313.163 36.9096 312.715 37.6299C312.395 38.1452 312.133 38.9106 312.133 39.3298C312.133 41.3279 307.373 43.7217 301.884 44.4846C295.111 45.4255 292.535 45.9953 290.913 46.9107C289.952 47.453 288.788 47.8963 288.326 47.8958C287.085 47.8938 284.558 45.478 283.454 43.2387C281.859 40.0016 281.776 39.3347 282.819 38.1271C283.712 37.0925 283.945 37.0538 286.266 37.5539C289.287 38.205 297.1 38.259 299.165 37.6436C303.659 36.3036 306.135 35.4122 306.995 34.8252C307.524 34.4634 308.902 34.1677 310.056 34.1677C311.836 34.1677 312.24 34.3589 312.726 35.4298ZM242.929 39.4387C244.036 40.7282 245.272 43.4981 245.272 44.6871C245.272 45.2657 245.461 45.9492 245.692 46.2052C245.923 46.4611 246.5 48.3258 246.975 50.3484C247.449 52.371 248.138 55.003 248.506 56.197C248.875 57.3914 249.176 58.9467 249.176 59.6538C249.176 60.3608 249.357 61.1493 249.578 61.4052C249.799 61.6616 250.379 63.1949 250.867 64.813C251.355 66.431 251.935 68.1962 252.156 68.7355C252.929 70.6179 254.437 75.6207 255.036 78.2969C255.369 79.7801 255.82 81.4349 256.039 81.9743C256.859 83.9959 257.961 88.55 257.961 89.9195C257.961 90.7006 258.146 91.5488 258.372 91.8053C258.984 92.4991 260.371 101.308 260.861 107.623C261.314 113.453 260.703 123.518 259.879 123.815C259.629 123.905 259.425 124.217 259.425 124.508C259.425 125.958 254.281 132.723 253.178 132.723C252.922 132.723 252.439 133.054 252.105 133.458C251.77 133.863 250.975 134.194 250.337 134.194C249.699 134.194 249.176 134.381 249.176 134.61C249.176 134.839 247.255 135.311 244.906 135.66C242.558 136.009 239.538 136.487 238.196 136.721C236.854 136.956 227.081 137.468 216.478 137.858C205.876 138.249 196.561 138.633 195.779 138.71C193.823 138.905 193.627 137.988 193.062 125.998C192.625 116.7 192.008 112.741 190.577 110.052C190.329 109.584 190.125 108.885 190.125 108.499C190.125 108.112 189.576 106.698 188.904 105.356C188.233 104.014 187.684 102.562 187.684 102.129C187.684 101.696 187.464 101.342 187.195 101.342C186.926 101.342 186.325 100.459 185.86 99.3808C185.395 98.3021 184.852 97.4195 184.654 97.4195C184.456 97.4195 183.972 96.813 183.581 96.0711C182.728 94.4589 181.12 92.7148 178.947 91.0453C178.07 90.3711 177.057 89.5439 176.696 89.2066C176.336 88.8697 175.824 88.5937 175.559 88.5937C175.294 88.5937 175.004 88.4142 174.914 88.1945C174.737 87.7606 162.827 80.3381 160.843 79.4246C160.172 79.1162 158.58 78.4851 157.304 78.0233C156.029 77.5609 154.986 76.9205 154.986 76.5993C154.986 75.0911 161.091 71.6319 164.747 71.069C165.686 70.9243 166.675 70.638 166.943 70.4325C167.455 70.0403 173.783 69.8 180.922 69.9015C184.147 69.9471 185.205 70.1315 185.416 70.6836C185.597 71.1592 185.157 71.6672 184.126 72.1707C181.95 73.2338 180.091 74.9671 179.759 76.2419C179.533 77.1078 179.688 77.3162 180.556 77.3162C181.148 77.3162 181.875 77.0725 182.172 76.7744C182.967 75.9762 193.223 75.9629 196.713 76.7558C201.631 77.8732 206.316 79.7997 210.378 82.3739C213.727 84.496 213.391 84.2121 221.054 91.413C221.7 92.02 222.454 92.5163 222.73 92.5163C223.006 92.5163 223.853 92.8266 224.613 93.2061C225.373 93.5861 226.544 94.1069 227.215 94.3643C227.886 94.6217 229.266 95.1934 230.282 95.6352C231.297 96.0775 232.56 96.4388 233.088 96.4388C233.616 96.4388 234.047 96.6595 234.047 96.9292C234.047 97.1988 234.583 97.4195 235.239 97.4195C235.894 97.4195 236.554 97.621 236.705 97.8671C236.857 98.1133 237.913 98.4619 239.052 98.6419C240.192 98.8218 241.83 99.2136 242.692 99.5122C244.4 100.104 246.736 99.3023 246.736 98.126C246.736 97.4548 243.031 95.5719 240.846 95.1326C239.958 94.9541 239.07 94.2692 238.491 93.3135C236.567 90.1446 235.512 88.0523 235.512 87.409C235.512 87.0433 235.184 86.1126 234.782 85.3399C233.875 83.5909 233.783 73.8163 234.614 67.3107C235.048 63.9078 235.043 61.8485 234.593 58.4515C233.268 48.4616 233.097 47.0255 232.873 43.9575C232.745 42.1953 232.829 40.4453 233.061 40.0688C233.324 39.6417 234.825 39.2607 237.059 39.0543C239.026 38.8729 240.986 38.6919 241.414 38.6527C241.842 38.613 242.524 38.9665 242.929 39.4387ZM283.106 48.2336L285.267 50.5323L283.957 52.2788C283.237 53.2398 282.474 54.0994 282.261 54.1891C282.048 54.2793 281.875 54.6471 281.875 55.0065C281.875 55.3659 281.696 55.7336 281.476 55.8238C281.258 55.9136 280.019 57.3032 278.723 58.9114C277.427 60.5202 276.079 62.125 275.727 62.4785C274.205 64.0083 271.626 67.4092 271.626 67.8873C271.626 68.1741 271.448 68.482 271.231 68.5723C271.014 68.662 269.861 70.0594 268.669 71.6775C267.477 73.2956 266.337 74.693 266.136 74.7827C265.934 74.8729 265.77 75.2431 265.77 75.606C265.77 75.9688 265.495 76.5665 265.16 76.9342C264.824 77.302 264.314 78.0218 264.027 78.5337C263.132 80.1253 262.425 79.9179 262.074 77.9605C261.889 76.9318 261.587 75.8698 261.403 75.6001C261.219 75.3304 260.666 73.7859 260.175 72.1678C259.155 68.8037 257.887 65.8696 257.351 65.6303C257.149 65.5401 256.985 64.8272 256.985 64.0461C256.985 62.9394 257.255 62.557 258.205 62.3177C258.876 62.1485 259.425 61.8386 259.425 61.6298C259.425 61.4209 259.81 61.1203 260.279 60.9619C261.037 60.706 261.75 60.2931 263.547 59.0688C263.83 58.8756 264.859 58.0484 265.834 57.2301C266.809 56.4117 267.814 55.742 268.067 55.742C268.321 55.742 269.043 55.1903 269.674 54.5162C270.304 53.842 271.093 53.2903 271.426 53.2903C271.76 53.2903 272.106 53.1246 272.196 52.9226C272.285 52.7206 273.566 51.5644 275.042 50.3543C276.519 49.1437 278.166 47.6585 278.702 47.0534C279.239 46.4484 279.964 45.9492 280.312 45.9443C280.66 45.9394 281.918 46.9696 283.106 48.2336ZM91.8031 75.6565C92.6196 76.1939 93.0061 76.9009 93.0061 77.8575C93.0061 79.3001 91.7406 81.2388 90.7992 81.2388C89.5859 81.2388 89.1228 82.3445 89.7904 83.6468C91.6059 87.1869 92.0139 90.9354 90.8783 93.6352C90.5127 94.503 88.2492 97.1101 85.8476 99.4288C82.0566 103.089 81.1947 103.686 79.3129 103.96C78.1206 104.134 76.3969 104.418 75.4818 104.592C73.7595 104.919 65.8041 103.922 64.9442 103.271C64.6758 103.067 63.6304 102.746 62.6207 102.556C61.6109 102.367 60.6646 102.016 60.5177 101.777C60.3708 101.538 59.5246 101.342 58.6374 101.342C57.1108 101.342 57.0088 101.231 56.7335 99.2582C56.3519 96.5256 55.4324 94.6492 54.1299 93.947C52.9532 93.3125 52.7312 92.1407 52.2002 83.7581L51.8786 78.6778L54.0191 78.9274C63.6656 80.0532 67.2931 80.3199 69.8304 80.091C73.4486 79.7649 77.1855 78.9156 79.0147 78.0046C79.7745 77.6261 80.8048 77.3162 81.304 77.3162C81.8033 77.3162 82.3606 77.0745 82.5422 76.7788C82.7242 76.4832 83.506 76.3346 84.28 76.4488C85.2224 76.5876 85.9535 76.3606 86.4942 75.7604C87.5025 74.6405 90.1804 74.5881 91.8031 75.6565ZM134.489 76.2924C134.489 76.5386 135.414 76.8965 136.544 77.0887C137.675 77.2804 138.937 77.6079 139.351 77.8168C139.764 78.0257 141.089 78.5989 142.297 79.0912C143.505 79.5835 144.603 80.1022 144.738 80.2444C145.264 80.8014 148.27 82.2195 148.925 82.2195C149.306 82.2195 149.618 82.3965 149.618 82.6127C149.618 82.8294 150.771 83.4134 152.18 83.9116C153.589 84.4092 154.962 84.979 155.23 85.1776C155.499 85.3762 156.432 85.6919 157.304 85.8792C158.177 86.0665 158.89 86.423 158.89 86.6711C158.89 86.9197 159.439 87.1227 160.111 87.1227C160.782 87.1227 161.331 87.3193 161.331 87.5601C161.331 87.8003 161.874 88.1342 162.538 88.3014C163.202 88.4691 164.551 89.1546 165.535 89.8258C166.518 90.4966 167.598 91.0453 167.935 91.0453C168.271 91.0453 168.673 91.3762 168.828 91.7808C168.982 92.1853 169.435 92.5163 169.834 92.5163C170.232 92.5163 171.084 93.0125 171.727 93.6195C173.128 94.9429 175.93 97.1067 176.552 97.3464C177.251 97.6156 181.34 101.893 181.34 102.355C181.34 102.583 181.863 103.294 182.501 103.935C183.14 104.577 183.829 105.635 184.031 106.287C184.234 106.938 184.571 107.582 184.78 107.719C184.988 107.855 185.529 110.392 185.982 113.357C186.434 116.322 186.991 119.19 187.219 119.729C188.666 123.143 189.745 137.391 188.684 139.075C188.303 139.68 187.874 139.696 185.853 139.175C182.852 138.403 165.059 138.317 161.386 139.057C159.94 139.349 156.152 139.587 152.968 139.587C149.433 139.587 147.178 139.779 147.178 140.078C147.178 140.347 146.629 140.568 145.958 140.568C145.198 140.568 144.738 140.29 144.738 139.833C144.738 139.428 144.909 139.097 145.118 139.097C145.328 139.097 145.925 137.994 146.446 136.645C146.966 135.297 147.564 134.194 147.773 134.194C147.982 134.194 148.154 133.779 148.154 133.273C148.154 132.766 148.483 131.56 148.886 130.592C149.288 129.624 149.618 127.955 149.618 126.884C149.618 125.812 149.837 124.799 150.106 124.632C150.727 124.247 150.76 110.469 150.143 109.303C149.896 108.835 149.324 106.576 148.873 104.284C148.285 101.293 147.736 99.8108 146.927 99.0331C145.003 97.1851 144.571 98.46 144.981 104.767C145.174 107.737 145.528 110.168 145.767 110.168C146.006 110.168 146.202 111.381 146.202 112.865C146.202 114.348 146.06 115.561 145.887 115.561C145.714 115.561 143.902 114.753 141.861 113.764C139.706 112.722 137.125 111.872 135.709 111.741C134.367 111.617 132.988 111.29 132.646 111.015C132.261 110.708 127.736 110.524 120.853 110.538L109.684 110.561L110.216 109.027C110.508 108.184 111.037 106.938 111.391 106.257C111.744 105.577 112.034 103.751 112.036 102.2C112.039 99.5191 111.98 99.3808 110.819 99.3808C110.148 99.3808 109.599 99.6014 109.599 99.8711C109.599 100.141 109.364 100.361 109.076 100.361C108.789 100.361 108.24 100.677 107.856 101.062C107.473 101.447 107.159 101.999 107.159 102.288C107.159 102.577 106.963 102.813 106.724 102.813C106.485 102.813 106.151 103.365 105.982 104.039C105.814 104.713 105.461 105.265 105.198 105.265C104.934 105.265 104.719 105.772 104.719 106.392C104.719 107.013 104.471 107.769 104.168 108.073C103.865 108.378 103.507 110.187 103.37 112.094C103.235 114.001 102.934 115.561 102.701 115.561C102.469 115.561 102.272 115.948 102.263 116.42C102.255 116.891 101.925 117.706 101.531 118.229C101.137 118.753 100.815 119.69 100.815 120.313C100.815 120.936 100.638 121.445 100.423 121.445C99.9127 121.445 98.3691 125.782 98.372 127.207C98.3754 128.735 97.3159 128.585 95.7674 126.839C95.0495 126.03 94.2301 125.368 93.9455 125.368C93.661 125.368 92.7035 124.596 91.8177 123.652C90.9314 122.708 89.9964 121.936 89.7392 121.936C89.4825 121.936 88.767 121.395 88.1497 120.735C87.5323 120.075 86.3957 119.396 85.6241 119.225C84.8525 119.055 84.2215 118.748 84.2215 118.542C84.2215 118.336 83.3982 117.747 82.3914 117.232C81.385 116.718 80.4514 116.187 80.3172 116.052C79.7365 115.468 76.2968 114.09 75.4203 114.09C74.8927 114.09 74.4608 113.901 74.4608 113.67C74.4608 113.439 73.1978 113.098 71.6546 112.913C63.0131 111.875 61.159 111.424 60.1981 110.125C59.6822 109.428 59.1342 107.911 58.9799 106.756L58.6993 104.655L59.8931 105.698C61.4235 107.034 64.6636 108.697 65.7387 108.697C66.1965 108.697 66.6606 108.967 66.7699 109.297C66.9139 109.731 68.7796 109.897 73.4848 109.897C78.1899 109.897 80.0556 109.731 80.1996 109.297C80.3089 108.967 80.8272 108.697 81.3514 108.697C82.344 108.697 84.2786 107.604 85.8998 106.127C86.4201 105.653 87.0238 105.265 87.2419 105.265C87.4596 105.265 87.6465 104.989 87.6577 104.652C87.6685 104.315 88.3273 103.275 89.1218 102.341C89.9158 101.408 90.5659 100.249 90.5659 99.7672C90.5659 99.2847 90.7855 98.8905 91.0539 98.8905C91.3224 98.8905 91.542 98.5673 91.542 98.1721C91.542 96.8644 93.3862 96.2952 95.7142 96.8841C98.2783 97.5328 101.808 97.5774 103.345 96.9811C104.839 96.4011 106.696 94.7369 107.374 93.3709C107.869 92.3741 108.281 92.2686 111.777 92.2456C114.32 92.2284 115.702 92.0196 115.83 91.6327C115.937 91.3096 116.336 91.0453 116.716 91.0453C117.629 91.0453 119.36 89.2796 119.36 88.3485C119.36 87.944 119.554 87.613 119.791 87.613C120.028 87.613 120.337 87.1717 120.477 86.6324C120.7 85.7767 121.143 85.6517 123.95 85.6517C125.77 85.6517 127.168 85.4389 127.168 85.1614C127.168 84.8917 127.51 84.6711 127.928 84.6711C128.958 84.6711 131.536 81.7718 131.852 80.2582C131.993 79.584 132.314 78.6494 132.566 78.1811C132.818 77.7129 133.025 76.9955 133.025 76.5876C133.025 76.1792 133.354 75.8452 133.757 75.8452C134.159 75.8452 134.489 76.0463 134.489 76.2924ZM87.6323 78.5518C87.1638 79.4315 87.1253 79.9394 87.4976 80.3136C88.525 81.3457 91.071 79.024 90.2946 77.7624C89.7607 76.894 88.2819 77.3329 87.6323 78.5518ZM228.862 78.8485C229.03 79.6913 229.167 81.002 229.167 81.7615C229.167 82.521 229.387 83.2785 229.655 83.4453C229.924 83.612 230.143 84.2867 230.143 84.9452C230.143 85.6037 230.345 86.142 230.593 86.142C230.84 86.142 231.187 86.804 231.363 87.613C231.54 88.422 231.832 89.0909 232.012 89.0992C232.192 89.108 232.744 89.6733 233.239 90.3559L234.139 91.5974L232.263 91.2507C231.232 91.06 230.277 90.754 230.143 90.5706C230.009 90.3873 228.857 89.8126 227.583 89.2929C226.309 88.7736 225.266 88.1828 225.265 87.9808C225.264 87.7787 224.967 87.613 224.606 87.613C223.886 87.613 221.847 85.9964 221.847 85.4262C221.847 85.231 221.406 84.5083 220.868 83.8208C219.774 82.4239 220.251 81.2388 221.906 81.2388C222.41 81.2388 222.823 81.0285 222.823 80.7715C222.823 80.5146 223.647 79.9198 224.653 79.4496C225.66 78.9794 226.659 78.3072 226.873 77.9556C227.562 76.8279 228.548 77.2706 228.862 78.8485ZM60.8935 83.2982C60.0727 84.1229 60.1644 85.4855 61.1619 87.2909C62.1419 89.0644 63.1853 90.0264 64.1521 90.0489C65.2931 90.0754 64.5787 85.3717 63.221 83.9194C61.933 82.5421 61.7066 82.4813 60.8935 83.2982ZM53.5613 85.2712C52.7678 86.0685 52.9005 87.5865 53.9166 89.3291C55.6394 92.2829 57.6056 90.7682 56.2567 87.5262C55.3558 85.361 54.328 84.5009 53.5613 85.2712ZM58.5515 90.8183C58.1859 92.2814 58.6212 94.8433 59.3943 95.7794C60.1688 96.7169 62.7661 96.6011 63.4972 95.597C64.0018 94.9036 63.9681 94.6472 63.3069 94.1417C62.8652 93.8043 62.1239 93.5209 61.6592 93.5126C61.1405 93.5028 60.7012 92.9767 60.5207 92.1485C60.038 89.9357 59.8745 89.5743 59.3562 89.5743C59.0849 89.5743 58.7228 90.1343 58.5515 90.8183ZM67.2462 98.0324C66.7314 98.662 66.4927 99.6495 66.5947 100.729C66.6596 101.418 68.1164 101.587 68.1164 100.905C68.1164 100.664 68.6654 100.329 69.3365 100.16C70.2276 99.9353 70.5566 99.5245 70.5566 98.636C70.5566 97.6225 70.3218 97.4195 69.152 97.4195C68.3799 97.4195 67.5225 97.6955 67.2462 98.0324ZM54.0118 100.116C54.1914 100.925 54.7214 102.911 55.1889 104.529C55.6569 106.147 56.2704 108.721 56.552 110.25C57.0561 112.985 57.0395 113.056 55.5139 114.802C54.0577 116.469 53.9635 116.807 53.9635 120.373C53.9635 122.726 54.2109 124.537 54.614 125.136C55.0088 125.723 55.1806 126.923 55.0508 128.187C54.8278 130.362 54.452 130.718 53.5423 129.617C53.2446 129.256 52.1197 128.669 51.0421 128.312C49.9645 127.955 49.0831 127.477 49.0831 127.251C49.0831 127.024 48.5834 126.839 47.9729 126.839C46.9661 126.839 46.8074 126.488 46.2643 123.058C45.8934 120.717 45.3873 119.121 44.9344 118.866C44.5317 118.64 44.2028 117.948 44.2028 117.328C44.2028 115.875 42.6577 114.09 41.3991 114.09C40.8598 114.09 40.198 113.815 39.9286 113.478C39.4177 112.837 37.8491 105.606 37.8711 103.99C37.8857 102.913 40.8681 101.342 42.8988 101.342C43.6157 101.342 44.2028 101.121 44.2028 100.852C44.2028 100.582 44.5957 100.361 45.0754 100.361C45.5556 100.361 47.1481 99.9231 48.6137 99.3876C52.2412 98.0623 53.596 98.2452 54.0118 100.116ZM39.915 103.395C39.1849 104.128 39.1653 105.156 39.8447 107.114C40.3957 108.701 41.6289 109.518 42.3629 108.78C42.6035 108.539 42.8202 107.633 42.8446 106.767C42.9007 104.795 40.8593 102.446 39.915 103.395ZM126.802 116.14C130.493 116.467 133.513 116.884 133.513 117.065C133.513 117.247 134.824 117.545 136.426 117.727C138.029 117.91 139.469 118.269 139.627 118.526C139.785 118.783 140.396 118.999 140.984 119.005C141.572 119.01 143.015 119.454 144.19 119.989L146.327 120.963L145.987 124.024C145.799 125.707 145.442 127.294 145.192 127.55C144.942 127.806 144.738 128.516 144.738 129.127C144.738 132.029 139.222 142.32 135.221 146.884C133.553 148.787 129.054 151.845 127.924 151.845C127.509 151.845 127.168 152.022 127.168 152.237C127.168 152.701 124.932 153.552 121.038 154.571C119.493 154.975 117.549 155.608 116.72 155.976C113.411 157.446 109.32 157.904 105.445 157.238C103.435 156.892 101.791 156.421 101.791 156.189C101.791 155.957 101.516 155.771 101.181 155.774C100.252 155.783 89.5898 150.305 89.5898 149.819C89.5898 149.585 89.3683 149.394 89.0974 149.394C87.8837 149.394 79.3412 140.825 79.3412 139.608C79.3412 139.327 79.1508 139.097 78.918 139.097C78.6852 139.097 77.9361 138.27 77.2529 137.258C75.6609 134.901 70.7059 129.745 68.9875 128.658C68.2418 128.186 66.6953 127.82 65.4493 127.82C64.2322 127.82 63.2361 127.601 63.2361 127.335C63.2361 127.068 62.3576 126.709 61.284 126.537C60.2103 126.364 59.3318 126.031 59.3318 125.796C59.3318 125.56 59.5671 125.368 59.8545 125.368C60.5055 125.368 61.772 124.13 61.772 123.494C61.772 122.865 60.5529 122.426 58.8038 122.426C56.8751 122.426 57.0103 121.774 59.1112 120.946C61.7481 119.906 62.1297 119.145 60.2093 118.756C56.7965 118.065 56.7096 118.013 57.712 117.25C58.7003 116.497 65.4449 116.26 65.8773 116.962C66.0193 117.194 67.2233 117.512 68.5527 117.67C69.8826 117.829 71.3711 118.169 71.8616 118.427C72.3516 118.685 74.0157 119.295 75.5589 119.782C77.1021 120.269 78.3651 120.843 78.3651 121.057C78.3651 121.27 78.7775 121.445 79.2816 121.445C79.7853 121.445 80.471 121.776 80.8053 122.181C81.1396 122.585 81.6398 122.916 81.917 122.916C82.1942 122.916 83.141 123.468 84.0209 124.142C84.9008 124.816 85.7754 125.368 85.9647 125.368C86.3981 125.368 92.1964 130.221 94.4702 132.486C95.8899 133.901 96.535 134.189 98.29 134.191C99.9752 134.193 100.69 133.904 101.828 132.761C102.613 131.972 103.255 131.018 103.255 130.64C103.255 130.262 104.096 128.315 105.125 126.312C106.153 124.31 107.374 121.678 107.837 120.465C109.268 116.717 109.749 116.33 113.401 116.006C118.925 115.516 119.872 115.526 126.802 116.14ZM41.2746 118.048C41.2746 118.337 40.9452 118.905 40.5426 119.309C40.1399 119.714 39.8105 120.36 39.8105 120.745C39.8105 121.572 41.809 121.693 42.586 120.912C43.5728 119.921 43.7021 121.274 42.7216 122.331C41.5757 123.567 41.5103 124.185 42.4864 124.561C42.9207 124.729 43.0877 125.161 42.9042 125.642C42.6665 126.264 42.2595 126.362 41.0823 126.08C40.2488 125.881 38.3586 125.584 36.8823 125.42C34.6061 125.168 34.1752 124.96 34.0464 124.053C33.7755 122.139 35.2313 120.193 37.954 118.83C40.8354 117.389 41.2746 117.285 41.2746 118.048Z" fill="black"/>
</svg>
