<svg width="290" height="208" viewBox="0 0 290 208" fill="none" xmlns="http://www.w3.org/2000/svg">
<path d="M123.476 107.462L146.772 119.942C150.1 118 157.089 113.785 158.42 112.454C160.084 110.79 165.076 102.47 167.572 99.1418C170.068 95.8138 168.404 87.4938 168.404 86.6618C168.404 85.9962 164.522 81.3925 162.58 79.1738L154.26 80.0058L140.948 80.8378H127.636L120.148 92.4858L123.476 107.462Z" fill="#7F30FF"/>
<path fill-rule="evenodd" clip-rule="evenodd" d="M157.014 1.34657C152.331 2.95792 149.761 4.79098 145.092 9.84932L141.523 13.7145L139.501 12.6629C136.859 11.2887 135.617 11.3385 133.033 12.9227C128.71 15.5741 127.416 21.9807 130.12 27.3525C131.861 30.8124 132.932 31.6475 135.628 31.6475C141.083 31.6475 142.598 28.7706 137.408 28.269C133.885 27.9284 132.163 26.7462 130.969 23.8448C129.498 20.273 132.688 16.1351 136.912 16.1351C137.731 16.1351 139.465 16.8622 140.766 17.751C142.066 18.6397 143.303 19.3668 143.514 19.3668C143.725 19.3668 143.707 18.3372 143.472 17.0788C142.962 14.346 143.596 13.498 149.567 8.93215C155.721 4.22671 163.129 2.45636 170.842 3.8486C178.505 5.23243 183.857 8.77573 185.972 13.867C188.386 19.6797 188.219 30.3535 185.618 36.501C183.282 42.0241 178.547 48.4527 176.815 48.4527C176.351 48.4527 175.972 48.7287 175.972 49.0661C175.972 50.1371 168.105 53.4399 163.574 54.2718C158.012 55.2924 154.802 54.7591 149.763 51.9759C147.541 50.7491 145.445 49.7454 145.104 49.7454C143.997 49.7454 144.446 51.5403 146.023 53.4257C148.468 56.3485 153.219 58.4336 157.336 58.391C161.359 58.3489 169.889 55.6453 173.548 53.2518C176.426 51.369 176.384 51.3735 176.783 52.9086C176.972 53.6377 177.923 54.3144 179.132 54.5814C181.438 55.0907 181.412 55.6265 178.837 60.7333C176.54 65.2914 173.054 68.9013 169.164 70.7524C164.818 72.8201 157.443 74.3067 151.528 74.3067C148.01 74.3067 146.982 74.5355 146.451 75.4378C145.831 76.4901 145.705 76.4707 144.651 75.1573C143.903 74.224 141.449 73.1556 137.414 72.0051C130.225 69.9555 127.435 68.6253 125.084 66.1252C122.872 63.7712 117.493 53.9996 117.493 52.334C117.493 50.9443 118.206 50.6974 124.08 50.0563C126.112 49.8339 127.775 49.3879 127.775 49.0648C127.775 45.9972 104.133 48.4727 83.9608 53.6532C57.6139 60.4192 31.7779 75.7797 18.3001 92.6902C16.5843 94.8439 13.7979 99.5144 12.1084 103.069C7.44749 112.876 5.81523 122.641 6.9938 133.668C9.05084 152.924 16.8247 161.652 37.6431 168.081C47.0736 170.992 53.3912 171.444 60.1298 169.688C62.332 169.114 64.8344 168.821 65.6904 169.037C66.6074 169.269 67.8663 169.03 68.7538 168.456C69.5821 167.92 71.9952 166.984 74.1158 166.375C76.2365 165.766 79.7863 164.434 82.004 163.416C84.2217 162.397 86.3193 161.564 86.6656 161.564C87.0114 161.564 88.3519 160.994 89.6442 160.297C90.9365 159.601 92.2083 159.164 92.4705 159.326C92.7326 159.489 93.1446 161.441 93.3862 163.663C94.4575 173.508 98.0491 188.713 100.754 194.851C101.38 196.273 102.238 198.508 102.661 199.818C103.835 203.468 107.712 207.442 110.529 207.883C112.753 208.232 113.111 208.021 116.956 204.097C122.055 198.893 125.922 196.591 130.928 195.781C137.296 194.749 144.911 196.483 166.011 203.77C174.616 206.742 176.236 207.1 181.113 207.115C187.52 207.135 188.507 206.654 196.767 199.498C202.005 194.96 205.965 192.63 208.482 192.603C209.221 192.596 212.113 193.179 214.908 193.899C221.266 195.538 231.191 195.752 234.591 194.323C238.642 192.62 240.509 187.82 236.847 188.525C235.567 188.77 234.868 188.253 232.971 185.654C231.698 183.909 229.269 181.343 227.573 179.951C224.069 177.073 215.188 167.953 215.178 167.221C215.175 166.955 214.133 165.283 212.862 163.505C210.909 160.77 210.735 160.271 211.738 160.268C214.036 160.26 225.818 162.975 229.24 164.3C235.055 166.551 249.528 165.862 259.191 162.874C274.265 158.213 283.953 149.433 288.089 136.683C289.634 131.919 289.732 130.961 289.343 124.402C288.726 113.999 285.531 105.642 278.097 94.99C273.656 88.6266 261.81 76.7913 255.305 72.2197C243.456 63.8914 227.425 56.7809 215.69 54.6473C208.12 53.2712 182.544 50.85 179.667 51.2371C178.342 51.4155 177.257 51.4117 177.257 51.2287C177.257 51.0458 178.752 49.2554 180.579 47.2504C184.226 43.2495 187.365 37.0058 189.154 30.1939C190.488 25.1149 190.194 17.8486 188.441 12.5802C187.214 8.89466 182.924 4.28747 180.044 3.56549C179.041 3.31406 177.353 2.71296 176.293 2.23013C170.556 -0.383713 163.043 -0.728218 157.014 1.34657ZM134.226 19.6603C133.049 21.0868 134.874 23.0291 138.251 23.9437C141.091 24.7128 142.014 24.0981 141.425 21.8314C140.872 19.7036 135.521 18.091 134.226 19.6603ZM161.388 24.3082C160.797 25.8582 162.905 27.1231 166.081 27.1231C169.394 27.1231 170.831 26.6202 170.831 25.4607C170.831 24.0872 168.641 23.245 165.069 23.245C162.622 23.245 161.691 23.5138 161.388 24.3082ZM178.892 27.931C179.367 29.51 182.303 32.9402 183.181 32.9402C184.472 32.9402 184.356 30.8015 182.954 28.7299C181.126 26.0314 178.146 25.4445 178.892 27.931ZM138.072 34.2032C133.534 43.1493 130.642 57.6541 132.859 60.3417C134.233 62.0073 134.844 61.5574 134.844 58.879C134.844 54.6602 136.686 45.4685 138.707 39.6015C139.763 36.5352 140.627 33.4909 140.627 32.8368C140.627 30.8622 139.446 31.4937 138.072 34.2032ZM155.43 34.8366C154.413 36.7485 154.637 40.4747 155.841 41.686C157.966 43.8235 163.726 41.4378 164.605 38.0561C165.091 36.1869 163.852 35.8624 161.866 37.3386C160.11 38.6436 159.108 38.9823 157.44 38.8337C156.798 38.7768 156.69 38.102 157.014 36.172C157.483 33.383 156.6 32.639 155.43 34.8366ZM232.309 35.9567C231.362 36.9082 232.067 37.3354 236.282 38.3657C238.703 38.9578 242.968 40.3371 245.761 41.4313C253.15 44.3276 254.372 44.6418 254.372 43.6464C254.372 42.5896 247.392 39.4393 240.141 37.2236C234.345 35.452 233.023 35.238 232.309 35.9567ZM170.459 39.4567C170.078 39.9609 169.011 41.7054 168.087 43.3336C165.701 47.5361 164.757 48.2148 162.777 47.149C161.906 46.6797 161.001 46.489 160.767 46.7256C160.014 47.4818 161.761 50.3859 163.428 51.1499C164.767 51.7633 165.263 51.6883 166.341 50.7071C168.515 48.728 171.546 42.4952 171.34 40.4263C171.191 38.9261 171.011 38.7277 170.459 39.4567ZM173.791 40.4263C172.592 43.5682 174.89 47.5161 177.101 46.1135C179.051 44.8764 180.669 42.1494 180.189 40.9085C179.765 39.8129 179.642 39.8381 178.496 41.251C177.079 42.9988 175.329 42.7034 175.329 40.7165C175.329 39.1594 174.346 38.9733 173.791 40.4263ZM226.895 46.0011C225.823 47.3009 226.718 48.2264 229.872 49.079C236.433 50.8519 253.678 59.4549 266.969 67.584C277.739 74.171 280.077 75.211 280.077 73.4128C280.077 72.5609 270.739 65.8214 260.554 59.3224C247.219 50.8125 228.905 43.565 226.895 46.0011ZM153.48 49.3996C153.48 50.8797 153.861 51.8363 154.604 52.2209C155.942 52.9125 157.344 52.524 157.315 51.4692C157.294 50.6826 154.446 47.16 153.832 47.16C153.639 47.16 153.48 48.1676 153.48 49.3996ZM22.3846 53.3617C10.6362 57.5843 4.25366 61.5006 6.09863 63.3556C6.67056 63.9302 7.35624 63.6568 17.565 58.7872C21.0994 57.1008 25.6543 55.07 27.6863 54.2744C31.3827 52.8265 32.693 50.9792 29.9355 51.1027C29.1405 51.1383 25.7423 52.155 22.3846 53.3617ZM28.1297 64.435C26.5604 65.3625 24.5214 66.7276 23.5986 67.467C22.6757 68.2071 21.262 69.249 20.4568 69.7823C13.1733 74.606 3.07573 84.1384 1.07781 88.0772C0.384419 89.4449 -0.0936932 91.3387 0.0155528 92.2863C0.373494 95.3939 2.07259 94.6228 5.87628 89.6272C10.64 83.3724 14.918 79.3657 27.0437 69.8042C30.1713 67.3384 32.024 65.4155 32.024 64.636C32.024 62.6705 31.186 62.6271 28.1297 64.435ZM113.887 77.2605C114.098 77.8145 113.845 78.1848 113.254 78.1848C111.705 78.1848 109.781 76.9374 109.781 75.9336C109.781 75.2051 110.161 75.1534 111.658 75.6783C112.69 76.0402 113.693 76.7519 113.887 77.2605ZM189.467 78.148C189.467 79.1195 186.747 80.7702 185.146 80.7702C183.561 80.7702 183.219 79.5564 184.454 78.3141C185.364 77.3995 189.467 77.2631 189.467 78.148ZM91.3934 86.4678C91.5714 86.7574 91.3125 88.4301 90.8176 90.1843C89.6352 94.3818 87.9323 111.496 87.9323 119.19C87.9323 125.197 87.9065 125.299 86.0352 126.639C84.9922 127.386 82.4622 128.742 80.4123 129.654C78.3629 130.564 73.6821 132.763 70.0101 134.54C61.4067 138.701 52.7075 141.044 45.5191 141.135C40.6384 141.197 39.7342 141.013 37.0249 139.412C34.5739 137.963 33.86 137.12 33.2951 135.011C31.8723 129.698 34.8149 123.795 43.2975 114.944C56.1057 101.581 68.4016 93.431 84.0765 87.9156C89.97 85.8415 90.896 85.6586 91.3934 86.4678ZM158.783 86.7128C160.923 87.3572 161.545 87.957 162.568 90.3582C163.616 92.8156 163.698 93.7541 163.133 96.8256C161.932 103.358 157.698 109.29 151.713 112.823C150.211 113.71 148.981 114.692 148.981 115.007C148.981 115.632 145.355 117.616 144.224 117.607C143.836 117.605 140.838 116.063 137.56 114.181C132.791 111.443 131.041 110.008 128.802 106.996C125.496 102.552 124.307 99.0639 124.898 95.5478C126.22 87.6804 136.809 84.2909 141.465 90.2451C143.074 92.3024 144.342 92.1493 147.027 89.5742C150.612 86.1343 154.071 85.2928 158.783 86.7128ZM187.378 92.8887C187.73 93.9506 185.716 94.7082 184.853 93.8395C184.483 93.4678 184.385 92.8311 184.634 92.4252C185.202 91.501 187.021 91.8086 187.378 92.8887ZM211.966 93.0781C221.622 94.7082 223.755 95.4075 233.718 100.207C243.873 105.1 249.405 108.82 254.212 113.988C259.202 119.354 259.625 120.963 256.817 123.901C254.043 126.806 250.134 129.089 245.191 130.692C241.881 131.765 239.494 131.983 231.237 131.963C225.056 131.947 219.421 131.568 216.387 130.964C209.208 129.534 200.643 126.775 199.65 125.572C198.273 123.903 198.615 111.608 200.312 101.792C201.67 93.9319 202.39 91.7582 203.633 91.7582C203.916 91.7582 207.665 92.3522 211.966 93.0781ZM109.781 93.6973C109.781 94.6972 109.353 94.99 107.892 94.99C105.916 94.99 104.928 94.1523 105.604 93.0509C105.823 92.6954 106.852 92.4046 107.892 92.4046C109.353 92.4046 109.781 92.6973 109.781 93.6973ZM111.261 108.17C111.432 108.945 109.312 110.246 108.769 109.7C108.028 108.954 109.084 107.165 110.135 107.384C110.685 107.499 111.191 107.853 111.261 108.17ZM173.915 109.468C175.992 110.55 182.652 117.643 185.136 121.417C187.346 124.775 191.244 127.295 198.746 130.215C204.755 132.555 218.553 135.71 222.773 135.71C227.914 135.71 229.86 139.612 230.418 151.047C230.836 159.599 230.823 159.614 224.7 158.021C222.464 157.44 217.982 156.41 214.741 155.734C202.657 153.213 186.919 146.867 179.905 141.686C176.32 139.038 169.466 132.462 167.109 129.408C165.942 127.897 164.584 126.661 164.09 126.661C162.639 126.661 159.74 123.79 159.994 122.605C160.198 121.651 160.697 121.755 164.013 123.442C168.326 125.637 170.479 125.868 171.418 124.237C171.957 123.303 171.376 122.461 168.076 119.386C164.426 115.985 164.249 115.701 166.011 116.086C167.071 116.316 169.594 117.336 171.615 118.352C175.799 120.452 177.131 120.633 177.687 119.177C177.944 118.502 176.981 117.022 174.848 114.814C170.949 110.776 169.643 108.563 171.161 108.563C171.721 108.563 172.96 108.971 173.915 109.468ZM114.389 117.99C108.761 123.112 109.295 125.265 115.679 123.191C120.427 121.649 120.623 121.838 117.54 124.997C113.571 129.065 115.081 131.275 120.432 129.228C124.216 127.781 122.665 129.753 114.656 136.575C112.919 138.054 109.159 141.397 106.302 144.003C99.4686 150.234 96.848 152.018 89.0164 155.771C83.1396 158.586 70.3835 162.857 67.847 162.857C66.3459 162.857 66.2206 161.822 66.7912 154.131C67.0817 150.221 67.1594 146.491 66.9641 145.844C66.0708 142.876 67.2205 141.607 73.4527 138.678C76.7847 137.111 82.1274 134.057 85.3251 131.891C88.5222 129.726 91.3131 127.954 91.5258 127.954C91.7392 127.954 94.1265 126.391 96.8313 124.481C102.23 120.668 106.734 118.239 112.655 115.945C118.459 113.696 118.741 114.029 114.389 117.99ZM136.772 135.345C136.772 136.897 135.559 139.588 134.86 139.588C133.943 139.588 134.032 136.139 134.972 135.193C136.009 134.15 136.772 134.214 136.772 135.345ZM158.51 138.577C158.657 139.845 158.468 140.292 157.867 140.094C157.398 139.939 156.92 139.003 156.804 138.014C156.656 136.746 156.846 136.299 157.447 136.497C157.916 136.652 158.394 137.588 158.51 138.577Z" fill="black"/>
</svg>
