<svg width="190" height="176" viewBox="0 0 190 176" fill="none" xmlns="http://www.w3.org/2000/svg">
<path d="M78.5 42.5L88 26L103.5 34V48.5H118.5L161 63.5C166.333 67 177.4 74.2 179 75C180.6 75.8 176.333 81 174 83.5H146.5V108V131C150.333 137.333 158.6 150.5 161 152.5C163.4 154.5 157.667 159 154.5 161C150 161.5 140.3 162.2 137.5 161C134 159.5 130 159 127 158C124.6 157.2 115.667 154 111.5 152.5L85.5 155.5C74.5 155.833 52.1 156.3 50.5 155.5C48.9 154.7 39.5 149.167 35 146.5L45.5 131V93L50.5 67L70.5 61L78.5 53V42.5Z" fill="white"/>
<mask id="path-2-outside-1_2087_53962" maskUnits="userSpaceOnUse" x="-1" y="0" width="191" height="176" fill="black">
<rect fill="white" x="-1" width="191" height="176"/>
<path fill-rule="evenodd" clip-rule="evenodd" d="M103.822 6.54032C98.0439 8.08549 94.9129 12.3261 95.375 17.9829C95.6126 20.893 95.473 21.0573 92.5329 21.3329C88.7331 21.689 86.3486 23.7068 86.3486 26.5656C86.3486 27.7512 85.5456 29.8495 84.5632 31.2294C82.0409 34.7712 80.1644 40.5287 80.1644 44.7251C80.1644 47.8526 80.6883 48.7943 84.2973 52.155C87.8302 55.445 88.2463 56.1747 87.1685 57.181C84.6984 59.4859 80.2714 60.2492 72.3547 59.7359L67.0546 59.393C65.4169 59.287 63.8073 59.8565 62.6006 60.9688L60.5596 62.8501C54.5512 68.3885 51.8841 73.9428 52.1323 80.4026C52.2437 83.3145 51.8673 86.654 51.2957 87.8246C50.7232 88.9952 49.0544 93.1333 47.587 97.0205C46.1195 100.908 42.0839 110.847 38.619 119.107C35.1541 127.367 32.0929 134.869 31.8164 135.777C31.3499 137.309 30.6193 137.383 21.7405 136.808C11.3396 136.134 6.8375 136.671 6.8375 138.585C6.8375 139.259 7.93123 140.396 9.26702 141.111C10.2006 141.61 10.099 142.98 9.10201 143.336L8.82529 143.435C5.87543 144.486 5.24021 145.507 6.89757 146.531C7.41705 146.852 7.62466 147.68 7.35962 148.371C7.09459 149.061 7.66353 150.412 8.62473 151.373C10.033 152.782 11.5728 153.12 16.5829 153.12C21.29 153.12 22.9182 153.441 23.3034 154.445C24.0146 156.297 27.6933 156.096 32.0955 153.965L33.6734 153.201C35.0553 152.532 36.641 152.419 38.104 152.884L41.4302 153.941C48.9519 156.331 56.1936 157.349 70.4464 158.021C83.3979 158.632 114.592 157.28 118.145 155.953C119.728 155.363 120.597 155.459 121.237 156.296C122.221 157.579 153.007 169.021 155.479 169.022C156.329 169.022 157.025 168.376 157.025 167.587C157.025 166.144 159.468 166.197 163.418 167.725C164.554 168.164 165.189 167.694 165.866 165.913C166.657 163.835 167.138 163.579 169.412 164.034C173.164 164.785 177.345 163.777 177.345 162.122C177.345 161.364 176.475 159.818 175.413 158.687C173.922 157.1 173.721 156.391 174.529 155.582C175.106 155.005 175.578 153.913 175.578 153.156C175.578 152.398 176.399 151.266 177.401 150.639C178.404 150.013 179.09 148.824 178.924 147.998C178.732 147.036 179.507 146.112 181.076 145.432C183.937 144.194 184.526 140.394 181.983 139.578C181.133 139.306 178.182 138.296 175.426 137.335C172.276 136.236 166.616 135.353 160.186 134.957L155.583 134.674C152.421 134.479 149.955 131.859 149.952 128.691L149.94 116.116C149.924 99.7557 149.392 92.4963 147.647 84.827C147.363 83.5807 148.342 82.4056 149.619 82.4595L161.646 82.9673C176.901 83.6114 179.861 83.3348 182.142 81.0537C183.721 79.475 183.967 75.1947 182.624 72.6857C181.263 70.1422 172.196 64.3061 160.206 58.2553C148.124 52.1585 147.136 51.7406 136.706 48.3111C131.153 46.4858 127.47 45.8453 122.57 45.8551C114.61 45.8701 110.705 47.0839 105.628 51.1196C100.912 54.869 99.5245 55.0342 100.398 51.7433C100.868 49.972 101.685 49.2378 103.413 49.0346C104.717 48.8809 105.785 48.3482 105.785 47.8508C105.785 47.3534 106.643 46.2526 107.69 45.4036C108.961 44.3744 109.569 42.9299 109.516 41.0658C109.472 39.5286 109.764 38.2706 110.163 38.2706C110.562 38.2706 111.167 36.7899 111.506 34.9806C112.054 32.0608 111.841 31.4635 109.616 29.6842C108.207 28.5561 107.653 27.6762 108.352 27.6735C110.86 27.6647 115.285 23.3622 115.817 20.4159C116.589 16.1356 115.161 11.2863 112.29 8.4424C109.739 5.91572 107.792 5.4784 103.822 6.54032ZM94.2123 32.6668C97.5703 33.7517 99.2171 34.8958 100.57 37.0841C101.825 39.116 103.062 40.0375 104.532 40.0375C105.842 40.0375 106.668 40.5499 106.668 41.3627C106.668 42.2426 105.788 42.6879 104.049 42.6879C101.125 42.6879 100.216 43.9044 98.2338 50.4658C96.7248 55.4627 97.1807 57.3515 100.074 58.0777C102.123 58.5919 102.248 58.9726 102.212 64.5702C102.17 70.9505 100.711 76.2186 98.2223 78.9679C96.5667 80.7976 92.5417 81.2163 89.9505 79.8293C88.5847 79.0987 82.1195 64.9254 82.9517 64.4872C83.1196 64.3988 84.5322 63.4332 86.0924 62.3421C89.5706 59.9064 89.5194 59.9064 90.3684 62.3448C90.9364 63.9765 91.1237 63.6329 91.4135 60.4277C91.9383 54.6101 91.1458 52.7522 86.8893 49.8235C84.7655 48.3623 82.7874 46.5424 82.495 45.7791C81.5691 43.3655 86.9282 31.2029 88.9177 31.2029C89.3365 31.2029 91.7192 31.862 94.2123 32.6668ZM91.6494 39.154C91.6494 40.1258 92.047 40.9209 92.5329 40.9209C93.0188 40.9209 93.4163 40.1258 93.4163 39.154C93.4163 38.1822 93.0188 37.3871 92.5329 37.3871C92.047 37.3871 91.6494 38.1822 91.6494 39.154ZM86.3486 47.0009C86.3486 47.4868 86.7462 48.13 87.2321 48.4303C87.718 48.7307 88.1156 48.5788 88.1156 48.0928C88.1156 47.6069 87.718 46.9638 87.2321 46.6634C86.7462 46.363 86.3486 46.515 86.3486 47.0009ZM123.454 51.0604C123.454 55.4043 116.23 57.3418 112.274 54.0597C109.192 51.5012 112.849 49.1274 120.141 48.9516C123.099 48.8809 123.454 49.1062 123.454 51.0604ZM143.8 55.5501C155.68 59.6847 168.531 65.8318 175.25 70.5927C180.895 74.5921 182.607 76.958 180.706 78.1322C180.093 78.5112 168.849 78.6145 155.719 78.3601C130.179 77.8671 124.337 78.2258 124.337 80.2887C124.337 80.9884 124.934 81.56 125.662 81.56C126.777 81.56 126.968 83.3454 126.865 92.8241C126.747 103.55 126.702 103.814 125.917 98.3457C124.295 87.056 122.308 85.8174 121.282 95.455C120.321 104.479 119.491 105.924 118.351 100.554C117.836 98.1248 117.137 94.2491 116.8 91.9406C115.747 84.751 114.356 86.5948 113.378 96.478C112.54 104.95 111.415 104.02 110.206 93.8577C109.72 89.7664 108.977 84.2324 108.555 81.56C107.551 75.1929 108.473 73.0231 113.067 70.9373C116.417 69.4169 118.969 69.2287 136.433 69.211C154.244 69.1933 159.577 68.5926 155.57 67.0554C153.135 66.1207 138.467 64.8061 130.301 64.7893C126.049 64.7814 122.57 64.549 122.57 64.2734C122.57 63.5905 126.833 57.8118 129.532 54.8354C130.744 53.4996 132.417 52.4059 133.251 52.4059C134.085 52.4059 138.832 53.8203 143.8 55.5501ZM77.4885 63.6223C77.7173 63.8228 77.3197 64.3661 76.605 64.83C74.634 66.1101 70.942 65.4227 70.6187 63.7168C70.3784 62.449 70.8563 62.2971 73.7037 62.737C75.5563 63.0233 77.2597 63.4217 77.4885 63.6223ZM108.236 63.9014C109.773 66.3619 108.715 70.075 106.478 70.075C105.231 70.075 104.869 69.6642 105.248 68.6774C105.544 67.9088 105.785 66.1198 105.785 64.7018C105.785 61.691 106.675 61.4004 108.236 63.9014ZM66.3065 72.5434C68.5355 75.0065 67.099 79.119 63.8576 79.5528C59.7469 80.1031 58.9156 76.3529 62.2948 72.5045C63.9972 70.5662 64.5211 70.5715 66.3065 72.5434ZM84.3609 75.1169C85.8186 78.2558 85.7558 79.7931 84.1709 79.7931C82.6399 79.7931 81.0479 77.1206 81.0479 74.5506C81.0479 71.9586 83.0533 72.3013 84.3609 75.1169ZM68.2908 88.7257C66.477 94.8322 66.5362 95.8667 69.0037 101.273C71.4262 106.579 73.0968 113.704 73.0968 118.728C73.0968 122.719 72.7611 122.943 63.3787 125.182C60.2204 125.935 56.6592 126.833 55.4656 127.176C54.7859 127.372 54.2543 126.582 54.6917 126.026L55.2094 125.368C58.1778 121.594 61.9537 110.729 65.6749 95.2536C67.5434 87.4791 69.2069 81.7861 69.3704 82.6016C69.5347 83.4179 69.0488 86.1734 68.2908 88.7257ZM62.7886 87.8087C62.7064 88.9881 61.5747 93.332 60.2716 97.4622C58.9694 101.592 57.1513 107.89 56.2325 111.455C55.3128 115.022 53.9691 119.682 53.2455 121.812C52.5228 123.942 52.1182 126.193 52.3479 126.813C52.6103 127.522 49.8919 129.427 45.0409 131.935C38.2321 135.455 37.027 136.45 34.8687 140.328C33.2423 143.25 32.5152 145.695 32.7051 147.612C32.9693 150.294 32.7493 150.561 29.5645 151.418C27.4 152.002 25.7567 152.033 25.1021 151.505C24.5314 151.046 22.4606 150.405 20.4993 150.082C17.7553 149.63 16.9345 149.099 16.9345 147.773C16.9345 146.732 17.5371 146.052 18.4594 146.052C20.8597 146.052 21.2016 144.514 19.2377 142.55C18.2482 141.561 17.7367 140.717 18.1016 140.675C18.4656 140.631 21.9446 140.533 25.8318 140.454L29.2676 140.384C31.5002 140.338 33.5229 139.057 34.5174 137.057L37.3168 131.43C39.7463 126.547 42.4002 120.981 43.213 119.062C44.0266 117.143 46.2927 111.995 48.2478 107.622C50.2029 103.249 52.8515 96.2916 54.1334 92.1615C55.4153 88.0313 56.63 84.1194 56.8323 83.4683C57.1212 82.5389 57.8174 82.6484 60.0684 83.9745C62.1631 85.2095 62.8973 86.2441 62.7886 87.8087ZM141.289 83.8711C142.254 84.4674 143.877 90.9335 144.359 96.107C145.266 105.817 145.412 108.081 145.928 120.432C146.223 127.478 146.627 135.628 146.826 138.543L146.908 139.742C147.061 141.993 145.335 143.931 143.082 144.036C139.701 144.195 130.984 146.352 125.913 148.285C125.015 148.626 124.768 145.08 124.724 131.262C124.694 121.661 124.39 112.613 124.048 111.156C123.494 108.795 123.56 108.674 124.642 110.051C129.244 115.906 132.004 104.323 130.039 87.3979C129.731 84.7362 131.98 82.4804 134.643 82.7815L135.028 82.8251C138.103 83.1732 140.921 83.644 141.289 83.8711ZM79.6997 88.5835C80.4409 90.0173 81.0479 91.7922 81.0479 92.5281C81.0479 95.5937 72.9678 97.0002 71.7327 94.1492C70.6125 91.5642 70.5356 90.2744 71.3705 88.079C72.0022 86.4181 72.8185 85.9773 75.2613 85.9773C77.7906 85.9773 78.5972 86.4508 79.6997 88.5835ZM106.904 91.8222C107.375 94.2853 105.612 96.5788 103.248 96.5788C99.3655 96.5788 98.1728 90.6905 101.588 88.3847C103.33 87.2079 103.755 87.2017 105.029 88.3299C105.829 89.0376 106.672 90.6092 106.904 91.8222ZM92.6839 100.691C96.5861 104.222 92.5417 111.382 87.3461 110.138C84.2637 109.4 84.3653 109.569 84.4245 105.261C84.5013 99.708 88.9054 97.2714 92.6839 100.691ZM110.602 108.88C111.055 109.612 106.724 113.364 105.428 113.364C104.479 113.364 104.877 110.209 105.961 109.124C107.219 107.867 109.889 107.726 110.602 108.88ZM119.326 110.194C119.589 110.879 120.086 116.263 120.432 122.157L120.685 126.492C120.887 129.949 118.128 132.86 114.664 132.842L92.1539 132.725C63.1508 132.577 59.6046 132.914 62.255 135.564C63.5051 136.814 79.6927 137.887 102.913 138.258L116.827 138.48C119.03 138.515 120.797 140.315 120.79 142.519C120.768 150.607 121.601 150.155 105.492 150.816C97.6357 151.138 86.8346 151.613 81.4896 151.873C60.8547 152.873 35.9916 150.107 35.9916 146.811C35.9916 143.786 38.8752 140.03 43.1617 137.469C51.3496 132.577 57.5541 130.711 86.7904 124.343C90.6776 123.497 96.2434 121.797 99.1588 120.565C105.097 118.057 114.687 112.06 115.768 110.178C116.681 108.586 118.712 108.596 119.326 110.194ZM81.7582 118.432C82.0409 121.232 80.4436 122.589 77.9797 121.644C76.1306 120.935 75.1623 115.155 76.7296 114.187C78.6087 113.025 81.4543 115.428 81.7582 118.432ZM163.522 139.257C170.075 140.508 174.556 142.519 170.792 142.519C169.557 142.519 169.285 143.027 169.61 144.727C169.842 145.942 169.69 146.936 169.271 146.936C168.853 146.936 168.51 147.93 168.51 149.144C168.51 150.809 168.046 151.353 166.629 151.353C163.903 151.353 152.328 147.069 151.251 145.661C150.747 145.003 150.495 142.796 150.689 140.756C151.092 136.536 149.966 136.667 163.522 139.257ZM159.455 153.355C164.922 156.149 169.394 158.765 169.394 159.169C169.394 159.573 166.977 159.537 164.022 159.09C159.38 158.387 158.501 158.482 157.547 159.786C156.637 161.03 156.104 161.113 154.507 160.258C152.311 159.083 150.841 159.645 150.841 161.66C150.841 162.606 150.364 162.839 149.295 162.417C147.961 161.891 135.466 157.196 128.755 154.701C126.983 154.042 126.808 153.735 127.871 153.152C128.975 152.546 139.28 149.834 145.982 148.387C148.602 147.822 148.703 147.859 159.455 153.355Z"/>
</mask>
<path fill-rule="evenodd" clip-rule="evenodd" d="M103.822 6.54032C98.0439 8.08549 94.9129 12.3261 95.375 17.9829C95.6126 20.893 95.473 21.0573 92.5329 21.3329C88.7331 21.689 86.3486 23.7068 86.3486 26.5656C86.3486 27.7512 85.5456 29.8495 84.5632 31.2294C82.0409 34.7712 80.1644 40.5287 80.1644 44.7251C80.1644 47.8526 80.6883 48.7943 84.2973 52.155C87.8302 55.445 88.2463 56.1747 87.1685 57.181C84.6984 59.4859 80.2714 60.2492 72.3547 59.7359L67.0546 59.393C65.4169 59.287 63.8073 59.8565 62.6006 60.9688L60.5596 62.8501C54.5512 68.3885 51.8841 73.9428 52.1323 80.4026C52.2437 83.3145 51.8673 86.654 51.2957 87.8246C50.7232 88.9952 49.0544 93.1333 47.587 97.0205C46.1195 100.908 42.0839 110.847 38.619 119.107C35.1541 127.367 32.0929 134.869 31.8164 135.777C31.3499 137.309 30.6193 137.383 21.7405 136.808C11.3396 136.134 6.8375 136.671 6.8375 138.585C6.8375 139.259 7.93123 140.396 9.26702 141.111C10.2006 141.61 10.099 142.98 9.10201 143.336L8.82529 143.435C5.87543 144.486 5.24021 145.507 6.89757 146.531C7.41705 146.852 7.62466 147.68 7.35962 148.371C7.09459 149.061 7.66353 150.412 8.62473 151.373C10.033 152.782 11.5728 153.12 16.5829 153.12C21.29 153.12 22.9182 153.441 23.3034 154.445C24.0146 156.297 27.6933 156.096 32.0955 153.965L33.6734 153.201C35.0553 152.532 36.641 152.419 38.104 152.884L41.4302 153.941C48.9519 156.331 56.1936 157.349 70.4464 158.021C83.3979 158.632 114.592 157.28 118.145 155.953C119.728 155.363 120.597 155.459 121.237 156.296C122.221 157.579 153.007 169.021 155.479 169.022C156.329 169.022 157.025 168.376 157.025 167.587C157.025 166.144 159.468 166.197 163.418 167.725C164.554 168.164 165.189 167.694 165.866 165.913C166.657 163.835 167.138 163.579 169.412 164.034C173.164 164.785 177.345 163.777 177.345 162.122C177.345 161.364 176.475 159.818 175.413 158.687C173.922 157.1 173.721 156.391 174.529 155.582C175.106 155.005 175.578 153.913 175.578 153.156C175.578 152.398 176.399 151.266 177.401 150.639C178.404 150.013 179.09 148.824 178.924 147.998C178.732 147.036 179.507 146.112 181.076 145.432C183.937 144.194 184.526 140.394 181.983 139.578C181.133 139.306 178.182 138.296 175.426 137.335C172.276 136.236 166.616 135.353 160.186 134.957L155.583 134.674C152.421 134.479 149.955 131.859 149.952 128.691L149.94 116.116C149.924 99.7557 149.392 92.4963 147.647 84.827C147.363 83.5807 148.342 82.4056 149.619 82.4595L161.646 82.9673C176.901 83.6114 179.861 83.3348 182.142 81.0537C183.721 79.475 183.967 75.1947 182.624 72.6857C181.263 70.1422 172.196 64.3061 160.206 58.2553C148.124 52.1585 147.136 51.7406 136.706 48.3111C131.153 46.4858 127.47 45.8453 122.57 45.8551C114.61 45.8701 110.705 47.0839 105.628 51.1196C100.912 54.869 99.5245 55.0342 100.398 51.7433C100.868 49.972 101.685 49.2378 103.413 49.0346C104.717 48.8809 105.785 48.3482 105.785 47.8508C105.785 47.3534 106.643 46.2526 107.69 45.4036C108.961 44.3744 109.569 42.9299 109.516 41.0658C109.472 39.5286 109.764 38.2706 110.163 38.2706C110.562 38.2706 111.167 36.7899 111.506 34.9806C112.054 32.0608 111.841 31.4635 109.616 29.6842C108.207 28.5561 107.653 27.6762 108.352 27.6735C110.86 27.6647 115.285 23.3622 115.817 20.4159C116.589 16.1356 115.161 11.2863 112.29 8.4424C109.739 5.91572 107.792 5.4784 103.822 6.54032ZM94.2123 32.6668C97.5703 33.7517 99.2171 34.8958 100.57 37.0841C101.825 39.116 103.062 40.0375 104.532 40.0375C105.842 40.0375 106.668 40.5499 106.668 41.3627C106.668 42.2426 105.788 42.6879 104.049 42.6879C101.125 42.6879 100.216 43.9044 98.2338 50.4658C96.7248 55.4627 97.1807 57.3515 100.074 58.0777C102.123 58.5919 102.248 58.9726 102.212 64.5702C102.17 70.9505 100.711 76.2186 98.2223 78.9679C96.5667 80.7976 92.5417 81.2163 89.9505 79.8293C88.5847 79.0987 82.1195 64.9254 82.9517 64.4872C83.1196 64.3988 84.5322 63.4332 86.0924 62.3421C89.5706 59.9064 89.5194 59.9064 90.3684 62.3448C90.9364 63.9765 91.1237 63.6329 91.4135 60.4277C91.9383 54.6101 91.1458 52.7522 86.8893 49.8235C84.7655 48.3623 82.7874 46.5424 82.495 45.7791C81.5691 43.3655 86.9282 31.2029 88.9177 31.2029C89.3365 31.2029 91.7192 31.862 94.2123 32.6668ZM91.6494 39.154C91.6494 40.1258 92.047 40.9209 92.5329 40.9209C93.0188 40.9209 93.4163 40.1258 93.4163 39.154C93.4163 38.1822 93.0188 37.3871 92.5329 37.3871C92.047 37.3871 91.6494 38.1822 91.6494 39.154ZM86.3486 47.0009C86.3486 47.4868 86.7462 48.13 87.2321 48.4303C87.718 48.7307 88.1156 48.5788 88.1156 48.0928C88.1156 47.6069 87.718 46.9638 87.2321 46.6634C86.7462 46.363 86.3486 46.515 86.3486 47.0009ZM123.454 51.0604C123.454 55.4043 116.23 57.3418 112.274 54.0597C109.192 51.5012 112.849 49.1274 120.141 48.9516C123.099 48.8809 123.454 49.1062 123.454 51.0604ZM143.8 55.5501C155.68 59.6847 168.531 65.8318 175.25 70.5927C180.895 74.5921 182.607 76.958 180.706 78.1322C180.093 78.5112 168.849 78.6145 155.719 78.3601C130.179 77.8671 124.337 78.2258 124.337 80.2887C124.337 80.9884 124.934 81.56 125.662 81.56C126.777 81.56 126.968 83.3454 126.865 92.8241C126.747 103.55 126.702 103.814 125.917 98.3457C124.295 87.056 122.308 85.8174 121.282 95.455C120.321 104.479 119.491 105.924 118.351 100.554C117.836 98.1248 117.137 94.2491 116.8 91.9406C115.747 84.751 114.356 86.5948 113.378 96.478C112.54 104.95 111.415 104.02 110.206 93.8577C109.72 89.7664 108.977 84.2324 108.555 81.56C107.551 75.1929 108.473 73.0231 113.067 70.9373C116.417 69.4169 118.969 69.2287 136.433 69.211C154.244 69.1933 159.577 68.5926 155.57 67.0554C153.135 66.1207 138.467 64.8061 130.301 64.7893C126.049 64.7814 122.57 64.549 122.57 64.2734C122.57 63.5905 126.833 57.8118 129.532 54.8354C130.744 53.4996 132.417 52.4059 133.251 52.4059C134.085 52.4059 138.832 53.8203 143.8 55.5501ZM77.4885 63.6223C77.7173 63.8228 77.3197 64.3661 76.605 64.83C74.634 66.1101 70.942 65.4227 70.6187 63.7168C70.3784 62.449 70.8563 62.2971 73.7037 62.737C75.5563 63.0233 77.2597 63.4217 77.4885 63.6223ZM108.236 63.9014C109.773 66.3619 108.715 70.075 106.478 70.075C105.231 70.075 104.869 69.6642 105.248 68.6774C105.544 67.9088 105.785 66.1198 105.785 64.7018C105.785 61.691 106.675 61.4004 108.236 63.9014ZM66.3065 72.5434C68.5355 75.0065 67.099 79.119 63.8576 79.5528C59.7469 80.1031 58.9156 76.3529 62.2948 72.5045C63.9972 70.5662 64.5211 70.5715 66.3065 72.5434ZM84.3609 75.1169C85.8186 78.2558 85.7558 79.7931 84.1709 79.7931C82.6399 79.7931 81.0479 77.1206 81.0479 74.5506C81.0479 71.9586 83.0533 72.3013 84.3609 75.1169ZM68.2908 88.7257C66.477 94.8322 66.5362 95.8667 69.0037 101.273C71.4262 106.579 73.0968 113.704 73.0968 118.728C73.0968 122.719 72.7611 122.943 63.3787 125.182C60.2204 125.935 56.6592 126.833 55.4656 127.176C54.7859 127.372 54.2543 126.582 54.6917 126.026L55.2094 125.368C58.1778 121.594 61.9537 110.729 65.6749 95.2536C67.5434 87.4791 69.2069 81.7861 69.3704 82.6016C69.5347 83.4179 69.0488 86.1734 68.2908 88.7257ZM62.7886 87.8087C62.7064 88.9881 61.5747 93.332 60.2716 97.4622C58.9694 101.592 57.1513 107.89 56.2325 111.455C55.3128 115.022 53.9691 119.682 53.2455 121.812C52.5228 123.942 52.1182 126.193 52.3479 126.813C52.6103 127.522 49.8919 129.427 45.0409 131.935C38.2321 135.455 37.027 136.45 34.8687 140.328C33.2423 143.25 32.5152 145.695 32.7051 147.612C32.9693 150.294 32.7493 150.561 29.5645 151.418C27.4 152.002 25.7567 152.033 25.1021 151.505C24.5314 151.046 22.4606 150.405 20.4993 150.082C17.7553 149.63 16.9345 149.099 16.9345 147.773C16.9345 146.732 17.5371 146.052 18.4594 146.052C20.8597 146.052 21.2016 144.514 19.2377 142.55C18.2482 141.561 17.7367 140.717 18.1016 140.675C18.4656 140.631 21.9446 140.533 25.8318 140.454L29.2676 140.384C31.5002 140.338 33.5229 139.057 34.5174 137.057L37.3168 131.43C39.7463 126.547 42.4002 120.981 43.213 119.062C44.0266 117.143 46.2927 111.995 48.2478 107.622C50.2029 103.249 52.8515 96.2916 54.1334 92.1615C55.4153 88.0313 56.63 84.1194 56.8323 83.4683C57.1212 82.5389 57.8174 82.6484 60.0684 83.9745C62.1631 85.2095 62.8973 86.2441 62.7886 87.8087ZM141.289 83.8711C142.254 84.4674 143.877 90.9335 144.359 96.107C145.266 105.817 145.412 108.081 145.928 120.432C146.223 127.478 146.627 135.628 146.826 138.543L146.908 139.742C147.061 141.993 145.335 143.931 143.082 144.036C139.701 144.195 130.984 146.352 125.913 148.285C125.015 148.626 124.768 145.08 124.724 131.262C124.694 121.661 124.39 112.613 124.048 111.156C123.494 108.795 123.56 108.674 124.642 110.051C129.244 115.906 132.004 104.323 130.039 87.3979C129.731 84.7362 131.98 82.4804 134.643 82.7815L135.028 82.8251C138.103 83.1732 140.921 83.644 141.289 83.8711ZM79.6997 88.5835C80.4409 90.0173 81.0479 91.7922 81.0479 92.5281C81.0479 95.5937 72.9678 97.0002 71.7327 94.1492C70.6125 91.5642 70.5356 90.2744 71.3705 88.079C72.0022 86.4181 72.8185 85.9773 75.2613 85.9773C77.7906 85.9773 78.5972 86.4508 79.6997 88.5835ZM106.904 91.8222C107.375 94.2853 105.612 96.5788 103.248 96.5788C99.3655 96.5788 98.1728 90.6905 101.588 88.3847C103.33 87.2079 103.755 87.2017 105.029 88.3299C105.829 89.0376 106.672 90.6092 106.904 91.8222ZM92.6839 100.691C96.5861 104.222 92.5417 111.382 87.3461 110.138C84.2637 109.4 84.3653 109.569 84.4245 105.261C84.5013 99.708 88.9054 97.2714 92.6839 100.691ZM110.602 108.88C111.055 109.612 106.724 113.364 105.428 113.364C104.479 113.364 104.877 110.209 105.961 109.124C107.219 107.867 109.889 107.726 110.602 108.88ZM119.326 110.194C119.589 110.879 120.086 116.263 120.432 122.157L120.685 126.492C120.887 129.949 118.128 132.86 114.664 132.842L92.1539 132.725C63.1508 132.577 59.6046 132.914 62.255 135.564C63.5051 136.814 79.6927 137.887 102.913 138.258L116.827 138.48C119.03 138.515 120.797 140.315 120.79 142.519C120.768 150.607 121.601 150.155 105.492 150.816C97.6357 151.138 86.8346 151.613 81.4896 151.873C60.8547 152.873 35.9916 150.107 35.9916 146.811C35.9916 143.786 38.8752 140.03 43.1617 137.469C51.3496 132.577 57.5541 130.711 86.7904 124.343C90.6776 123.497 96.2434 121.797 99.1588 120.565C105.097 118.057 114.687 112.06 115.768 110.178C116.681 108.586 118.712 108.596 119.326 110.194ZM81.7582 118.432C82.0409 121.232 80.4436 122.589 77.9797 121.644C76.1306 120.935 75.1623 115.155 76.7296 114.187C78.6087 113.025 81.4543 115.428 81.7582 118.432ZM163.522 139.257C170.075 140.508 174.556 142.519 170.792 142.519C169.557 142.519 169.285 143.027 169.61 144.727C169.842 145.942 169.69 146.936 169.271 146.936C168.853 146.936 168.51 147.93 168.51 149.144C168.51 150.809 168.046 151.353 166.629 151.353C163.903 151.353 152.328 147.069 151.251 145.661C150.747 145.003 150.495 142.796 150.689 140.756C151.092 136.536 149.966 136.667 163.522 139.257ZM159.455 153.355C164.922 156.149 169.394 158.765 169.394 159.169C169.394 159.573 166.977 159.537 164.022 159.09C159.38 158.387 158.501 158.482 157.547 159.786C156.637 161.03 156.104 161.113 154.507 160.258C152.311 159.083 150.841 159.645 150.841 161.66C150.841 162.606 150.364 162.839 149.295 162.417C147.961 161.891 135.466 157.196 128.755 154.701C126.983 154.042 126.808 153.735 127.871 153.152C128.975 152.546 139.28 149.834 145.982 148.387C148.602 147.822 148.703 147.859 159.455 153.355Z" fill="black"/>
<path fill-rule="evenodd" clip-rule="evenodd" d="M103.822 6.54032C98.0439 8.08549 94.9129 12.3261 95.375 17.9829C95.6126 20.893 95.473 21.0573 92.5329 21.3329C88.7331 21.689 86.3486 23.7068 86.3486 26.5656C86.3486 27.7512 85.5456 29.8495 84.5632 31.2294C82.0409 34.7712 80.1644 40.5287 80.1644 44.7251C80.1644 47.8526 80.6883 48.7943 84.2973 52.155C87.8302 55.445 88.2463 56.1747 87.1685 57.181C84.6984 59.4859 80.2714 60.2492 72.3547 59.7359L67.0546 59.393C65.4169 59.287 63.8073 59.8565 62.6006 60.9688L60.5596 62.8501C54.5512 68.3885 51.8841 73.9428 52.1323 80.4026C52.2437 83.3145 51.8673 86.654 51.2957 87.8246C50.7232 88.9952 49.0544 93.1333 47.587 97.0205C46.1195 100.908 42.0839 110.847 38.619 119.107C35.1541 127.367 32.0929 134.869 31.8164 135.777C31.3499 137.309 30.6193 137.383 21.7405 136.808C11.3396 136.134 6.8375 136.671 6.8375 138.585C6.8375 139.259 7.93123 140.396 9.26702 141.111C10.2006 141.61 10.099 142.98 9.10201 143.336L8.82529 143.435C5.87543 144.486 5.24021 145.507 6.89757 146.531C7.41705 146.852 7.62466 147.68 7.35962 148.371C7.09459 149.061 7.66353 150.412 8.62473 151.373C10.033 152.782 11.5728 153.12 16.5829 153.12C21.29 153.12 22.9182 153.441 23.3034 154.445C24.0146 156.297 27.6933 156.096 32.0955 153.965L33.6734 153.201C35.0553 152.532 36.641 152.419 38.104 152.884L41.4302 153.941C48.9519 156.331 56.1936 157.349 70.4464 158.021C83.3979 158.632 114.592 157.28 118.145 155.953C119.728 155.363 120.597 155.459 121.237 156.296C122.221 157.579 153.007 169.021 155.479 169.022C156.329 169.022 157.025 168.376 157.025 167.587C157.025 166.144 159.468 166.197 163.418 167.725C164.554 168.164 165.189 167.694 165.866 165.913C166.657 163.835 167.138 163.579 169.412 164.034C173.164 164.785 177.345 163.777 177.345 162.122C177.345 161.364 176.475 159.818 175.413 158.687C173.922 157.1 173.721 156.391 174.529 155.582C175.106 155.005 175.578 153.913 175.578 153.156C175.578 152.398 176.399 151.266 177.401 150.639C178.404 150.013 179.09 148.824 178.924 147.998C178.732 147.036 179.507 146.112 181.076 145.432C183.937 144.194 184.526 140.394 181.983 139.578C181.133 139.306 178.182 138.296 175.426 137.335C172.276 136.236 166.616 135.353 160.186 134.957L155.583 134.674C152.421 134.479 149.955 131.859 149.952 128.691L149.94 116.116C149.924 99.7557 149.392 92.4963 147.647 84.827C147.363 83.5807 148.342 82.4056 149.619 82.4595L161.646 82.9673C176.901 83.6114 179.861 83.3348 182.142 81.0537C183.721 79.475 183.967 75.1947 182.624 72.6857C181.263 70.1422 172.196 64.3061 160.206 58.2553C148.124 52.1585 147.136 51.7406 136.706 48.3111C131.153 46.4858 127.47 45.8453 122.57 45.8551C114.61 45.8701 110.705 47.0839 105.628 51.1196C100.912 54.869 99.5245 55.0342 100.398 51.7433C100.868 49.972 101.685 49.2378 103.413 49.0346C104.717 48.8809 105.785 48.3482 105.785 47.8508C105.785 47.3534 106.643 46.2526 107.69 45.4036C108.961 44.3744 109.569 42.9299 109.516 41.0658C109.472 39.5286 109.764 38.2706 110.163 38.2706C110.562 38.2706 111.167 36.7899 111.506 34.9806C112.054 32.0608 111.841 31.4635 109.616 29.6842C108.207 28.5561 107.653 27.6762 108.352 27.6735C110.86 27.6647 115.285 23.3622 115.817 20.4159C116.589 16.1356 115.161 11.2863 112.29 8.4424C109.739 5.91572 107.792 5.4784 103.822 6.54032ZM94.2123 32.6668C97.5703 33.7517 99.2171 34.8958 100.57 37.0841C101.825 39.116 103.062 40.0375 104.532 40.0375C105.842 40.0375 106.668 40.5499 106.668 41.3627C106.668 42.2426 105.788 42.6879 104.049 42.6879C101.125 42.6879 100.216 43.9044 98.2338 50.4658C96.7248 55.4627 97.1807 57.3515 100.074 58.0777C102.123 58.5919 102.248 58.9726 102.212 64.5702C102.17 70.9505 100.711 76.2186 98.2223 78.9679C96.5667 80.7976 92.5417 81.2163 89.9505 79.8293C88.5847 79.0987 82.1195 64.9254 82.9517 64.4872C83.1196 64.3988 84.5322 63.4332 86.0924 62.3421C89.5706 59.9064 89.5194 59.9064 90.3684 62.3448C90.9364 63.9765 91.1237 63.6329 91.4135 60.4277C91.9383 54.6101 91.1458 52.7522 86.8893 49.8235C84.7655 48.3623 82.7874 46.5424 82.495 45.7791C81.5691 43.3655 86.9282 31.2029 88.9177 31.2029C89.3365 31.2029 91.7192 31.862 94.2123 32.6668ZM91.6494 39.154C91.6494 40.1258 92.047 40.9209 92.5329 40.9209C93.0188 40.9209 93.4163 40.1258 93.4163 39.154C93.4163 38.1822 93.0188 37.3871 92.5329 37.3871C92.047 37.3871 91.6494 38.1822 91.6494 39.154ZM86.3486 47.0009C86.3486 47.4868 86.7462 48.13 87.2321 48.4303C87.718 48.7307 88.1156 48.5788 88.1156 48.0928C88.1156 47.6069 87.718 46.9638 87.2321 46.6634C86.7462 46.363 86.3486 46.515 86.3486 47.0009ZM123.454 51.0604C123.454 55.4043 116.23 57.3418 112.274 54.0597C109.192 51.5012 112.849 49.1274 120.141 48.9516C123.099 48.8809 123.454 49.1062 123.454 51.0604ZM143.8 55.5501C155.68 59.6847 168.531 65.8318 175.25 70.5927C180.895 74.5921 182.607 76.958 180.706 78.1322C180.093 78.5112 168.849 78.6145 155.719 78.3601C130.179 77.8671 124.337 78.2258 124.337 80.2887C124.337 80.9884 124.934 81.56 125.662 81.56C126.777 81.56 126.968 83.3454 126.865 92.8241C126.747 103.55 126.702 103.814 125.917 98.3457C124.295 87.056 122.308 85.8174 121.282 95.455C120.321 104.479 119.491 105.924 118.351 100.554C117.836 98.1248 117.137 94.2491 116.8 91.9406C115.747 84.751 114.356 86.5948 113.378 96.478C112.54 104.95 111.415 104.02 110.206 93.8577C109.72 89.7664 108.977 84.2324 108.555 81.56C107.551 75.1929 108.473 73.0231 113.067 70.9373C116.417 69.4169 118.969 69.2287 136.433 69.211C154.244 69.1933 159.577 68.5926 155.57 67.0554C153.135 66.1207 138.467 64.8061 130.301 64.7893C126.049 64.7814 122.57 64.549 122.57 64.2734C122.57 63.5905 126.833 57.8118 129.532 54.8354C130.744 53.4996 132.417 52.4059 133.251 52.4059C134.085 52.4059 138.832 53.8203 143.8 55.5501ZM77.4885 63.6223C77.7173 63.8228 77.3197 64.3661 76.605 64.83C74.634 66.1101 70.942 65.4227 70.6187 63.7168C70.3784 62.449 70.8563 62.2971 73.7037 62.737C75.5563 63.0233 77.2597 63.4217 77.4885 63.6223ZM108.236 63.9014C109.773 66.3619 108.715 70.075 106.478 70.075C105.231 70.075 104.869 69.6642 105.248 68.6774C105.544 67.9088 105.785 66.1198 105.785 64.7018C105.785 61.691 106.675 61.4004 108.236 63.9014ZM66.3065 72.5434C68.5355 75.0065 67.099 79.119 63.8576 79.5528C59.7469 80.1031 58.9156 76.3529 62.2948 72.5045C63.9972 70.5662 64.5211 70.5715 66.3065 72.5434ZM84.3609 75.1169C85.8186 78.2558 85.7558 79.7931 84.1709 79.7931C82.6399 79.7931 81.0479 77.1206 81.0479 74.5506C81.0479 71.9586 83.0533 72.3013 84.3609 75.1169ZM68.2908 88.7257C66.477 94.8322 66.5362 95.8667 69.0037 101.273C71.4262 106.579 73.0968 113.704 73.0968 118.728C73.0968 122.719 72.7611 122.943 63.3787 125.182C60.2204 125.935 56.6592 126.833 55.4656 127.176C54.7859 127.372 54.2543 126.582 54.6917 126.026L55.2094 125.368C58.1778 121.594 61.9537 110.729 65.6749 95.2536C67.5434 87.4791 69.2069 81.7861 69.3704 82.6016C69.5347 83.4179 69.0488 86.1734 68.2908 88.7257ZM62.7886 87.8087C62.7064 88.9881 61.5747 93.332 60.2716 97.4622C58.9694 101.592 57.1513 107.89 56.2325 111.455C55.3128 115.022 53.9691 119.682 53.2455 121.812C52.5228 123.942 52.1182 126.193 52.3479 126.813C52.6103 127.522 49.8919 129.427 45.0409 131.935C38.2321 135.455 37.027 136.45 34.8687 140.328C33.2423 143.25 32.5152 145.695 32.7051 147.612C32.9693 150.294 32.7493 150.561 29.5645 151.418C27.4 152.002 25.7567 152.033 25.1021 151.505C24.5314 151.046 22.4606 150.405 20.4993 150.082C17.7553 149.63 16.9345 149.099 16.9345 147.773C16.9345 146.732 17.5371 146.052 18.4594 146.052C20.8597 146.052 21.2016 144.514 19.2377 142.55C18.2482 141.561 17.7367 140.717 18.1016 140.675C18.4656 140.631 21.9446 140.533 25.8318 140.454L29.2676 140.384C31.5002 140.338 33.5229 139.057 34.5174 137.057L37.3168 131.43C39.7463 126.547 42.4002 120.981 43.213 119.062C44.0266 117.143 46.2927 111.995 48.2478 107.622C50.2029 103.249 52.8515 96.2916 54.1334 92.1615C55.4153 88.0313 56.63 84.1194 56.8323 83.4683C57.1212 82.5389 57.8174 82.6484 60.0684 83.9745C62.1631 85.2095 62.8973 86.2441 62.7886 87.8087ZM141.289 83.8711C142.254 84.4674 143.877 90.9335 144.359 96.107C145.266 105.817 145.412 108.081 145.928 120.432C146.223 127.478 146.627 135.628 146.826 138.543L146.908 139.742C147.061 141.993 145.335 143.931 143.082 144.036C139.701 144.195 130.984 146.352 125.913 148.285C125.015 148.626 124.768 145.08 124.724 131.262C124.694 121.661 124.39 112.613 124.048 111.156C123.494 108.795 123.56 108.674 124.642 110.051C129.244 115.906 132.004 104.323 130.039 87.3979C129.731 84.7362 131.98 82.4804 134.643 82.7815L135.028 82.8251C138.103 83.1732 140.921 83.644 141.289 83.8711ZM79.6997 88.5835C80.4409 90.0173 81.0479 91.7922 81.0479 92.5281C81.0479 95.5937 72.9678 97.0002 71.7327 94.1492C70.6125 91.5642 70.5356 90.2744 71.3705 88.079C72.0022 86.4181 72.8185 85.9773 75.2613 85.9773C77.7906 85.9773 78.5972 86.4508 79.6997 88.5835ZM106.904 91.8222C107.375 94.2853 105.612 96.5788 103.248 96.5788C99.3655 96.5788 98.1728 90.6905 101.588 88.3847C103.33 87.2079 103.755 87.2017 105.029 88.3299C105.829 89.0376 106.672 90.6092 106.904 91.8222ZM92.6839 100.691C96.5861 104.222 92.5417 111.382 87.3461 110.138C84.2637 109.4 84.3653 109.569 84.4245 105.261C84.5013 99.708 88.9054 97.2714 92.6839 100.691ZM110.602 108.88C111.055 109.612 106.724 113.364 105.428 113.364C104.479 113.364 104.877 110.209 105.961 109.124C107.219 107.867 109.889 107.726 110.602 108.88ZM119.326 110.194C119.589 110.879 120.086 116.263 120.432 122.157L120.685 126.492C120.887 129.949 118.128 132.86 114.664 132.842L92.1539 132.725C63.1508 132.577 59.6046 132.914 62.255 135.564C63.5051 136.814 79.6927 137.887 102.913 138.258L116.827 138.48C119.03 138.515 120.797 140.315 120.79 142.519C120.768 150.607 121.601 150.155 105.492 150.816C97.6357 151.138 86.8346 151.613 81.4896 151.873C60.8547 152.873 35.9916 150.107 35.9916 146.811C35.9916 143.786 38.8752 140.03 43.1617 137.469C51.3496 132.577 57.5541 130.711 86.7904 124.343C90.6776 123.497 96.2434 121.797 99.1588 120.565C105.097 118.057 114.687 112.06 115.768 110.178C116.681 108.586 118.712 108.596 119.326 110.194ZM81.7582 118.432C82.0409 121.232 80.4436 122.589 77.9797 121.644C76.1306 120.935 75.1623 115.155 76.7296 114.187C78.6087 113.025 81.4543 115.428 81.7582 118.432ZM163.522 139.257C170.075 140.508 174.556 142.519 170.792 142.519C169.557 142.519 169.285 143.027 169.61 144.727C169.842 145.942 169.69 146.936 169.271 146.936C168.853 146.936 168.51 147.93 168.51 149.144C168.51 150.809 168.046 151.353 166.629 151.353C163.903 151.353 152.328 147.069 151.251 145.661C150.747 145.003 150.495 142.796 150.689 140.756C151.092 136.536 149.966 136.667 163.522 139.257ZM159.455 153.355C164.922 156.149 169.394 158.765 169.394 159.169C169.394 159.573 166.977 159.537 164.022 159.09C159.38 158.387 158.501 158.482 157.547 159.786C156.637 161.03 156.104 161.113 154.507 160.258C152.311 159.083 150.841 159.645 150.841 161.66C150.841 162.606 150.364 162.839 149.295 162.417C147.961 161.891 135.466 157.196 128.755 154.701C126.983 154.042 126.808 153.735 127.871 153.152C128.975 152.546 139.28 149.834 145.982 148.387C148.602 147.822 148.703 147.859 159.455 153.355Z" stroke="white" stroke-width="12" mask="url(#path-2-outside-1_2087_53962)"/>
</svg>
