<svg width="334" height="265" viewBox="0 0 334 265" fill="none" xmlns="http://www.w3.org/2000/svg">
<path fill-rule="evenodd" clip-rule="evenodd" d="M52.9312 2.77223C50.6301 7.23638 50.052 15.2678 51.751 19.1789L53.2107 22.5397L53.3113 16.7783C53.407 11.3404 54.0942 7.08082 55.6765 2.13463C56.6892 -1.03127 54.6475 -0.556917 52.9312 2.77223ZM75.0253 4.87227C68.8274 5.78066 67.3189 6.68136 65.2379 10.7192C61.6906 17.6002 62.8315 38.3836 66.756 38.3836C67.9755 38.3836 68.6618 39.4149 69.1385 41.9673C70.448 48.9664 70.627 49.0596 78.4884 46.8414C91.1033 43.2828 100.022 37.7518 96.6015 35.6105C94.9139 34.5542 94.1051 24.586 95.2901 19.4468C96.2933 15.0959 95.696 13.9273 92.1333 13.2724C90.5903 12.9882 90.1624 12.0366 89.9269 8.36754L89.635 3.81505L85.1409 3.9322C82.6695 3.99654 78.117 4.42 75.0253 4.87227ZM88.0288 8.62777C87.7952 10.2189 87.2899 11.7159 86.9051 11.954C86.5203 12.1931 83.8784 12.0116 81.0336 11.5507C76.5128 10.82 75.6025 10.9535 73.8125 12.6137C71.3487 14.8991 69.7549 20.2351 68.8648 29.1836C68.1727 36.1328 66.5033 38.4038 65.3815 33.9195C64.4636 30.2514 65.6782 17.5657 67.4002 12.8365L68.836 8.89471L78.0921 7.44764C83.1825 6.65256 87.5962 5.94198 87.8996 5.869C88.203 5.79506 88.2614 7.03761 88.0288 8.62777ZM245.425 11.8801C240.81 14.2029 236.19 16.8714 235.158 17.8086C233.3 19.4948 233.306 19.539 235.703 22.05C239.515 26.0407 242.232 34.9335 241.649 41.5044C241.099 47.6999 241.316 47.8535 248.007 45.9907C252.347 44.7817 253.011 45.1658 251.495 48.0072C250.83 49.2555 250.723 50.4644 251.234 50.9772C251.708 51.4525 256.378 52.2476 261.612 52.745C271.127 53.6476 271.128 53.6476 273.759 51.1203C278.911 46.1673 282.146 31.4546 280.463 20.6192L279.717 15.818L272.108 15.6836C267.344 15.6001 264.363 15.1382 264.133 14.4478C263.932 13.8419 262.693 12.0664 261.38 10.5012C258.114 6.60742 255.439 6.83788 245.425 11.8801ZM262.332 16.4076C264.509 20.7757 265.054 23.2292 265.203 29.344L265.386 36.8905L255.814 40.4741C250.549 42.4455 245.704 44.0779 245.046 44.1019C244.217 44.1316 243.849 42.3782 243.849 38.3942C243.849 32.3735 241.333 24.1452 238.546 21.0571C237.057 19.4055 237.199 19.1914 241.128 17.1701C248.571 13.3406 255.773 10.5761 257.728 10.7989C258.998 10.9429 260.549 12.8336 262.332 16.4076ZM290.598 11.012C290.308 11.303 290.512 13.4741 291.05 15.8372C291.71 18.7276 291.718 21.8618 291.075 25.4175C290.067 30.9946 291.051 32.5185 292.781 28.0611C294.493 23.6459 292.616 8.9869 290.598 11.012ZM78.8292 14.3854C80.355 14.9173 84.1033 15.673 87.1587 16.0658L92.7133 16.7783L92.9019 27.0912C93.0139 33.2377 92.7038 37.5703 92.1333 37.8161C81.1121 42.5568 72.0723 45.9446 71.6339 45.499C70.3475 44.194 71.3784 23.0851 72.9616 18.3022C74.7199 12.9911 74.7582 12.9661 78.8292 14.3854ZM278.401 22.7798C278.632 34.1067 277.174 40.886 273.344 46.3056C271.674 48.6678 270.892 48.9463 265.919 48.9463C257.347 48.9463 254.224 48.0869 254.568 45.8236C254.772 44.4831 256.51 43.3039 260.45 41.8338C263.526 40.6853 266.486 38.9521 267.027 37.9823C268.067 36.1184 267.577 22.8105 266.361 19.899C265.734 18.3972 266.332 18.2186 271.984 18.2186H278.308L278.401 22.7798ZM174.692 33.1196C172.279 34.4803 172.059 35.0833 172.059 40.3349C172.059 44.7203 171.731 46.0656 170.661 46.0656C168.146 46.0656 165.25 50.1437 165.554 53.2558C165.797 55.7361 166.274 56.1903 168.902 56.4457C170.974 56.6464 172.165 57.3695 172.579 58.6783C172.916 59.7432 173.021 60.7841 172.814 60.9934C172.606 61.2018 169.541 61.6109 166.002 61.9028C158.339 62.5356 151.911 65.2204 142.009 71.9229C131.804 78.8308 128.86 81.6251 122.551 90.3883C119.509 94.6124 115.85 99.6555 114.42 101.594C112.99 103.534 111.55 106.479 111.221 108.14C110.774 110.4 108.23 113.304 101.127 119.663C95.9037 124.339 91.2048 128.31 90.685 128.486C90.1653 128.662 89.7403 127.495 89.7403 125.893C89.7403 119.983 87.6986 113.069 85.8072 112.573C84.8117 112.311 83.9703 111.393 83.9378 110.529C83.73 105.051 82.7384 100.132 81.6108 98.9786C78.6894 95.9932 57.3449 96.2198 48.6286 99.33C46.2854 100.165 43.5928 101.554 42.6462 102.413C40.2723 104.568 40.3364 111.384 42.7572 114.376C44.5232 116.559 45.0631 116.64 57.1956 116.57L69.799 116.497L69.0887 118.971C67.4625 124.641 68.3268 132.048 71.9469 143.465C75.6896 155.272 78.8292 161.468 81.9027 163.119C84.177 164.339 91.4307 161.055 98.8145 155.463C101.748 153.241 104.364 151.639 104.628 151.903C104.891 152.167 102.029 159.034 98.267 167.161C94.5042 175.29 89.1076 187.839 86.2733 195.05C83.439 202.261 79.7969 210.685 78.1783 213.771C76.1998 217.545 75.4015 220.204 75.7384 221.897C76.2074 224.248 75.6953 224.673 67.9143 228.382C63.335 230.566 56.4662 234.116 52.6489 236.273C47.0263 239.449 45.7092 240.634 45.7092 242.514C45.7092 244.461 46.1792 244.835 48.6315 244.835C50.2387 244.835 54.4379 244.219 57.9642 243.468C61.4896 242.716 65.8821 241.855 67.7247 241.555C71.4903 240.941 71.7172 240.639 63.5456 247.11C61.2885 248.897 60.0671 250.667 60.0671 252.151C60.0671 255.606 64.8187 255.181 71.4674 251.129C76.3165 248.174 82.0827 245.435 82.0827 246.087C82.0827 246.221 80.802 249.343 79.2369 253.025C76.2237 260.112 75.5336 265 77.5446 265C78.9594 265 96.4407 248.092 96.4407 246.725C96.4407 244.806 98.4718 245.919 101.881 249.705C105.842 254.103 112.155 257.739 114.358 256.89C116.468 256.078 115.294 251.342 111.326 244.66C108.481 239.869 108.097 238.462 108.313 233.6C108.557 228.105 111.534 216.493 114.21 210.602C114.966 208.937 115.585 207.198 115.585 206.738C115.585 205.601 120.934 191.598 123.408 186.26C127.559 177.303 134.369 159.844 139.05 146.155C139.314 145.386 142.908 147.589 148.823 152.145C166.692 165.908 164.897 163.506 166.188 175.386C166.809 181.103 168.385 191.87 169.688 199.312C170.992 206.755 172.059 213.958 172.059 215.318C172.059 216.679 172.688 219.016 173.457 220.511C174.226 222.006 175.098 224.429 175.396 225.894C176.008 228.907 184.852 238.201 191.425 242.738C196.07 245.943 204.562 249.636 207.289 249.636C210.205 249.636 216.091 244.952 216.082 242.64C216.068 239.637 211.399 231.881 205.659 225.331C201.473 220.552 200.869 219.378 201.469 217.169C202.83 212.154 202.399 209.638 194.929 179.059C189.92 158.552 186.988 152.636 176.017 140.892C171.208 135.745 167.273 131.078 167.273 130.523C167.273 129.967 171.689 127.383 177.085 124.78C182.48 122.177 187.61 119.525 188.484 118.885C189.833 117.898 190.839 118.507 195.184 122.945C204.156 132.108 219.598 142.072 225.936 142.789C231.121 143.375 234.135 141.912 251.19 130.52C267.338 119.734 282.878 106.331 283.281 102.844C283.501 100.944 284.639 99.7794 287.88 98.1374C292.788 95.6523 294.331 95.7416 311.035 99.4731C316.663 100.731 322.325 101.759 323.615 101.759C328.321 101.759 327.523 95.8453 322.298 91.9813L319.29 89.7564L325.26 88.7962C333.158 87.5258 334.59 85.4891 330.308 81.6174C328.637 80.106 324.58 77.8859 321.295 76.6837C318.009 75.4825 315.847 74.3235 316.491 74.1074C317.134 73.8923 321.19 72.788 325.504 71.654C331.95 69.9592 333.347 69.2563 333.347 67.7132C333.347 64.4493 326.549 63.057 310.136 62.9581C302.108 62.9091 295.54 62.7065 295.539 62.5058C295.539 62.3061 297.065 60.4461 298.932 58.3739C302.97 53.8896 304.616 50.5816 303.83 48.5276C301.675 42.8948 284.606 53.7283 272.343 68.5111C269.723 71.6684 265.883 75.0945 263.808 76.1249C257.914 79.0498 231.651 107.969 229.92 113.439C229.608 114.424 228.908 114.955 228.364 114.618C227.269 113.938 221.192 101.337 217.996 93.1173C213.463 81.459 203.576 68.1511 199.449 68.1511C198.273 68.1511 196.476 67.5163 195.454 66.7414C193.773 65.4653 193.756 65.3289 195.271 65.3011C196.193 65.2838 197.808 64.4061 198.861 63.3499C200.429 61.777 200.771 60.1686 200.752 54.4676C200.739 50.6392 200.299 45.6402 199.776 43.3606C198.948 39.7606 199.08 38.8868 200.784 36.7148C203.795 32.8738 202.082 32.1728 189.003 31.8886C179.884 31.6908 176.747 31.9616 174.692 33.1196ZM176.845 36.4632C176.845 36.9913 176.415 37.4234 175.888 37.4234C175.362 37.4234 174.931 36.9913 174.931 36.4632C174.931 35.935 175.362 35.5029 175.888 35.5029C176.415 35.5029 176.845 35.935 176.845 36.4632ZM130.559 41.7887C125.596 45.5902 125.105 46.7483 128.267 47.1986C129.81 47.4185 130.507 48.2559 130.724 50.1466C130.985 52.4204 131.457 52.7872 134.122 52.7872C137.96 52.7872 139.515 51.3113 139.515 47.6672C139.515 45.3944 136.307 38.3836 135.267 38.3836C135.122 38.3836 133.004 39.9162 130.559 41.7887ZM197.425 41.2644C197.1 41.7925 196.213 42.2246 195.454 42.2246C193.422 42.2246 193.775 44.2469 195.906 44.8048C197.331 45.1793 197.876 46.4871 198.365 50.7189C199.217 58.0849 197.993 61.0184 193.732 61.8202C190.741 62.3839 190.21 62.9638 188.807 67.2004C187.942 69.8123 187.481 72.3473 187.78 72.8341C188.359 73.7752 182.203 79.6739 180.641 79.6739C180.132 79.6739 179.717 78.753 179.717 77.6267C179.717 76.5003 178.801 74.092 177.681 72.2743C175.993 69.5357 175.83 68.5639 176.724 66.5945C178.36 62.9926 178.039 61.027 175.409 58.5487C174.093 57.308 173.016 55.4577 173.016 54.436C173.016 52.9351 172.558 52.6941 170.623 53.1819C168.629 53.6841 168.23 53.4421 168.23 51.7281C168.23 50.0717 168.492 49.8892 169.573 50.789C170.604 51.6484 171.012 51.6196 171.332 50.667C171.664 49.6751 172.037 49.6655 173.188 50.6181C175.117 52.214 175.888 51.2316 175.888 47.1814C175.888 41.3008 177.72 40.3041 188.536 40.3041C194.613 40.3041 197.804 40.6488 197.425 41.2644ZM137.067 45.4116C138.004 48.0849 136.883 49.8643 134.25 49.8844C132.513 49.8979 130.796 44.9478 132.024 43.4643C133.664 41.4804 136.006 42.385 137.067 45.4116ZM185.221 42.8766C182.304 43.6582 183.413 45.2398 186.657 44.9258C188.367 44.7606 189.682 44.1931 189.579 43.665C189.36 42.5511 187.612 42.2352 185.221 42.8766ZM186.417 48.4095C186.417 49.171 186.848 50.0602 187.374 50.3866C187.901 50.7131 188.332 50.0899 188.332 49.0029C188.332 47.9159 187.901 47.0258 187.374 47.0258C186.848 47.0258 186.417 47.648 186.417 48.4095ZM192.591 49.5752C192.985 51.1491 192.794 52.3945 192.093 52.8285C190.371 53.8963 191.898 55.5566 194.076 54.9852C196.373 54.3831 196.444 53.5746 194.529 49.8585C192.713 46.3354 191.745 46.1942 192.591 49.5752ZM195.032 47.9294C195.032 48.4268 195.463 49.0999 195.989 49.4264C196.516 49.7529 196.946 49.3457 196.946 48.5228C196.946 47.6999 196.516 47.0258 195.989 47.0258C195.463 47.0258 195.032 47.432 195.032 47.9294ZM49.761 51.32C46.989 52.6144 44.4514 54.3774 44.1222 55.2368C43.2501 57.5174 48.3338 67.5192 52.3809 71.484C54.2991 73.3632 57.2032 75.2847 58.8352 75.7542C61.4005 76.4917 62.1156 76.2632 64.1305 74.0594C66.421 71.5541 70.6011 65.7725 70.5915 65.1225C70.5858 64.722 55.4247 48.9424 55.0591 48.9559C54.9184 48.9607 52.534 50.0246 49.761 51.32ZM296.279 56.3881C287.545 65.2828 287.062 70.0446 295.092 68.0685C300.756 66.6742 324.81 65.762 325.519 66.9143C325.869 67.4827 322.039 68.7675 316.083 70.0792C300.774 73.4497 299.968 76.3774 313.635 78.9691C323.2 80.783 329.04 82.8513 329.04 84.4261C329.04 85.6245 329.124 85.6236 317.585 84.5039C308.413 83.6147 306.067 84.1064 306.067 86.918C306.067 87.6045 309.189 89.671 313.007 91.5108C324.974 97.278 327.088 100.048 317.075 96.8449C298.367 90.8588 292.992 90.13 288.359 92.954C286.779 93.9171 283.333 95.443 280.701 96.3456L275.915 97.9876L273.822 95.5697C272.671 94.2398 270.764 90.1453 269.584 86.4705L267.439 79.7891L270.117 75.9117C276.353 66.8864 295.3 50.8667 299.74 50.8667C301.313 50.8667 300.631 51.9547 296.279 56.3881ZM57.2501 54.3294C57.9843 55.7054 60.7994 58.8627 63.5073 61.3449L68.4292 65.858L65.7883 68.8223C64.3363 70.4527 62.7052 72.5816 62.1634 73.5524C61.2569 75.1781 60.8118 75.0081 56.5542 71.4149C52.5474 68.032 45.7092 58.6072 45.7092 56.4669C45.7092 55.7102 53.0739 52.0488 54.8801 51.9077C55.4496 51.8635 56.5159 52.9534 57.2501 54.3294ZM188.515 57.6604C188.704 58.2279 189.268 58.6927 189.767 58.6927C190.267 58.6927 190.831 58.2279 191.019 57.6604C191.208 57.0929 190.645 56.6282 189.767 56.6282C188.89 56.6282 188.327 57.0929 188.515 57.6604ZM27.0438 65.9905C28.695 70.0591 34.7387 76.2199 36.1937 75.3173C36.7201 74.9908 34.9847 72.3463 32.3371 69.4397C29.6886 66.5331 27.5224 63.758 27.5224 63.2721C27.5224 62.7872 27.086 62.3896 26.5528 62.3896C25.9842 62.3896 26.1881 63.8828 27.0438 65.9905ZM172.747 68.3825C173.343 70.6227 173.755 72.5173 173.663 72.5941C173.571 72.6699 171.671 73.0348 169.44 73.4045L165.386 74.0767L166.784 70.1003C167.554 67.9139 168.434 65.7159 168.742 65.2175C169.996 63.1799 171.727 64.5473 172.747 68.3825ZM119.931 69.0854C114.685 72.5374 104.175 83.6272 101.192 88.8567C97.3012 95.6792 97.6687 99.0122 101.718 93.6156C103.29 91.5194 109.077 85.1463 114.576 79.454C121.012 72.7919 124.245 68.7733 123.65 68.176C123.054 67.5778 121.729 67.9024 119.931 69.0854ZM105.22 71.9517C100.673 75.5574 97.3241 79.7219 99.0394 79.6365C100.36 79.5702 111.285 69.2784 110.678 68.6705C110.357 68.3489 107.901 69.8257 105.22 71.9517ZM158.08 71.2718C157.984 72.9878 157.824 74.3926 157.726 74.3926C157.629 74.3926 157.397 76.7356 157.21 79.599C156.795 85.9817 154.395 89.5711 150.098 90.2365L146.998 90.7167L149.478 93.0443C150.842 94.3252 151.958 96.3773 151.958 97.6054C151.958 100.732 150.502 100.387 149.071 96.9217C147.76 93.7462 141.145 89.2763 137.755 89.2763C136.617 89.2763 135.686 88.8768 135.686 88.39C135.686 87.3501 129.791 90.0839 128.76 91.602C128.374 92.1714 128.051 94.2792 128.043 96.286C128.027 100.194 125.149 106.974 124.421 104.813C123.303 101.491 125.346 93.3247 128.147 89.9158C130.772 86.7202 131.48 86.3956 135.819 86.3956C138.447 86.3956 141.477 86.8671 142.551 87.4442C144.431 88.4534 144.48 88.3122 143.846 83.6868C143.197 78.9528 144.294 74.8727 146.216 74.8727C146.705 74.8727 147.393 77.0429 147.744 79.695C148.095 82.3482 148.721 84.7286 149.136 84.986C149.551 85.2433 150.786 84.3109 151.882 82.9147C153.369 81.0173 153.873 78.9912 153.873 74.9035C153.873 69.0642 154.255 68.1511 156.703 68.1511C157.854 68.1511 158.211 68.9596 158.08 71.2718ZM195.718 74.9236L196.098 79.1938L193.553 76.6732C191.363 74.504 191.164 73.8597 192.128 72.0535C193.798 68.9231 195.29 70.1147 195.718 74.9236ZM173 77.9935C172.992 78.6541 171.269 80.8905 169.171 82.9637C167.074 85.0368 165.359 87.521 165.359 88.4851C165.359 91.7566 168.988 90.346 173.203 85.4353C177.781 80.1022 180.203 78.8635 176.482 83.7588C175.174 85.4776 173.664 88.0482 173.125 89.4703C171.708 93.2085 168.015 95.3537 164.376 94.5519C160.637 93.728 159.895 91.8584 161.773 87.9886C165.056 81.2237 173.053 74.1045 173 77.9935ZM201.305 84.8727C197.331 87.0303 194.08 89.1351 194.078 89.549C194.076 89.9629 192.882 91.4753 191.423 92.9098C187.657 96.6154 184.938 101.502 183.631 106.918C182.674 110.885 182.727 111.844 183.981 113.234C186.546 116.078 184.952 119.489 182.148 117.155C181.12 116.299 180.7 116.489 180.211 118.034C179.868 119.119 178.772 120.444 177.776 120.979C176.035 121.913 176.019 121.793 177.361 117.976C178.131 115.789 178.76 112.964 178.76 111.697C178.76 110.43 179.621 106.934 180.674 103.93C182.029 100.06 182.588 96.0037 182.588 90.0301C182.588 83.1721 182.857 81.5944 184.024 81.5944C185.168 81.5944 185.46 83.005 185.46 88.5264V95.4574L190.964 90.0666C198.12 83.0578 205.514 78.44 207.258 79.8909C208.248 80.7158 206.937 81.8133 201.305 84.8727ZM268.302 91.3984C268.673 93.0942 269.882 95.7089 270.988 97.2098C272.71 99.547 272.796 100.066 271.585 100.834C270.497 101.523 270.744 101.733 272.656 101.745C275.369 101.76 279.697 105.5 277.26 105.723C276.52 105.79 274.838 106.058 273.522 106.319C272.206 106.579 269.043 106.843 266.492 106.906C262.529 107.005 261.52 106.632 259.559 104.344C257.392 101.819 257.341 101.479 258.643 98.3525C260.475 93.9565 264.822 88.3161 266.381 88.3161C267.066 88.3161 267.93 89.7036 268.302 91.3984ZM213.615 91.0623C213.895 91.5175 212.358 93.4793 210.2 95.4228C208.042 97.3663 206.583 99.2628 206.958 99.6373C207.332 100.013 209.971 100.296 212.822 100.268C216.344 100.234 218.005 100.6 218.005 101.412C218.005 103.121 217.056 103.511 211.678 104.012C202.033 104.911 199.778 98.8211 207.639 93.1086C211.826 90.0666 212.797 89.7343 213.615 91.0623ZM251.755 97.2194C252.538 98.4187 253.498 101.336 253.887 103.701C254.276 106.066 254.923 108.433 255.323 108.961C255.724 109.489 256.321 111.326 256.651 113.042C256.98 114.758 257.513 117.455 257.836 119.032C258.281 121.214 258.028 122.054 256.782 122.533C254.536 123.397 254.081 122.386 251.487 110.793C250.243 105.234 248.85 100.453 248.392 100.168C247.331 99.5105 244.188 102.34 242.427 105.54C237.513 114.46 235.902 119.229 234.806 128.095C234.181 133.154 233.267 136.825 232.576 137.057C229.591 138.055 232.527 117.968 236.428 110.709C238.523 106.81 248.499 95.0531 249.722 95.0425C250.056 95.0396 250.971 96.0191 251.755 97.2194ZM264.975 97.7907C263.795 100.003 265.915 102.314 268.286 101.401C269.445 100.956 269.553 100.409 268.773 98.9469C267.257 96.1065 266.068 95.7445 264.975 97.7907ZM4.05961 99.2407C-1.34951 107.524 -0.116644 124.242 6.32912 129.995C8.14014 131.611 8.37848 131.639 8.37848 130.235C8.37848 129.361 7.98603 128.646 7.50648 128.646C5.52891 128.646 2.6353 120.301 2.6353 114.594C2.6353 109.229 4.92013 98.8787 6.10514 98.8787C6.39326 98.8787 9.40173 99.62 12.7912 100.526C17.6882 101.835 18.8139 102.476 18.2711 103.647C17.8949 104.458 17.4154 107.611 17.2048 110.657C16.9004 115.052 17.2421 116.907 18.8608 119.66C19.9826 121.566 20.7742 123.235 20.622 123.368C20.4688 123.5 18.5918 124.495 16.4505 125.577C14.3093 126.659 11.9957 128.226 11.3085 129.056C9.84778 130.821 10.5848 130.991 13.3243 129.52C14.9334 128.657 15.7164 128.899 17.8088 130.904C19.2025 132.24 22.3823 133.879 24.8739 134.546C29.2789 135.724 29.4837 135.683 32.2146 133.056C34.8029 130.569 41.4018 119.596 41.4018 117.78C41.4018 117.349 39.0327 116.052 36.1372 114.898C32.8703 113.596 30.5137 111.981 29.9279 110.641C28.7218 107.885 27.689 107.925 23.6936 110.882C19.8582 113.72 18.9708 113.87 19.4178 111.602C20.5598 105.81 20.9829 104.616 22.389 103.206C24.5465 101.041 23.1557 99.9109 16.3615 98.3074C8.23969 96.3907 5.80075 96.576 4.05961 99.2407ZM177.802 100.383C177.802 100.646 177.086 102.467 176.209 104.431C173.942 109.509 172.151 116.143 172.101 119.647C172.078 121.298 171.344 123.243 170.471 123.968C169.012 125.178 168.926 124.802 169.414 119.387C169.713 116.062 171.092 110.923 172.577 107.604C174.025 104.367 174.964 101.473 174.664 101.172C173.471 99.9743 169.527 102.242 165.236 106.593C161.58 110.3 160.579 112.061 159.983 115.829C159.138 121.18 159.368 123.794 160.844 125.598C161.611 126.536 161.536 127.09 160.557 127.695C158.682 128.858 157.908 128.122 156.679 124.007C154.393 116.353 160.388 105.058 169.107 100.587C173.009 98.5868 174.626 98.2008 176.003 98.9401C176.993 99.4721 177.802 100.121 177.802 100.383ZM121.359 102.911C120.729 104.655 120.013 107.809 119.768 109.921C119.523 112.034 119.162 114.627 118.964 115.683C118.764 116.739 118.57 118.359 118.53 119.284C118.489 120.208 118.025 120.964 117.499 120.964C115.258 120.964 117.73 103.512 120.433 100.244C122.204 98.1028 122.642 99.3646 121.359 102.911ZM80.5895 101.867C80.7914 102.071 81.0862 104.379 81.2451 106.995L81.5342 111.75L76.799 114.196L72.0637 116.643L69.8937 114.438C67.8358 112.348 67.2423 112.263 58.3921 112.812C46.8741 113.524 43.4311 112.696 43.0108 109.113C42.7419 106.824 43.2597 106.266 47.3182 104.463C49.8548 103.338 54.3 102.082 57.1956 101.675C62.2697 100.96 79.839 101.105 80.5895 101.867ZM148.115 109.156C146.984 111.689 144.594 117.786 142.806 122.704C141.017 127.622 139.261 132.122 138.902 132.704C138.543 133.287 138.157 134.88 138.043 136.245C137.93 137.612 136.255 143.05 134.321 148.331C129.605 161.214 128.871 162.715 129.638 157.933C129.977 155.821 130.256 153.553 130.257 152.892C130.259 152.232 130.728 151.685 131.299 151.677C131.868 151.669 131.761 151.297 131.059 150.851C130.043 150.204 130.112 149.912 131.398 149.417C132.354 149.048 132.785 148.199 132.455 147.336C132.143 146.52 132.708 145.181 133.736 144.297C135.132 143.1 135.35 142.293 134.64 140.963C133.917 139.608 132.566 139.209 128.703 139.209C124.673 139.209 123.191 138.734 121.079 136.77C118.58 134.445 117.827 132.478 118.99 131.312C119.283 131.017 120.843 131.985 122.455 133.462C127.288 137.89 137.54 137.794 136.128 133.334C135.772 132.208 135.85 131.017 136.301 130.687C136.752 130.356 137.877 128.721 138.8 127.053L140.477 124.019L136.141 121.913C130.847 119.342 126.647 114.215 127.535 111.407C128.421 108.609 129.359 108.96 131.169 112.766C132.154 114.838 134.189 116.827 136.572 118.047C141.176 120.403 142.386 120.493 142.386 118.475C142.386 117.634 143.255 115.837 144.318 114.484C145.451 113.037 146.018 111.29 145.688 110.251C145.371 109.246 145.595 108.481 146.207 108.481C146.8 108.481 147.062 108.119 146.79 107.677C146.517 107.236 147.004 105.858 147.87 104.617C150.278 101.169 150.429 103.976 148.115 109.156ZM153.252 109.681C152.464 113.977 148.968 121.701 148.442 120.309C148.206 119.685 148.685 117.869 149.507 116.275C150.329 114.681 151.001 112.679 151.001 111.827C151.001 110.214 152.668 106.561 153.403 106.561C153.635 106.561 153.567 107.965 153.252 109.681ZM29.6991 114.839C30.7846 116.223 33.1278 117.965 34.9053 118.711L38.1378 120.066L36.2607 122.675C35.2279 124.111 32.6626 126.956 30.5587 128.999L26.7347 132.711L22.3105 131.016C19.8773 130.084 18.0079 128.978 18.1572 128.561C18.3065 128.143 19.9031 126.803 21.7055 125.583C25.1687 123.238 26.5777 120.964 24.5666 120.964C23.1595 120.964 19.8649 118.158 19.8649 116.96C19.8649 116.073 25.5487 112.332 26.906 112.326C27.3568 112.324 28.6136 113.455 29.6991 114.839ZM87.8642 123.673L88.92 130.501L85.5171 134.972C83.6458 137.431 82.3555 139.835 82.6503 140.314C83.3529 141.454 89.969 135.778 101.208 124.394C106.198 119.339 110.585 115.203 110.955 115.203C111.324 115.203 111.928 116.175 112.296 117.363C112.663 118.552 113.791 120.701 114.801 122.14L116.638 124.757L112.656 134.624C110.466 140.05 108.453 145.049 108.183 145.732C107.912 146.414 105.913 147.865 103.741 148.957C101.568 150.049 96.991 152.804 93.5691 155.08C90.1471 157.355 86.4006 159.491 85.2424 159.825C82.4081 160.643 79.6265 157.736 78.2032 152.467C77.5887 150.192 76.73 147.467 76.2945 146.411C75.0684 143.436 74.5677 141.29 73.0209 132.367C72.2312 127.813 71.3544 123.482 71.0721 122.743C70.491 121.224 74.3409 118.662 81.0681 116.091C86.3106 114.088 86.3968 114.184 87.8642 123.673ZM218.244 121.126C223.818 122.188 224.717 122.95 222.551 124.781C219.655 127.23 213.972 130.567 212.698 130.567C210.297 130.567 211.17 129.021 214.625 127.155C218.632 124.99 217.709 124.162 210.356 123.326C203.235 122.518 202.008 122.109 201.324 120.322C200.812 118.982 201.487 118.872 206.739 119.435C210.04 119.789 215.217 120.55 218.244 121.126ZM306.22 133.168C296.172 137.08 297.055 135.432 298.947 146.753L299.646 150.938L293.669 150.594L287.692 150.251L285.806 155.289C283.959 160.224 272.754 173.875 269.983 174.568C269.3 174.738 266.679 172.627 264.158 169.876C260.567 165.959 259.148 165.011 257.608 165.501C254.93 166.354 252.961 170.367 253.076 174.739C253.318 184.005 274.07 201.624 284.739 201.624C288.569 201.624 294.753 197.79 300.827 191.649C305.561 186.864 307.42 183.975 310.897 176.009L315.16 166.237L321.314 165.148C331.078 163.42 331.021 163.487 330.43 154.357C330.123 149.609 329.165 144.795 328 142.144C325.839 137.229 318.889 129.585 316.636 129.647C315.825 129.67 311.137 131.254 306.22 133.168ZM165.359 132.691C165.359 133.269 167.404 135.968 169.906 138.689C185.999 156.2 186.594 157.453 192.731 186.741C193.506 190.437 195.123 197.567 196.325 202.584C199.042 213.927 198.658 215.863 193.135 218.668C187.726 221.417 179.281 221.684 177.933 219.149C177.003 217.402 174.308 201.696 171.565 182.056C170.689 175.782 169.399 169.018 168.699 167.026C166.671 161.263 148.19 144.371 141.16 141.857C140.748 141.709 140.898 140.189 141.492 138.479C142.459 135.697 142.963 135.368 146.262 135.368C151.189 135.368 159.655 133.506 161.925 131.923C163.849 130.582 165.359 130.919 165.359 132.691ZM322.463 138.634C326.292 143.728 327.922 148.544 328.312 155.921L328.561 160.629L323.296 161.881C320.401 162.57 317.709 163.151 317.314 163.174C316.919 163.196 316.596 161.323 316.596 159.011C316.596 156.699 316.058 154.365 315.4 153.825C314.742 153.284 311.386 152.542 307.943 152.176L301.683 151.511L300.495 145.229C299.842 141.774 299.429 138.85 299.576 138.73C300.89 137.663 314.733 133.599 316.564 133.742C318.153 133.867 320.079 135.464 322.463 138.634ZM296.974 154.078C301.185 154.841 306.893 155.481 309.656 155.499C315.665 155.54 315.853 156.209 312.422 165.353C306.52 181.081 302.035 187.669 292.854 194.101C284.217 200.151 280.445 199.329 281.592 191.649C282.219 187.453 282.181 187.38 276.928 182.758C274.015 180.196 271.627 177.848 271.62 177.541C271.614 177.234 273.596 175.551 276.026 173.8C280.996 170.221 287.526 160.806 288.443 155.898C288.777 154.113 289.11 152.661 289.183 152.671C289.257 152.681 292.762 153.315 296.974 154.078ZM114.687 160.022C116.828 161.963 119.232 164.815 120.029 166.361C121.209 168.65 121.972 169.099 124.136 168.78C126.38 168.45 126.719 168.679 126.309 170.251C126.042 171.275 125.018 172.324 124.032 172.583C122.704 172.931 122.291 173.83 122.434 176.056C122.546 177.796 121.184 182.289 119.194 186.741C115.679 194.607 105.055 225.7 105.055 228.125C105.055 228.865 104.625 229.471 104.098 229.471C102.793 229.471 102.951 227.538 104.483 224.764C105.184 223.496 105.549 221.659 105.295 220.683C105.04 219.707 105.287 218.909 105.842 218.909C106.398 218.909 107.124 216.857 107.455 214.347C107.787 211.838 108.503 208.868 109.048 207.746C110.615 204.514 108.452 201.278 105.21 202.005C103.809 202.318 100.724 202.783 98.355 203.038C95.986 203.292 92.5688 203.935 90.7607 204.467C87.1511 205.528 86.3719 205.267 87.1415 203.257C87.4554 202.437 90.5309 201.473 95.1561 200.747C106.309 198.994 106.97 198.813 106.97 197.504C106.97 195.363 100.983 188.94 97.7089 187.568C95.9582 186.835 94.5263 185.808 94.5263 185.288C94.5263 181.891 104.014 187.899 106.909 193.128C108.18 195.424 109.668 197.603 110.217 197.969C111.595 198.889 113.67 196.968 113.67 194.772C113.67 193.773 114.075 192.205 114.57 191.288C115.808 188.994 116.89 184.208 116.633 182.173C116.515 181.245 117.093 180.226 117.916 179.909C118.87 179.543 119.413 178.143 119.413 176.055C119.413 172.074 117.873 171.267 108.592 170.389C104.273 169.98 102.205 169.396 102.454 168.654C102.707 167.899 105.054 167.646 109.685 167.875C113.843 168.08 116.542 167.836 116.542 167.254C116.542 166.251 111.405 161.552 108.386 159.794C106.474 158.681 107.157 156.493 109.416 156.493C110.174 156.493 112.546 158.081 114.687 160.022ZM128.985 163.215C128.985 163.743 128.796 164.175 128.563 164.175C128.331 164.175 127.875 163.743 127.55 163.215C127.224 162.687 127.415 162.254 127.972 162.254C128.529 162.254 128.985 162.687 128.985 163.215ZM23.5797 166.825L17.244 169.115L17.6489 173.606C18.7784 186.148 22.5651 194.045 28.8108 196.89C34.2879 199.385 34.8067 199.269 37.6869 194.903C39.0806 192.79 40.6092 191.062 41.084 191.062C42.3906 191.062 40.6341 193.874 36.1066 199.033C32.4616 203.186 31.7638 203.58 29.0731 203.019C22.2129 201.588 16.7118 196.952 12.7452 189.257C11.1218 186.107 11.1323 185.932 13.1042 183.256C15.4761 180.037 14.6912 179.627 11.6492 182.494C9.79035 184.246 9.64869 184.917 10.492 187.981C11.9488 193.275 17.3321 201.085 21.159 203.457C25.5975 206.208 30.8152 207.038 33.7557 205.458C35.9888 204.26 42.8749 195.152 44.0772 191.807C44.4342 190.816 44.0867 189.824 43.2128 189.333C41.9187 188.606 41.9426 188.116 43.4263 184.994C45.0765 181.523 45.0679 181.441 42.8443 179.065C41.6038 177.741 38.8336 173.99 36.6876 170.73C34.5425 167.471 32.1409 164.744 31.3512 164.669C30.5615 164.596 27.0639 165.565 23.5797 166.825ZM40.079 180.14L42.1494 182.351L37.9961 188.867C35.7122 192.45 33.7327 195.543 33.5987 195.738C33.4647 195.934 32.2165 195.807 30.8257 195.457C26.907 194.47 22.8944 189.289 20.6603 182.331C18.4549 175.462 18.7775 171.182 21.5687 170.285C22.4742 169.994 25.1438 168.967 27.5023 168.003L31.7887 166.25L34.8986 172.089C36.6091 175.301 38.9408 178.924 40.079 180.14ZM264.394 173.616C267.008 176.609 271.315 180.919 273.966 183.192C278.631 187.19 278.787 187.489 278.793 192.421L278.797 197.519L276.082 196.57C274.588 196.047 269.309 191.622 264.35 186.737C256.005 178.514 255.335 177.573 255.335 174.087C255.335 170.372 256.676 167.941 258.638 168.095C259.19 168.138 261.781 170.622 264.394 173.616ZM205.293 179.252C204.235 181.1 207.995 199.704 209.427 199.704C210.683 199.704 210.589 189.998 209.284 184.794C208.239 180.632 206.158 177.741 205.293 179.252ZM215.148 188.421C215.14 189.873 215.564 191.062 216.09 191.062C217.3 191.062 217.3 189.1 216.09 187.221C215.368 186.098 215.159 186.363 215.148 188.421ZM314.375 190.568C313.44 192.674 311.728 195.417 310.568 196.665C308.273 199.134 300.259 203.545 298.065 203.545C296.549 203.545 295.205 206.106 296.349 206.815C297.504 207.531 304.725 205.642 308.131 203.733C312.407 201.336 316.815 193.955 316.398 189.891L316.074 186.741L314.375 190.568ZM313.964 207.496C309.3 210.492 310.149 212.676 314.984 210.122C317.115 208.998 318.469 207.479 318.496 206.185C318.52 205.013 317.264 205.376 313.964 207.496ZM95.83 207.866C96.1324 208.658 95.963 209.306 95.4538 209.306C94.9436 209.306 94.5263 208.658 94.5263 207.866C94.5263 207.074 94.6957 206.425 94.9024 206.425C95.1092 206.425 95.5265 207.074 95.83 207.866ZM9.33568 212.529C9.33568 215.745 16.2926 219.869 21.7161 219.869C27.4947 219.869 26.8983 217.407 20.9273 216.613C18.3534 216.27 14.6922 214.931 12.7912 213.637C10.5303 212.099 9.33568 211.714 9.33568 212.529ZM203.647 227.731C212.077 239.251 212.881 242.047 208.431 244.356C205.755 245.743 205.21 245.701 200.534 243.744C194.639 241.276 190.671 238.496 183.785 232.007C177.828 226.395 177.022 223.344 181.864 224.737C186.555 226.086 191.306 225.737 195.032 223.767C196.875 222.794 198.598 221.963 198.861 221.921C199.124 221.88 201.278 224.494 203.647 227.731ZM80.421 228.839C84.2622 232.474 92.5994 235.851 100.003 236.772C103.87 237.253 105.142 237.835 105.618 239.34C105.957 240.41 107.476 243.4 108.995 245.983C113.817 254.187 112.028 254.769 103.602 247.74C100.453 245.112 97.4457 242.956 96.9193 242.946C96.3928 242.938 92.5937 246.599 88.4777 251.084C84.3608 255.57 80.5952 259.239 80.109 259.239C79.6227 259.239 81.0374 255.572 83.2533 251.091C85.834 245.87 86.9491 242.614 86.3566 242.026C85.7679 241.442 81.7017 242.945 75.143 246.174C69.4841 248.959 64.8531 250.902 64.8531 250.491C64.8531 250.08 68.0617 247.321 71.9833 244.361C76.9607 240.602 78.944 238.533 78.5516 237.507C78.1773 236.527 77.3178 236.24 75.9681 236.644C74.8559 236.977 70.983 237.655 67.361 238.151C63.739 238.646 59.2162 239.472 57.3104 239.985C54.0818 240.854 53.9755 240.816 55.7598 239.437C56.8127 238.623 61.6427 235.6 66.4938 232.719C71.3448 229.837 75.5699 227.064 75.8829 226.555C76.6726 225.274 76.6295 225.252 80.421 228.839ZM104.273 232.56C103.587 233.249 103.141 233.305 103.141 232.704C103.141 231.422 104.273 230.286 104.912 230.928C105.184 231.201 104.897 231.935 104.273 232.56Z" fill="black"/>
</svg>
