<svg xmlns="http://www.w3.org/2000/svg" width="20" height="21" viewBox="0 0 20 21" fill="none">
  <path d="M14.7413 9.87481H3.125C2.95924 9.87481 2.80027 9.94066 2.68306 10.0579C2.56585 10.1751 2.5 10.3341 2.5 10.4998C2.5 10.6656 2.56585 10.8245 2.68306 10.9418C2.80027 11.059 2.95924 11.1248 3.125 11.1248H14.7413L10.1825 15.6823C10.0651 15.7997 9.99921 15.9588 9.99921 16.1248C9.99921 16.2908 10.0651 16.45 10.1825 16.5673C10.2999 16.6847 10.459 16.7506 10.625 16.7506C10.791 16.7506 10.9501 16.6847 11.0675 16.5673L16.6925 10.9423C16.7507 10.8843 16.7969 10.8153 16.8284 10.7394C16.8599 10.6634 16.8761 10.582 16.8761 10.4998C16.8761 10.4176 16.8599 10.3362 16.8284 10.2603C16.7969 10.1843 16.7507 10.1154 16.6925 10.0573L11.0675 4.43231C10.9501 4.31495 10.791 4.24902 10.625 4.24902C10.459 4.24902 10.2999 4.31495 10.1825 4.43231C10.0651 4.54967 9.99921 4.70884 9.99921 4.87481C9.99921 5.04078 10.0651 5.19995 10.1825 5.31731L14.7413 9.87481Z" fill="#A4ADB3"/>
</svg>