<svg width="18" height="19" viewBox="0 0 18 19" fill="none" xmlns="http://www.w3.org/2000/svg">
<g id="bi:check">
<path id="Vector" d="M14.4177 3.90304C14.6922 3.64167 15.0575 3.49717 15.4366 3.50004C15.8156 3.50291 16.1787 3.65292 16.4493 3.91841C16.7198 4.18391 16.8767 4.54412 16.8867 4.92305C16.8967 5.30197 16.7591 5.66997 16.503 5.94939L8.72685 15.6744C8.59314 15.8185 8.43175 15.934 8.25235 16.0143C8.07295 16.0945 7.87921 16.1377 7.68272 16.1414C7.48624 16.145 7.29103 16.109 7.10878 16.0354C6.92653 15.9619 6.76098 15.8524 6.62203 15.7134L1.46522 10.5566C1.32161 10.4228 1.20643 10.2614 1.12654 10.0821C1.04665 9.90283 1.00369 9.70927 1.00023 9.51301C0.996765 9.31675 1.03287 9.1218 1.10638 8.9398C1.1799 8.75779 1.28932 8.59246 1.42812 8.45366C1.56692 8.31486 1.73225 8.20544 1.91425 8.13193C2.09626 8.05841 2.29121 8.02231 2.48747 8.02577C2.68373 8.02924 2.87728 8.07219 3.05658 8.15208C3.23588 8.23197 3.39725 8.34716 3.53106 8.49077L7.61207 12.5698L14.3806 3.94592C14.3928 3.93091 14.4039 3.9166 14.4177 3.90304Z" fill="#7F30FF"/>
</g>
</svg>
