<svg width="20" height="20" viewBox="0 0 20 20" fill="none" xmlns="http://www.w3.org/2000/svg">
<g id="uiw:down">
<path id="Vector" d="M10.102 12.778L16.809 6.08003C16.8741 6.01458 16.9517 5.96286 17.0372 5.92793C17.1226 5.89301 17.2142 5.87559 17.3066 5.87671C17.3989 5.87783 17.49 5.89746 17.5746 5.93445C17.6592 5.97143 17.7355 6.02502 17.799 6.09203C17.9291 6.2291 18.0007 6.41149 17.9984 6.60047C17.9962 6.78944 17.9203 6.97009 17.787 7.10403L10.584 14.297C10.5194 14.3621 10.4424 14.4136 10.3577 14.4486C10.2729 14.4836 10.182 14.5013 10.0903 14.5008C9.99855 14.5002 9.90787 14.4814 9.82353 14.4454C9.73918 14.4094 9.66286 14.3569 9.59902 14.291L2.20402 6.72003C2.07315 6.58449 2 6.40344 2 6.21503C2 6.02662 2.07315 5.84557 2.20402 5.71003C2.26834 5.6438 2.34528 5.59116 2.43031 5.55521C2.51534 5.51926 2.60671 5.50073 2.69902 5.50073C2.79134 5.50073 2.88271 5.51926 2.96774 5.55521C3.05276 5.59116 3.12971 5.6438 3.19402 5.71003L10.102 12.778Z" fill="black"/>
</g>
</svg>
