<svg xmlns="http://www.w3.org/2000/svg" width="20" height="21" viewBox="0 0 20 21" fill="none">
<path d="M10 2.78516C8.39303 2.78516 6.82214 3.26168 5.486 4.15447C4.14985 5.04725 3.10844 6.3162 2.49348 7.80085C1.87852 9.2855 1.71762 10.9192 2.03112 12.4953C2.34463 14.0714 3.11846 15.5191 4.25476 16.6554C5.39106 17.7917 6.8388 18.5655 8.4149 18.879C9.99099 19.1925 11.6247 19.0316 13.1093 18.4167C14.594 17.8017 15.8629 16.7603 16.7557 15.4242C17.6485 14.088 18.125 12.5171 18.125 10.9102C18.1227 8.75597 17.266 6.69067 15.7427 5.16743C14.2195 3.64419 12.1542 2.78743 10 2.78516ZM10 17.7852C8.64026 17.7852 7.31105 17.3819 6.18046 16.6265C5.04987 15.8711 4.16868 14.7973 3.64833 13.5411C3.12798 12.2849 2.99183 10.9025 3.2571 9.56891C3.52238 8.23529 4.17716 7.01028 5.13864 6.0488C6.10013 5.08731 7.32514 4.43253 8.65876 4.16726C9.99238 3.90198 11.3747 4.03813 12.631 4.55848C13.8872 5.07884 14.9609 5.96002 15.7164 7.09061C16.4718 8.2212 16.875 9.55041 16.875 10.9102C16.8729 12.7329 16.1479 14.4804 14.8591 15.7692C13.5702 17.0581 11.8227 17.7831 10 17.7852ZM7.5 10.9102C7.5 11.4349 7.6651 11.9463 7.9719 12.3719C8.2787 12.7976 8.71165 13.1159 9.20943 13.2819C9.70721 13.4478 10.2446 13.4529 10.7454 13.2964C11.2463 13.14 11.6852 12.8299 12 12.4102C12.0996 12.2775 12.2477 12.1899 12.4119 12.1666C12.5761 12.1432 12.7428 12.186 12.8754 12.2855C13.008 12.3851 13.0956 12.5333 13.119 12.6974C13.1424 12.8616 13.0996 13.0283 13 13.1609C12.5277 13.7904 11.8692 14.2553 11.118 14.4898C10.3668 14.7243 9.56083 14.7165 8.81427 14.4676C8.06771 14.2186 7.4184 13.7411 6.95829 13.1026C6.49818 12.4642 6.25059 11.6971 6.25059 10.9102C6.25059 10.1232 6.49818 9.35615 6.95829 8.71769C7.4184 8.07923 8.06771 7.60171 8.81427 7.35275C9.56083 7.10379 10.3668 7.09601 11.118 7.33051C11.8692 7.56502 12.5277 8.02992 13 8.65938C13.0493 8.72504 13.0852 8.79976 13.1056 8.87929C13.126 8.95882 13.1306 9.04159 13.119 9.12288C13.1074 9.20416 13.08 9.28238 13.0382 9.35305C12.9964 9.42372 12.9411 9.48547 12.8754 9.53477C12.8097 9.58406 12.735 9.61994 12.6555 9.64036C12.5759 9.66078 12.4932 9.66533 12.4119 9.65376C12.3306 9.64219 12.2524 9.61472 12.1817 9.57292C12.111 9.53113 12.0493 9.47582 12 9.41016C11.6852 8.99039 11.2463 8.68032 10.7454 8.52387C10.2446 8.36742 9.70721 8.37252 9.20943 8.53845C8.71165 8.70437 8.2787 9.02272 7.9719 9.44838C7.6651 9.87404 7.5 10.3854 7.5 10.9102Z" fill="#A4ADB3"/>
</svg>