<svg xmlns="http://www.w3.org/2000/svg" width="25" height="25" viewBox="0 0 25 25" fill="none">
  <path d="M11.8034 6.0483L12.5 6.72464L13.1966 6.0483C14.1866 5.08709 15.5255 4.5 17 4.5C20.0266 4.5 22.5 6.98558 22.5 10.0764C22.5 12.9019 20.9788 15.1511 18.9995 16.8897C17.0185 18.6298 14.6779 19.7651 13.302 20.3377C12.7821 20.5541 12.2179 20.5541 11.698 20.3377C10.3221 19.7651 7.98151 18.6298 6.00054 16.8897C4.02119 15.1511 2.5 12.9019 2.5 10.0764C2.5 6.98558 4.97342 4.5 8 4.5C9.47449 4.5 10.8134 5.08709 11.8034 6.0483Z" stroke="#A4ADB3" stroke-width="2"/>
</svg>