<svg width="22" height="22" viewBox="0 0 22 22" fill="none" xmlns="http://www.w3.org/2000/svg">
<g id="mdi:information">
<path id="Vector" d="M11.9193 8.24967H10.0859V6.41634H11.9193M11.9193 15.583H10.0859V10.083H11.9193M11.0026 1.83301C9.79882 1.83301 8.60682 2.07011 7.49467 2.53078C6.38252 2.99145 5.372 3.66666 4.52079 4.51786C2.80171 6.23695 1.83594 8.56852 1.83594 10.9997C1.83594 13.4308 2.80171 15.7624 4.52079 17.4815C5.372 18.3327 6.38252 19.0079 7.49467 19.4686C8.60682 19.9292 9.79882 20.1663 11.0026 20.1663C13.4338 20.1663 15.7653 19.2006 17.4844 17.4815C19.2035 15.7624 20.1693 13.4308 20.1693 10.9997C20.1693 9.79589 19.9322 8.60389 19.4715 7.49174C19.0108 6.37959 18.3356 5.36907 17.4844 4.51786C16.6332 3.66666 15.6227 2.99145 14.5105 2.53078C13.3984 2.07011 12.2064 1.83301 11.0026 1.83301Z" fill="#D1D6DC"/>
</g>
</svg>
