<svg xmlns="http://www.w3.org/2000/svg" width="17" height="17" viewBox="0 0 17 17" fill="none">
<path d="M9.20964 9.20866H7.79297V4.95866H9.20964M9.20964 12.042H7.79297V10.6253H9.20964M8.5013 1.41699C7.57111 1.41699 6.65002 1.60021 5.79063 1.95618C4.93124 2.31215 4.15038 2.8339 3.49263 3.49165C2.16425 4.82004 1.41797 6.62171 1.41797 8.50033C1.41797 10.3789 2.16425 12.1806 3.49263 13.509C4.15038 14.1667 4.93124 14.6885 5.79063 15.0445C6.65002 15.4004 7.57111 15.5837 8.5013 15.5837C10.3799 15.5837 12.1816 14.8374 13.51 13.509C14.8384 12.1806 15.5846 10.3789 15.5846 8.50033C15.5846 7.57013 15.4014 6.64904 15.0455 5.78965C14.6895 4.93026 14.1677 4.1494 13.51 3.49165C12.8522 2.8339 12.0714 2.31215 11.212 1.95618C10.3526 1.60021 9.4315 1.41699 8.5013 1.41699Z" fill="#FA5500"/>
</svg>