<svg xmlns="http://www.w3.org/2000/svg" width="22" height="23" viewBox="0 0 22 23" fill="none">
<path d="M18.4421 10.7126C18.6981 10.9667 18.9013 11.2689 19.04 11.6019C19.1786 11.9349 19.25 12.292 19.25 12.6527C19.25 13.0134 19.1786 13.3705 19.04 13.7035C18.9013 14.0365 18.6981 14.3387 18.4421 14.5928L13.9101 19.1028C13.3916 19.6174 12.6908 19.9061 11.9604 19.9061C11.2299 19.9061 10.5291 19.6174 10.0106 19.1028L3.58935 12.7132C3.07752 12.2044 2.78742 11.514 2.78222 10.7923L2.74923 6.16957C2.7474 5.80577 2.81778 5.44522 2.95628 5.10882C3.09478 4.77241 3.29866 4.46683 3.5561 4.20977C3.81354 3.95271 4.11942 3.74929 4.45604 3.61129C4.79265 3.47329 5.1533 3.40345 5.5171 3.40582L9.98585 3.42507C10.7125 3.42744 11.4091 3.71593 11.9246 4.22807L18.4421 10.7126ZM6.87422 8.90582C7.2389 8.90582 7.58863 8.76095 7.8465 8.50309C8.10436 8.24523 8.24922 7.89549 8.24922 7.53082C8.24922 7.16615 8.10436 6.81641 7.8465 6.55855C7.58863 6.30069 7.2389 6.15582 6.87422 6.15582C6.50955 6.15582 6.15982 6.30069 5.90195 6.55855C5.64409 6.81641 5.49922 7.16615 5.49922 7.53082C5.49922 7.89549 5.64409 8.24523 5.90195 8.50309C6.15982 8.76095 6.50955 8.90582 6.87422 8.90582Z" fill="#7F30FF"/>
</svg>