<svg width="47" height="46" viewBox="0 0 47 46" fill="none" xmlns="http://www.w3.org/2000/svg">
<g id="bi:upload" clip-path="url(#clip0_1589_15409)">
<g id="Group">
<path id="Vector" d="M1.9375 28.4629C2.31875 28.4629 2.68438 28.6143 2.95397 28.8839C3.22355 29.1535 3.375 29.5191 3.375 29.9004V37.0879C3.375 37.8504 3.6779 38.5817 4.21707 39.1208C4.75624 39.66 5.4875 39.9629 6.25 39.9629H40.75C41.5125 39.9629 42.2438 39.66 42.7829 39.1208C43.3221 38.5817 43.625 37.8504 43.625 37.0879V29.9004C43.625 29.5191 43.7765 29.1535 44.046 28.8839C44.3156 28.6143 44.6813 28.4629 45.0625 28.4629C45.4437 28.4629 45.8094 28.6143 46.079 28.8839C46.3485 29.1535 46.5 29.5191 46.5 29.9004V37.0879C46.5 38.6129 45.8942 40.0754 44.8159 41.1538C43.7375 42.2321 42.275 42.8379 40.75 42.8379H6.25C4.72501 42.8379 3.26247 42.2321 2.18414 41.1538C1.1058 40.0754 0.5 38.6129 0.5 37.0879V29.9004C0.5 29.5191 0.65145 29.1535 0.921034 28.8839C1.19062 28.6143 1.55625 28.4629 1.9375 28.4629Z" fill="black"/>
<path id="Vector_2" d="M22.4841 3.29537C22.6176 3.1615 22.7762 3.05529 22.9509 2.98282C23.1255 2.91035 23.3127 2.87305 23.5018 2.87305C23.6909 2.87305 23.8781 2.91035 24.0528 2.98282C24.2274 3.05529 24.386 3.1615 24.5196 3.29537L33.1446 11.9204C33.4145 12.1903 33.5661 12.5564 33.5661 12.9381C33.5661 13.3198 33.4145 13.6859 33.1446 13.9559C32.8746 14.2258 32.5085 14.3774 32.1268 14.3774C31.7451 14.3774 31.379 14.2258 31.1091 13.9559L24.9393 7.78324V33.0631C24.9393 33.4444 24.7879 33.81 24.5183 34.0796C24.2487 34.3492 23.8831 34.5006 23.5018 34.5006C23.1206 34.5006 22.7549 34.3492 22.4854 34.0796C22.2158 33.81 22.0643 33.4444 22.0643 33.0631V7.78324L15.8946 13.9559C15.7609 14.0895 15.6022 14.1955 15.4276 14.2679C15.253 14.3402 15.0658 14.3774 14.8768 14.3774C14.6878 14.3774 14.5006 14.3402 14.326 14.2679C14.1514 14.1955 13.9927 14.0895 13.8591 13.9559C13.7254 13.8222 13.6194 13.6635 13.5471 13.4889C13.4747 13.3143 13.4375 13.1271 13.4375 12.9381C13.4375 12.7491 13.4747 12.5619 13.5471 12.3873C13.6194 12.2127 13.7254 12.054 13.8591 11.9204L22.4841 3.29537Z" fill="black"/>
</g>
</g>
<defs>
<clipPath id="clip0_1589_15409">
<rect width="46" height="46" fill="white" transform="translate(0.5)"/>
</clipPath>
</defs>
</svg>
