<svg width="32" height="30" viewBox="0 0 32 30" fill="none" xmlns="http://www.w3.org/2000/svg">
<path id="Vector" d="M28.2625 4.57816H24.0141L21.9252 1.44551C21.8132 1.27777 21.6617 1.14022 21.4839 1.04505C21.3061 0.949878 21.1076 0.900023 20.906 0.899902H11.0973C10.8956 0.900023 10.6971 0.949878 10.5194 1.04505C10.3416 1.14022 10.19 1.27777 10.0781 1.44551L7.98762 4.57816H3.74076C2.76523 4.57816 1.82965 4.96569 1.13984 5.6555C0.45003 6.34531 0.0625 7.28089 0.0625 8.25642V25.4216C0.0625 26.3972 0.45003 27.3328 1.13984 28.0226C1.82965 28.7124 2.76523 29.0999 3.74076 29.0999H28.2625C29.238 29.0999 30.1736 28.7124 30.8634 28.0226C31.5532 27.3328 31.9408 26.3972 31.9408 25.4216V8.25642C31.9408 7.28089 31.5532 6.34531 30.8634 5.6555C30.1736 4.96569 29.238 4.57816 28.2625 4.57816ZM29.4886 25.4216C29.4886 25.7468 29.3594 26.0587 29.1295 26.2886C28.8995 26.5186 28.5877 26.6477 28.2625 26.6477H3.74076C3.41558 26.6477 3.10372 26.5186 2.87379 26.2886C2.64385 26.0587 2.51467 25.7468 2.51467 25.4216V8.25642C2.51467 7.93125 2.64385 7.61939 2.87379 7.38945C3.10372 7.15951 3.41558 7.03034 3.74076 7.03034H8.64511C8.84702 7.03047 9.04583 6.98073 9.2239 6.88555C9.40196 6.79037 9.55377 6.65269 9.66583 6.48473L11.7532 3.35208H20.2485L22.3374 6.48473C22.4495 6.65269 22.6013 6.79037 22.7794 6.88555C22.9574 6.98073 23.1562 7.03047 23.3582 7.03034H28.2625C28.5877 7.03034 28.8995 7.15951 29.1295 7.38945C29.3594 7.61939 29.4886 7.93125 29.4886 8.25642V25.4216ZM16.0016 9.48251C14.6679 9.48251 13.3641 9.87801 12.2552 10.619C11.1462 11.36 10.2819 12.4132 9.77147 13.6454C9.26107 14.8776 9.12753 16.2335 9.38773 17.5416C9.64793 18.8497 10.2902 20.0513 11.2333 20.9943C12.1764 21.9374 13.3779 22.5797 14.686 22.8399C15.9941 23.1001 17.35 22.9665 18.5822 22.4562C19.8145 21.9458 20.8676 21.0814 21.6086 19.9725C22.3496 18.8635 22.7451 17.5597 22.7451 16.226C22.7431 14.4381 22.032 12.7241 20.7677 11.4599C19.5035 10.1957 17.7895 9.48454 16.0016 9.48251ZM16.0016 20.5173C15.1529 20.5173 14.3232 20.2656 13.6175 19.7941C12.9118 19.3225 12.3618 18.6523 12.037 17.8682C11.7122 17.0841 11.6272 16.2212 11.7928 15.3888C11.9584 14.5564 12.3671 13.7917 12.9672 13.1916C13.5674 12.5914 14.332 12.1827 15.1644 12.0171C15.9969 11.8516 16.8597 11.9365 17.6438 12.2613C18.428 12.5861 19.0982 13.1362 19.5697 13.8419C20.0413 14.5476 20.2929 15.3772 20.2929 16.226C20.2929 17.3641 19.8408 18.4556 19.036 19.2604C18.2313 20.0652 17.1398 20.5173 16.0016 20.5173Z" fill="#D1D6DC"/>
</svg>
