<svg width="26" height="26" viewBox="0 0 26 26" fill="none" xmlns="http://www.w3.org/2000/svg">
<path id="Vector" d="M25.4418 23.6295C25.5609 23.7486 25.6554 23.89 25.7199 24.0456C25.7843 24.2012 25.8175 24.368 25.8175 24.5364C25.8175 24.7048 25.7843 24.8716 25.7199 25.0272C25.6554 25.1828 25.5609 25.3242 25.4418 25.4433C25.3227 25.5624 25.1814 25.6569 25.0257 25.7213C24.8701 25.7858 24.7034 25.8189 24.5349 25.8189C24.3665 25.8189 24.1997 25.7858 24.0441 25.7213C23.8885 25.6569 23.7472 25.5624 23.6281 25.4433L12.9986 14.8122L2.3691 25.4433C2.12858 25.6838 1.80237 25.8189 1.46222 25.8189C1.12207 25.8189 0.795853 25.6838 0.555332 25.4433C0.314811 25.2028 0.179688 24.8766 0.179688 24.5364C0.179687 24.1963 0.314811 23.87 0.555332 23.6295L11.1864 13L0.555332 2.37057C0.314811 2.13005 0.179687 1.80383 0.179688 1.46368C0.179688 1.12353 0.314811 0.797318 0.555332 0.556797C0.795853 0.316276 1.12207 0.181152 1.46222 0.181152C1.80237 0.181152 2.12858 0.316276 2.3691 0.556797L12.9986 11.1879L23.6281 0.556797C23.8686 0.316276 24.1948 0.181152 24.5349 0.181152C24.8751 0.181152 25.2013 0.316276 25.4418 0.556797C25.6824 0.797318 25.8175 1.12353 25.8175 1.46368C25.8175 1.80383 25.6824 2.13005 25.4418 2.37057L14.8108 13L25.4418 23.6295Z" fill="#D1D6DC"/>
</svg>
