<svg width="30" height="30" viewBox="0 0 30 30" fill="none" xmlns="http://www.w3.org/2000/svg">
<g id="flat-color-icons:google">
<g id="Group 48096466">
<path id="Vector" d="M25.2909 12.6446H24.425V12.6H14.75V16.9H20.8254C19.939 19.4031 17.5574 21.2 14.75 21.2C11.188 21.2 8.3 18.312 8.3 14.75C8.3 11.188 11.188 8.3 14.75 8.3C16.3942 8.3 17.8901 8.92028 19.029 9.93346L22.0697 6.89283C20.1497 5.10349 17.5816 4 14.75 4C8.81331 4 4 8.81331 4 14.75C4 20.6867 8.81331 25.5 14.75 25.5C20.6867 25.5 25.5 20.6867 25.5 14.75C25.5 14.0292 25.4258 13.3256 25.2909 12.6446Z" fill="#FFC107"/>
<path id="Vector_2" d="M5.23438 9.74641L8.76629 12.3366C9.72196 9.97055 12.0364 8.3 14.7449 8.3C16.3891 8.3 17.885 8.92027 19.0239 9.93346L22.0646 6.89282C20.1446 5.10349 17.5765 4 14.7449 4C10.6158 4 7.035 6.33114 5.23438 9.74641Z" fill="#FF3D00"/>
<path id="Vector_3" d="M14.7499 25.5007C17.5266 25.5007 20.0496 24.438 21.9572 22.71L18.6301 19.8945C17.5145 20.7429 16.1514 21.2018 14.7499 21.2007C11.9538 21.2007 9.57966 19.4178 8.68526 16.9297L5.17969 19.6306C6.95881 23.112 10.5719 25.5007 14.7499 25.5007Z" fill="#4CAF50"/>
<path id="Vector_4" d="M25.2909 12.6462H24.425V12.6016H14.75V16.9016H20.8254C20.4014 18.0929 19.6377 19.1339 18.6286 19.896L18.6302 19.8949L21.9573 22.7103C21.7219 22.9242 25.5 20.1266 25.5 14.7516C25.5 14.0308 25.4258 13.3272 25.2909 12.6462Z" fill="#1976D2"/>
</g>
</g>
</svg>
