<svg width="31" height="30" viewBox="0 0 31 30" fill="none" xmlns="http://www.w3.org/2000/svg">
<g id="ri:kakao-talk-fill">
<path id="Vector" d="M15.4987 3.75C22.7487 3.75 28.625 8.33 28.625 13.9813C28.625 19.6313 22.7487 24.2113 15.5 24.2113C14.7782 24.2116 14.0572 24.1657 13.3412 24.0738L7.83125 27.6775C7.205 28.0088 6.98375 27.9725 7.24125 27.1613L8.35625 22.5638C4.75625 20.7388 2.375 17.5763 2.375 13.9813C2.375 8.33125 8.25 3.75 15.5 3.75H15.4987ZM22.8838 13.825L24.7213 12.045C24.8273 11.9349 24.8864 11.7879 24.8862 11.6351C24.8861 11.4822 24.8266 11.3354 24.7203 11.2255C24.614 11.1157 24.4692 11.0513 24.3164 11.0461C24.1636 11.0409 24.0148 11.0952 23.9013 11.1975L21.4913 13.53V11.6025C21.4913 11.446 21.4291 11.296 21.3184 11.1853C21.2078 11.0747 21.0577 11.0125 20.9013 11.0125C20.7448 11.0125 20.5947 11.0747 20.4841 11.1853C20.3734 11.296 20.3113 11.446 20.3113 11.6025V14.7987C20.2892 14.8899 20.2892 14.9851 20.3113 15.0763V16.875C20.3113 17.0315 20.3734 17.1815 20.4841 17.2922C20.5947 17.4028 20.7448 17.465 20.9013 17.465C21.0577 17.465 21.2078 17.4028 21.3184 17.2922C21.4291 17.1815 21.4913 17.0315 21.4913 16.875V15.1713L22.025 14.655L23.81 17.1962C23.8546 17.2597 23.9112 17.3137 23.9767 17.3553C24.0421 17.3969 24.1151 17.4251 24.1915 17.4385C24.2679 17.4518 24.3461 17.45 24.4218 17.4331C24.4975 17.4162 24.5691 17.3846 24.6325 17.34C24.6959 17.2954 24.75 17.2388 24.7916 17.1734C24.8331 17.1079 24.8614 17.0349 24.8747 16.9585C24.8881 16.8821 24.8862 16.8039 24.8693 16.7282C24.8525 16.6525 24.8208 16.5809 24.7763 16.5175L22.8838 13.8237V13.825ZM19.1862 16.23H17.3612V11.6213C17.3543 11.4696 17.2891 11.3265 17.1794 11.2217C17.0696 11.1169 16.9237 11.0584 16.7719 11.0584C16.6201 11.0584 16.4742 11.1169 16.3644 11.2217C16.2546 11.3265 16.1895 11.4696 16.1825 11.6213V16.82C16.1825 17.145 16.445 17.41 16.7712 17.41H19.1862C19.3427 17.41 19.4928 17.3478 19.6034 17.2372C19.7141 17.1265 19.7762 16.9765 19.7762 16.82C19.7762 16.6635 19.7141 16.5135 19.6034 16.4028C19.4928 16.2922 19.3427 16.23 19.1862 16.23ZM11.865 14.8662L12.735 12.7313L13.5325 14.865L11.865 14.8662ZM15.0187 15.475L15.0212 15.455C15.021 15.3064 14.9642 15.1634 14.8625 15.055L13.555 11.555C13.5002 11.3882 13.3958 11.2421 13.2557 11.1362C13.1157 11.0304 12.9467 10.9698 12.7712 10.9625C12.5945 10.9617 12.4218 11.0148 12.276 11.1146C12.1302 11.2144 12.0182 11.3562 11.955 11.5212L9.8775 16.615C9.81832 16.7599 9.81912 16.9223 9.87972 17.0666C9.94032 17.2109 10.0558 17.3252 10.2006 17.3844C10.3455 17.4436 10.5079 17.4428 10.6522 17.3822C10.7965 17.3216 10.9108 17.2061 10.97 17.0613L11.385 16.045H13.9725L14.345 17.045C14.3704 17.1197 14.4106 17.1886 14.4631 17.2476C14.5156 17.3065 14.5794 17.3543 14.6507 17.3882C14.7221 17.422 14.7995 17.4412 14.8784 17.4446C14.9572 17.4479 15.036 17.4355 15.1099 17.4078C15.1839 17.3802 15.2516 17.3381 15.3089 17.2838C15.3663 17.2296 15.4122 17.1644 15.4439 17.0921C15.4756 17.0198 15.4925 16.9418 15.4936 16.8629C15.4946 16.784 15.4798 16.7056 15.45 16.6325L15.0187 15.475ZM10.8663 11.6275C10.8663 11.4712 10.8043 11.3214 10.6939 11.2107C10.5835 11.1001 10.4338 11.0378 10.2775 11.0375H6.22125C6.06477 11.0375 5.9147 11.0997 5.80406 11.2103C5.69341 11.321 5.63125 11.471 5.63125 11.6275C5.63125 11.784 5.69341 11.934 5.80406 12.0447C5.9147 12.1553 6.06477 12.2175 6.22125 12.2175H7.67125V16.8875C7.67125 17.044 7.73341 17.194 7.84406 17.3047C7.9547 17.4153 8.10477 17.4775 8.26125 17.4775C8.41773 17.4775 8.5678 17.4153 8.67844 17.3047C8.78909 17.194 8.85125 17.044 8.85125 16.8875V12.2175H10.2762C10.4327 12.2175 10.5828 12.1553 10.6934 12.0447C10.8041 11.934 10.8663 11.784 10.8663 11.6275Z" fill="black"/>
</g>
</svg>
