<svg width="139" height="26" viewBox="0 0 139 26" fill="none" xmlns="http://www.w3.org/2000/svg">
<path fill-rule="evenodd" clip-rule="evenodd" d="M0 5.95636V20.806C0 21.5383 0.593609 22.1319 1.32586 22.1319H8.14C9.42768 22.2234 12.1962 22.9283 12.9688 25.0156V21.5826C12.9688 20.458 14.3485 18.4692 17.6597 18.4692H25.0261C25.7584 18.4692 26.3515 17.8756 26.3515 17.1433V2.31024C26.3515 1.57798 25.7579 0.984375 25.0256 0.984375H18.2306C16.575 0.984375 13.0929 1.73017 13.0929 4.6305H1.32586C0.593607 4.6305 0 5.2241 0 5.95636ZM36.476 5.1531V19.5003H39.4787V14.9764H42.3919C45.4145 14.9764 47.4328 13.0277 47.4328 10.0747V10.0548C47.4328 7.10186 45.4145 5.1531 42.3919 5.1531H36.476ZM39.4787 7.5294H41.6562C43.3762 7.5294 44.3904 8.43418 44.3904 10.0648V10.0847C44.3904 11.7152 43.3762 12.63 41.6562 12.63H39.4787V7.5294ZM50.0771 5.1531V19.5003H53.0798V5.1531H50.0771ZM55.8036 12.3317C55.8036 16.9848 58.3787 19.8682 62.5348 19.8682C65.9948 19.8682 68.4506 17.82 68.7589 14.8174L68.7688 14.708H65.8457L65.8258 14.7875C65.5076 16.3187 64.2648 17.3229 62.5447 17.3229C60.2778 17.3229 58.8759 15.4139 58.8759 12.3317V12.3118C58.8759 9.22959 60.2778 7.33054 62.5348 7.33054C64.2449 7.33054 65.5275 8.42423 65.8357 10.0349V10.1045H68.7589V9.98523C68.4805 6.95272 65.9352 4.78523 62.5348 4.78523C58.3688 4.78523 55.8036 7.65865 55.8036 12.3118V12.3317ZM71.4131 5.1531V19.5003H74.4158V15.1156L75.8376 13.4055L80.0035 19.5003H83.6028L78.0051 11.4369L83.2349 5.1531H79.8942L74.5947 11.5959H74.4158V5.1531H71.4131ZM89.7071 5.1531L84.7258 19.5003H87.8776L88.9415 16.0204H94.0023L95.0662 19.5003H98.2279L93.2367 5.1531H89.7071ZM89.6275 13.7734L91.3874 8.01658H91.5663L93.3163 13.7734H89.6275ZM100.544 5.1531V19.5003H103.547V14.9764H106.46C109.483 14.9764 111.501 13.0277 111.501 10.0747V10.0548C111.501 7.10186 109.483 5.1531 106.46 5.1531H100.544ZM103.547 7.5294H105.724C107.444 7.5294 108.458 8.43418 108.458 10.0648V10.0847C108.458 11.7152 107.444 12.63 105.724 12.63H103.547V7.5294ZM114.145 5.1531V19.5003H123.65V17.0246H117.148V13.3956H123.282V11.0889H117.148V7.62882H123.65V5.1531H114.145ZM126.692 5.1531V19.5003H129.566V10.3233H129.725L136.366 19.5003H138.852V5.1531H135.979V14.2904H135.82L129.198 5.1531H126.692Z" fill="#252525"/>
</svg>
